<?xml version="1.0" encoding="utf-8"?>
<!-- Generator: Adobe Illustrator 27.5.0, SVG Export Plug-In . SVG Version: 6.00 Build 0)  -->
<svg version="1.1" xmlns="http://www.w3.org/2000/svg" xmlns:xlink="http://www.w3.org/1999/xlink" x="0px" y="0px"
	 viewBox="0 0 750 500" style="enable-background:new 0 0 750 500;" xml:space="preserve">
<g id="BACKGROUND">
	<g>
		<g>
			<rect style="fill:#7E89FD;" width="750" height="500"/>
		</g>
	</g>
</g>
<g id="OBJECTS">
	<g>
		<g>
			<g>
				<rect x="238.408" y="76.386" style="fill:#7283F7;" width="234.855" height="199.369"/>
				<rect x="238.408" y="275.755" style="fill:#6076E8;" width="234.855" height="3.363"/>
				<rect x="246.49" y="82.943" style="fill:#9CA8FF;" width="218.683" height="186.259"/>
				<polygon style="opacity:0.2;fill:#FFFDFC;" points="465.173,135.484 465.173,167.155 331.955,82.943 382.04,82.943 				"/>
				<polygon style="opacity:0.2;fill:#FFFDFC;" points="465.173,179.02 465.173,196.226 285.983,82.943 313.185,82.943 				"/>
				<polygon style="opacity:0.2;fill:#FFFDFC;" points="465.173,213.075 465.173,269.202 421.293,269.202 246.49,158.704 
					246.49,82.943 259.312,82.943 				"/>
				
					<rect x="257.849" y="168.239" transform="matrix(-1.836970e-16 1 -1 -1.836970e-16 531.9061 -179.7645)" style="fill:#7283F7;" width="195.973" height="15.663"/>
			</g>
			<g>
				<g>
					<path style="fill:#6076E8;" d="M477.444,173.835H234.219c-0.8,0-1.448-0.648-1.448-1.448l0,0c0-0.8,0.648-1.448,1.448-1.448
						h243.225c0.8,0,1.448,0.648,1.448,1.448l0,0C478.892,173.186,478.244,173.835,477.444,173.835z"/>
					<path style="fill:#6076E8;" d="M477.444,77.835H234.219c-0.8,0-1.448-0.648-1.448-1.448l0,0c0-0.8,0.648-1.448,1.448-1.448
						h243.225c0.8,0,1.448,0.648,1.448,1.448l0,0C478.892,77.186,478.244,77.835,477.444,77.835z"/>
					<path style="fill:#6076E8;" d="M477.444,83.835H234.219c-0.8,0-1.448-0.648-1.448-1.448l0,0c0-0.8,0.648-1.448,1.448-1.448
						h243.225c0.8,0,1.448,0.648,1.448,1.448l0,0C478.892,83.186,478.244,83.835,477.444,83.835z"/>
					<path style="fill:#6076E8;" d="M477.444,89.835H234.219c-0.8,0-1.448-0.648-1.448-1.448l0,0c0-0.8,0.648-1.448,1.448-1.448
						h243.225c0.8,0,1.448,0.648,1.448,1.448l0,0C478.892,89.186,478.244,89.835,477.444,89.835z"/>
					<path style="fill:#6076E8;" d="M477.444,95.835H234.219c-0.8,0-1.448-0.648-1.448-1.448l0,0c0-0.8,0.648-1.448,1.448-1.448
						h243.225c0.8,0,1.448,0.648,1.448,1.448l0,0C478.892,95.186,478.244,95.835,477.444,95.835z"/>
					<path style="fill:#6076E8;" d="M477.444,101.835H234.219c-0.8,0-1.448-0.648-1.448-1.448l0,0c0-0.8,0.648-1.448,1.448-1.448
						h243.225c0.8,0,1.448,0.648,1.448,1.448l0,0C478.892,101.186,478.244,101.835,477.444,101.835z"/>
					<path style="fill:#6076E8;" d="M477.444,107.835H234.219c-0.8,0-1.448-0.648-1.448-1.448l0,0c0-0.8,0.648-1.448,1.448-1.448
						h243.225c0.8,0,1.448,0.648,1.448,1.448l0,0C478.892,107.186,478.244,107.835,477.444,107.835z"/>
					<path style="fill:#6076E8;" d="M477.444,113.835H234.219c-0.8,0-1.448-0.648-1.448-1.448l0,0c0-0.8,0.648-1.448,1.448-1.448
						h243.225c0.8,0,1.448,0.648,1.448,1.448l0,0C478.892,113.186,478.244,113.835,477.444,113.835z"/>
					<path style="fill:#6076E8;" d="M477.444,119.835H234.219c-0.8,0-1.448-0.648-1.448-1.448l0,0c0-0.8,0.648-1.448,1.448-1.448
						h243.225c0.8,0,1.448,0.648,1.448,1.448l0,0C478.892,119.186,478.244,119.835,477.444,119.835z"/>
					<path style="fill:#6076E8;" d="M477.444,125.835H234.219c-0.8,0-1.448-0.648-1.448-1.448l0,0c0-0.8,0.648-1.448,1.448-1.448
						h243.225c0.8,0,1.448,0.648,1.448,1.448l0,0C478.892,125.186,478.244,125.835,477.444,125.835z"/>
					<path style="fill:#6076E8;" d="M477.444,131.835H234.219c-0.8,0-1.448-0.648-1.448-1.448l0,0c0-0.8,0.648-1.448,1.448-1.448
						h243.225c0.8,0,1.448,0.648,1.448,1.448l0,0C478.892,131.186,478.244,131.835,477.444,131.835z"/>
					<path style="fill:#6076E8;" d="M477.444,137.835H234.219c-0.8,0-1.448-0.648-1.448-1.448l0,0c0-0.8,0.648-1.448,1.448-1.448
						h243.225c0.8,0,1.448,0.648,1.448,1.448l0,0C478.892,137.186,478.244,137.835,477.444,137.835z"/>
					<path style="fill:#6076E8;" d="M477.444,143.835H234.219c-0.8,0-1.448-0.648-1.448-1.448l0,0c0-0.8,0.648-1.448,1.448-1.448
						h243.225c0.8,0,1.448,0.648,1.448,1.448l0,0C478.892,143.186,478.244,143.835,477.444,143.835z"/>
					<path style="fill:#6076E8;" d="M477.444,149.835H234.219c-0.8,0-1.448-0.648-1.448-1.448l0,0c0-0.8,0.648-1.448,1.448-1.448
						h243.225c0.8,0,1.448,0.648,1.448,1.448l0,0C478.892,149.186,478.244,149.835,477.444,149.835z"/>
					<path style="fill:#6076E8;" d="M477.444,155.835H234.219c-0.8,0-1.448-0.648-1.448-1.448l0,0c0-0.8,0.648-1.448,1.448-1.448
						h243.225c0.8,0,1.448,0.648,1.448,1.448l0,0C478.892,155.186,478.244,155.835,477.444,155.835z"/>
					<path style="fill:#6076E8;" d="M477.444,161.835H234.219c-0.8,0-1.448-0.648-1.448-1.448l0,0c0-0.8,0.648-1.448,1.448-1.448
						h243.225c0.8,0,1.448,0.648,1.448,1.448l0,0C478.892,161.186,478.244,161.835,477.444,161.835z"/>
					<path style="fill:#6076E8;" d="M477.444,167.835H234.219c-0.8,0-1.448-0.648-1.448-1.448l0,0c0-0.8,0.648-1.448,1.448-1.448
						h243.225c0.8,0,1.448,0.648,1.448,1.448l0,0C478.892,167.186,478.244,167.835,477.444,167.835z"/>
				</g>
				<path style="fill:#4963CE;" d="M477.196,70.126H234.468c-0.937,0-1.697-0.76-1.697-1.697V66.03c0-0.937,0.76-1.697,1.697-1.697
					h242.728c0.937,0,1.697,0.76,1.697,1.697v2.399C478.892,69.366,478.133,70.126,477.196,70.126z"/>
				<rect x="460" y="70.126" style="fill:#4963CE;" width="1.667" height="108.874"/>
				<path style="fill:#4963CE;" d="M461.569,185.375h-1.471c-0.642,0-1.162-0.52-1.162-1.162v-5.55c0-0.642,0.52-1.162,1.162-1.162
					h1.471c0.642,0,1.162,0.52,1.162,1.162v5.55C462.731,184.855,462.211,185.375,461.569,185.375z"/>
			</g>
		</g>
		<g>
			<g>
				
					<ellipse transform="matrix(0.233 -0.9725 0.9725 0.233 391.2533 685.9947)" style="fill:none;stroke:#6076E8;stroke-miterlimit:10;" cx="630.508" cy="94.965" rx="32.505" ry="32.505"/>
				
					<ellipse transform="matrix(0.9518 -0.3068 0.3068 0.9518 1.2665 197.9888)" style="fill:#3945BA;" cx="630.508" cy="94.965" rx="28.26" ry="28.26"/>
				<path style="fill:#FFFFFF;" d="M633.08,94.965c0,1.421-1.152,2.572-2.572,2.572c-1.421,0-2.572-1.152-2.572-2.572
					c0-1.421,1.152-2.572,2.572-2.572C631.928,92.393,633.08,93.545,633.08,94.965z"/>
				<path style="fill:#FFFFFF;" d="M630.227,94.46L630.227,94.46c-0.389,0.215-0.878,0.075-1.094-0.314l-8.311-14.991
					c-0.216-0.389-0.075-0.878,0.313-1.094l0,0c0.389-0.215,0.878-0.075,1.094,0.313l8.311,14.991
					C630.756,93.755,630.616,94.244,630.227,94.46z"/>
				<path style="fill:#FFFFFF;" d="M630.917,95.374L630.917,95.374c0.314-0.314,0.824-0.314,1.138,0l7.19,7.19
					c0.314,0.314,0.314,0.824,0,1.138l0,0c-0.314,0.314-0.824,0.314-1.138,0l-7.19-7.19
					C630.602,96.198,630.602,95.688,630.917,95.374z"/>
				<g>
					
						<line style="fill:none;stroke:#FFFFFF;stroke-width:2;stroke-linecap:round;stroke-miterlimit:10;" x1="630.681" y1="72.346" x2="630.681" y2="69.096"/>
					
						<line style="fill:none;stroke:#FFFFFF;stroke-width:2;stroke-linecap:round;stroke-miterlimit:10;" x1="653.127" y1="95.138" x2="656.377" y2="95.138"/>
					
						<line style="fill:none;stroke:#FFFFFF;stroke-width:2;stroke-linecap:round;stroke-miterlimit:10;" x1="630.335" y1="117.585" x2="630.335" y2="120.835"/>
					
						<line style="fill:none;stroke:#FFFFFF;stroke-width:2;stroke-linecap:round;stroke-miterlimit:10;" x1="607.888" y1="94.792" x2="604.638" y2="94.792"/>
				</g>
				<g style="opacity:0.5;">
					
						<line style="fill:none;stroke:#DEE3FC;stroke-linecap:round;stroke-miterlimit:10;" x1="619.348" y1="75.289" x2="617.723" y2="72.475"/>
					
						<line style="fill:none;stroke:#DEE3FC;stroke-linecap:round;stroke-miterlimit:10;" x1="650.183" y1="83.805" x2="652.998" y2="82.18"/>
					
						<line style="fill:none;stroke:#DEE3FC;stroke-linecap:round;stroke-miterlimit:10;" x1="641.668" y1="114.641" x2="643.293" y2="117.456"/>
					
						<line style="fill:none;stroke:#DEE3FC;stroke-linecap:round;stroke-miterlimit:10;" x1="610.832" y1="106.125" x2="608.018" y2="107.75"/>
				</g>
				<g style="opacity:0.5;">
					
						<line style="fill:none;stroke:#DEE3FC;stroke-linecap:round;stroke-miterlimit:10;" x1="611.005" y1="83.506" x2="608.19" y2="81.881"/>
					
						<line style="fill:none;stroke:#DEE3FC;stroke-linecap:round;stroke-miterlimit:10;" x1="641.967" y1="75.463" x2="643.592" y2="72.648"/>
					
						<line style="fill:none;stroke:#DEE3FC;stroke-linecap:round;stroke-miterlimit:10;" x1="650.01" y1="106.425" x2="652.825" y2="108.05"/>
					
						<line style="fill:none;stroke:#DEE3FC;stroke-linecap:round;stroke-miterlimit:10;" x1="619.048" y1="114.468" x2="617.423" y2="117.283"/>
				</g>
			</g>
			<g>
				<rect x="506.951" y="62.647" style="fill:#4963CE;" width="63.362" height="84.791"/>
				<rect x="506.951" y="147.438" style="fill:#6076E8;" width="63.362" height="1.936"/>
				<rect x="510.933" y="66.832" style="fill:#9CA8FF;" width="55.397" height="76.421"/>
				<rect x="510.933" y="66.831" style="fill:#7283F7;" width="27.232" height="27.699"/>
				<rect x="538.165" y="92.092" style="fill:#7283F7;" width="28.134" height="4.865"/>
				<rect x="538.196" y="99.388" style="fill:#7283F7;" width="28.134" height="3.054"/>
				<rect x="538.196" y="104.872" style="fill:#7283F7;" width="28.134" height="3.054"/>
				<rect x="538.196" y="110.357" style="fill:#7283F7;" width="28.134" height="3.054"/>
				<rect x="538.196" y="115.842" style="fill:#7283F7;" width="28.134" height="3.054"/>
				<polygon style="fill:#7283F7;" points="538.196,143.253 538.196,118.895 510.933,143.253 				"/>
				<polygon style="fill:#7283F7;" points="510.933,118.895 510.933,94.538 538.196,118.895 				"/>
				<polygon style="fill:#7283F7;" points="552.263,143.253 552.263,118.895 525,143.253 				"/>
				<polygon style="fill:#7283F7;" points="566.33,143.253 566.33,118.895 539.067,143.253 				"/>
				
					<ellipse transform="matrix(0.7071 -0.7071 0.7071 0.7071 104.5414 414.1813)" style="fill:#7283F7;" cx="552.232" cy="80.898" rx="14.067" ry="14.067"/>
			</g>
			<g>
				<path style="fill:#4963CE;" d="M529.713,192.684c3.108-4.907,3.371-24.849,3.371-24.849h-26.421c0,0-0.263,19.942-3.371,24.849
					H529.713z"/>
				<rect x="508.208" y="164.938" style="opacity:0.2;fill:#FFFDFC;" width="2.083" height="4.822"/>
				<rect x="529.458" y="164.938" style="opacity:0.2;fill:#FFFDFC;" width="2.083" height="4.822"/>
			</g>
			<g>
				<path style="fill:#4963CE;" d="M138.945,237.862c-4.06-6.411-4.403-32.462-4.403-32.462h34.515c0,0,0.343,26.051,4.403,32.462
					H138.945z"/>
				
					<rect x="164.315" y="201.617" transform="matrix(-1 -1.224647e-16 1.224647e-16 -1 331.3521 409.533)" style="opacity:0.2;fill:#FFFDFC;" width="2.721" height="6.299"/>
				
					<rect x="136.556" y="201.617" transform="matrix(-1 -1.224647e-16 1.224647e-16 -1 275.8328 409.533)" style="opacity:0.2;fill:#FFFDFC;" width="2.722" height="6.299"/>
			</g>
			<g>
				<path style="fill:#E3E5ED;" d="M566.379,214.734c3.108-4.908,3.371-24.849,3.371-24.849h-26.421c0,0-0.263,19.942-3.371,24.849
					H566.379z"/>
				<rect x="544.875" y="186.988" style="opacity:0.2;fill:#FFFDFC;" width="2.083" height="4.822"/>
				<rect x="566.125" y="186.988" style="opacity:0.2;fill:#FFFDFC;" width="2.083" height="4.822"/>
			</g>
			<g>
				<g>
					<path style="fill:#4963CE;" d="M220.1,172.387H69.803c-1.04,0-1.883-0.843-1.883-1.883l0,0c0-1.04,0.843-1.883,1.883-1.883
						H220.1c1.04,0,1.883,0.843,1.883,1.883l0,0C221.983,171.543,221.14,172.387,220.1,172.387z"/>
					<g>
						<path style="fill:#4963CE;" d="M84.372,182.5L84.372,182.5c-1.036,0-1.875-0.839-1.875-1.875v-8.238h3.75v8.238
							C86.247,181.661,85.408,182.5,84.372,182.5z"/>
						<path style="fill:#4963CE;" d="M205.53,182.5L205.53,182.5c-1.035,0-1.875-0.839-1.875-1.875v-8.238h3.75v8.238
							C207.405,181.661,206.566,182.5,205.53,182.5z"/>
					</g>
				</g>
				<g>
					<g>
						<g>
							<path style="fill:#DEE3FC;" d="M97.768,152.911c0,0-9.885-5.786-12.028-17.145c0,0,9.311,1.929,13.978,17.145"/>
							<path style="fill:#DEE3FC;" d="M101.669,152.911c0,0,9.885-5.786,12.028-17.145c0,0-9.311,1.929-13.978,17.145"/>
							<path style="fill:#DEE3FC;" d="M98.684,151.982c0,0-7.128-8.965-5.025-20.332c0,0,7.986,5.161,6.844,21.036"/>
							<path style="fill:#DEE3FC;" d="M100.986,152.018c0,0,6.914-9.132,4.541-20.445c0,0-7.862,5.349-6.343,21.192"/>
						</g>
					</g>
					<g>
						<rect x="88.716" y="150.607" style="fill:#FFFFFF;" width="21.539" height="18.012"/>
						<rect x="106.023" y="150.607" style="opacity:0.6;fill:#DEE3FC;" width="4.232" height="18.012"/>
					</g>
				</g>
				<g>
					<g>
						<polyline style="fill:#335099;" points="122.661,160.565 119.739,168.62 121.354,168.62 127.179,163.953 						"/>
						<polyline style="fill:#335099;" points="139.98,160.565 142.902,168.62 141.288,168.62 135.462,163.953 						"/>
					</g>
					
						<ellipse transform="matrix(0.1961 -0.9806 0.9806 0.1961 -44.9985 252.2046)" style="fill:#3D59B2;" cx="131.321" cy="153.547" rx="11.973" ry="11.973"/>
					<path style="fill:#FFFFFF;" d="M141.11,153.271c0,5.406-4.383,9.789-9.789,9.789c-5.406,0-9.789-4.383-9.789-9.789
						c0-5.406,4.383-9.789,9.789-9.789C136.727,143.482,141.11,147.865,141.11,153.271z"/>
					<g>
						<polygon style="fill:#DEE3FC;" points="132.019,153.271 130.745,153.271 131.382,146.132 						"/>
						<polygon style="fill:#DEE3FC;" points="130.91,153.953 131.854,152.589 139.17,158.39 						"/>
						<path style="fill:#DEE3FC;" d="M132.802,153.271c0,0.784-0.636,1.42-1.42,1.42s-1.42-0.636-1.42-1.42
							c0-0.784,0.636-1.42,1.42-1.42S132.802,152.486,132.802,153.271z"/>
					</g>
				</g>
				<g>
					<g>
						<rect x="157.568" y="161.699" style="fill:#3D59B2;" width="55.323" height="6.92"/>
						<rect x="159.334" y="163.438" style="fill:#DBDBDB;" width="7.796" height="3.444"/>
						<rect x="208.583" y="163.438" style="fill:#DBDBDB;" width="1.775" height="3.444"/>
						<rect x="174.632" y="163.438" style="fill:#DBDBDB;" width="27.904" height="3.444"/>
					</g>
					<g>
						<rect x="165.251" y="149.779" style="fill:#467CDB;" width="39.956" height="4.998"/>
						<rect x="166.527" y="151.035" style="fill:#DBDBDB;" width="4.183" height="2.487"/>
						<rect x="202.097" y="149.779" style="fill:#DBDBDB;" width="1.282" height="4.998"/>
						<rect x="199.848" y="149.779" style="fill:#DBDBDB;" width="1.282" height="4.998"/>
						<rect x="174.028" y="151.035" style="fill:#DBDBDB;" width="23.701" height="2.487"/>
					</g>
					<g>
						<g>
							<polygon style="fill:#687DBE;" points="208.078,154.778 208.078,161.698 152.764,161.698 152.764,160.767 188.983,160.767 
								188.983,155.794 152.764,155.794 152.764,154.778 							"/>
						</g>
						<rect x="154.001" y="155.794" style="fill:#DBDBDB;" width="34.982" height="4.973"/>
					</g>
				</g>
			</g>
		</g>
		<g>
			<g>
				<path style="fill:none;stroke:#FFFFFF;stroke-width:0.8956;stroke-miterlimit:10;" d="M335.571,182.535h53.064
					c3.401,0,6.158,2.757,6.158,6.158v12.536c0,3.137-2.347,5.727-5.381,6.109c-0.445,0.056-0.777,0.434-0.777,0.882v6.862
					c0,0.397-0.509,0.56-0.74,0.237l-5.405-7.558c-0.168-0.235-0.439-0.375-0.728-0.375h-46.191c-3.401,0-6.158-2.757-6.158-6.158
					v-12.536C329.413,185.292,332.17,182.535,335.571,182.535z"/>
				<g>
					<path style="fill:none;stroke:#FFFFFF;stroke-width:0.8956;stroke-miterlimit:10;" d="M380.494,194.942
						c0,1.12,0.908,2.027,2.027,2.027c1.12,0,2.027-0.908,2.027-2.027c0-1.12-0.908-2.027-2.027-2.027
						C381.402,192.914,380.494,193.822,380.494,194.942z"/>
					<path style="fill:none;stroke:#FFFFFF;stroke-width:0.8956;stroke-miterlimit:10;" d="M370.285,194.942
						c0,1.12,0.908,2.027,2.027,2.027c1.12,0,2.027-0.908,2.027-2.027c0-1.12-0.908-2.027-2.027-2.027
						C371.193,192.914,370.285,193.822,370.285,194.942z"/>
					<path style="fill:none;stroke:#FFFFFF;stroke-width:0.8956;stroke-miterlimit:10;" d="M360.076,194.942
						c0,1.12,0.908,2.027,2.027,2.027c1.12,0,2.027-0.908,2.027-2.027c0-1.12-0.908-2.027-2.027-2.027
						C360.983,192.914,360.076,193.822,360.076,194.942z"/>
					<path style="fill:none;stroke:#FFFFFF;stroke-width:0.8956;stroke-miterlimit:10;" d="M349.866,194.942
						c0,1.12,0.908,2.027,2.027,2.027c1.12,0,2.027-0.908,2.027-2.027c0-1.12-0.908-2.027-2.027-2.027
						C350.774,192.914,349.866,193.822,349.866,194.942z"/>
					<path style="fill:none;stroke:#FFFFFF;stroke-width:0.8956;stroke-miterlimit:10;" d="M339.657,194.942
						c0,1.12,0.908,2.027,2.027,2.027c1.12,0,2.027-0.908,2.027-2.027c0-1.12-0.908-2.027-2.027-2.027
						C340.564,192.914,339.657,193.822,339.657,194.942z"/>
				</g>
			</g>
			<g>
				<polygon style="fill:#C4C9FC;" points="379.276,440.836 382.684,440.836 402.586,363.597 393.662,363.597 				"/>
				<polygon style="fill:#C4C9FC;" points="457.667,440.836 454.259,440.836 434.357,363.597 443.281,363.597 				"/>
				<polygon style="fill:#A4AFFF;" points="409.448,440.836 412.856,440.836 432.758,363.597 423.834,363.597 				"/>
				<polygon style="fill:#A4AFFF;" points="487.839,440.836 484.432,440.836 464.529,363.597 473.454,363.597 				"/>
				<path style="fill:#C4C9FC;" d="M465.787,358.529c3.483,0.636,15.688,4.728,12.043,7.318c-6.333,4.5-70.847,4.888-84.75-0.214
					c-11-4.036-8-13.5,4-15.167C409.08,348.799,447.594,355.207,465.787,358.529z"/>
				<path style="fill:#C4C9FC;" d="M386.409,359.767l-16.619-80.242c-0.62-2.994,1.666-5.802,4.723-5.802h36.679v86.044H386.409z"/>
			</g>
			<g>
				<path style="fill:#FFFFFF;" d="M511.475,440.467h-26.939c0,0-1.505-4.797,1.757-10.74c0,0,2.168,1.739,8.663,0.563
					c0,0,2.711,2.301,4.582,3.201C501.42,434.402,512.201,436.519,511.475,440.467z"/>
				<path style="fill:#FFFFFF;" d="M418.373,418.25c0,0-1.262,2.079-2.747,2.97c-1.485,0.891-3.975,3.211-5.015,7.075
					c0,0,0.682,1.721,4.02,4.171c1.255,0.921,5.865,7.141,7.737,7.897h12.444c0,0,0.966-4.437-5.375-5.926
					c-3.498-2.7-4.588-8.254-4.588-8.254l1.839-4.945L418.373,418.25z"/>
				<path style="fill:#24315D;" d="M421.401,333.659L421.401,333.659c0.375-3.691,1.093-5.562,1.093-5.562
					s47.25,8.908,59.816,13.129c6.244,2.097,11.009,5.95,11.599,11.585l0.028-0.006c0.062,0.591,1.583,56.867,1.799,77.352
					c-5.147,1.274-8.876,1.15-10.641,0.951c-1.433-8.34-5.749-26.533-7.599-35.177c-2.192-10.24-4.969-22.452-5.502-30.884
					c-19.102-1.663-44.322-4.47-47.349-5.999C419.654,356.527,418.152,347.616,421.401,333.659z"/>
				<path style="fill:#2D3A70;" d="M451.16,341.226c-6.999-1.581-14.937-3.344-21.508-4.808l-17.726-4.039l-19.5-6.372
					c0,0-0.17,1.364-0.545,5.055c0,0-6.938,22.813,4.063,28.705c8.539,4.574,25.969,5.539,42.326,6.168l24.805-15.195
					C461.589,345.971,455.476,342.206,451.16,341.226z"/>
				<path style="fill:#2D3A70;" d="M424.624,391.986c-2.21,7.262-7.058,22.249-9.531,29.056c0.954,1.125,4.092,3.649,10.27,5.031
					c9.019-17.76,25.814-46.568,31.63-57.542l0.001,0l4.742-8.507c1.803-3.146,2.137-6.344,1.337-9.284l-27.188,10.68
					C430.698,369.803,427.57,382.318,424.624,391.986z"/>
				<path style="fill:#E5918F;" d="M451.826,301.55l-12.15,4.55c-0.14-0.2-0.27-0.41-0.39-0.61v-0.01
					c-2.02-3.24-2.97-6.15-3.94-10.02c0-0.01,0-0.01,0-0.02c-0.65-1.99-1.21-3.98-1.7-5.84c-1.37-5.28-2.09-9.48-2.09-9.48
					l13.86-6.74l2.5,10.98l0.84,3.72v0.01L451.826,301.55z"/>
				<path style="fill:#CC6362;" d="M433.646,289.597c0.49,1.86,1.05,3.85,1.7,5.84c0,0.01,0,0.01,0,0.02
					c0.97,3.87,1.92,6.78,3.94,10.02c-0.79-3.64-0.92-11.76-0.92-11.76c3.46-0.79,10.39-5.63,10.39-5.63v-0.01l-0.84-3.72
					c-0.86-0.04-2.39-0.09-3,0.03c-0.88,0.17-7.63,3.04-9.38,3.7C434.876,288.337,434.256,288.877,433.646,289.597z"/>
				<path style="fill:#FFFFFF;" d="M390.966,303.097c0.42,6.91,1.425,11.747,0.123,22.209c-0.325,2.612-0.483,4.231-0.483,5.271
					c0,0.73,0.92,1.48,1.3,1.69c3.97,2.29,19.42,2.63,27.19,2.63c6.9,0,17.27-1.1,18.57-2.84c1.2-1.6,0.1-3.91-0.47-7.11
					c-2.54-14.43-1.64-21.95-1.48-32.37c0-0.26,0.01-0.52,0.01-0.79v-0.2h0.01c0.82-0.12,1.6-0.27,2.28-0.41
					c1.12-0.25,1.98-0.5,2.35-0.62c8.38-2.63,9.63-5.32,9.63-5.32c-2.37-10.31-5.23-17.23-7.78-21.8c-0.06-0.11-0.12-0.22-0.19-0.34
					c-0.06-0.11-0.13-0.23-0.2-0.34c-1.37-2.27-3.34-4.18-5.53-5.75c-0.22-0.16-0.43-0.31-0.66-0.47c-6.3-4.26-14.05-5.96-14.71-6.1
					c-0.03-0.01-0.04-0.01-0.04-0.01c-1.99-0.13-4.16-0.17-6.52-0.09c-4,0.11-10.48,1.09-16.25,2.66c0,0-0.04,0.01-0.07,0.02
					c-0.56,0.18-4.31,1.58-8.2,5.75c-1.31,1.37-2.64,3.07-3.84,5.15c0.27,6.46,1.67,18.09,2.46,28.14
					C388.596,293.577,390.876,301.657,390.966,303.097z"/>
				<path style="fill:#E3E6ED;" d="M435.736,291.587c0.82-0.12,1.6-0.27,2.28-0.41l-1.94-17.8
					C436.006,276.287,435.766,289.777,435.736,291.587z"/>
				<g>
					<path style="fill:#192C51;" d="M431.367,218.222c0,0,1.837,12.083-3.556,13.335c-3.47,0.805-3.051-3.438-3.051-3.438
						l-0.091-5.023L431.367,218.222z"/>
					<path style="fill:#E5918F;" d="M417.686,259.61c-11.22,1.33-13.81-7.42-11.95-8.29c1.22-0.19,1.6-1.16,1.77-1.8
						c1.62-6.3-0.4-16.3-0.4-16.3s7.99,6.32,11.74,9.28c1.16,0.93,1.91,1.53,1.91,1.53c-0.02,0.2-0.53,2.52-0.18,4.26
						c0.04,0.23,0.1,0.45,0.18,0.65c0.13,0.34,0.13,1.49,0.13,1.49l0.01-0.01C421.666,251.39,424.896,258.74,417.686,259.61z"/>
					<path style="fill:#CC6362;" d="M420.576,248.29c-6.07-2.04-7.33-7.43-7.33-7.43l4.25,1l1.35,0.64
						c1.16,0.93,1.91,1.53,1.91,1.53C420.736,244.23,420.226,246.55,420.576,248.29z"/>
					<path style="fill:#E5918F;" d="M429.821,222.995c0.071,3.65,0.054,13.456-1.938,19.089c-0.93,2.629-3.549,4.265-6.324,3.983
						c-2.711-0.275-6.572-1.4-10.057-5.106c-1.785-1.898-3.791-2.139-4.72-4.574c-1.508-3.955-3.841-11.301-2.503-16.047
						c1.826-6.477,21.669-13.807,25.144-0.607C429.703,220.796,429.8,221.895,429.821,222.995z"/>
					<path style="fill:#192C51;" d="M403.774,216.769c-0.736-4.839,0.268-5.785,2.139-6.839c3.865-2.177,20.602-1.335,28.531,2.904
						c1.82,0.973,0.959,4.68,0.186,6.041c-4.91,8.646-14.471,4.941-18.244,4.136c-0.566,2.66-0.042,6.206-1.982,8.291
						c-1.105,1.188-3.233,1.465-5.442,1.355c-0.208,0.538-1.264,1.091-1.281,1.821c-0.06,2.51,0.543,5.827,0.452,8.827l-1.082-0.382
						C406.831,242.18,393.324,218.311,403.774,216.769z"/>
					<g>
						<path style="fill:none;stroke:#FFFFFF;stroke-width:0.2455;stroke-miterlimit:10;" d="M424.36,229.373
							c0.007,1.807,1.153,3.268,2.56,3.263c1.407-0.005,2.542-1.475,2.535-3.282c-0.007-1.807-1.153-3.268-2.56-3.263
							C425.488,226.096,424.353,227.566,424.36,229.373z"/>
						<path style="fill:none;stroke:#FFFFFF;stroke-width:0.2455;stroke-miterlimit:10;" d="M417.238,229.285
							c0.007,1.807,1.153,3.268,2.56,3.263c1.407-0.005,2.542-1.475,2.535-3.282c-0.007-1.807-1.153-3.268-2.56-3.263
							C418.367,226.008,417.232,227.477,417.238,229.285z"/>
						<path style="fill:none;stroke:#FFFFFF;stroke-width:0.2455;stroke-miterlimit:10;" d="M424.36,229.373
							c0,0-0.462-0.521-2.027-0.107"/>
						
							<line style="fill:none;stroke:#FFFFFF;stroke-width:0.2455;stroke-miterlimit:10;" x1="417.253" y1="229.716" x2="411.193" y2="229.8"/>
					</g>
					<g>
						<path style="fill:#E5918F;" d="M411.654,236.985c-3.983,2.08-6.475-8.028-2.569-8.942c2.962-0.693,3.57,3.481,3.57,3.481
							S413.928,235.797,411.654,236.985z"/>
					</g>
					<g style="opacity:0.5;">
						<g>
							<path style="fill:#CC6362;" d="M409.289,229.572c0,0,0.363,0.137,0.774,0.547c0.21,0.2,0.411,0.481,0.576,0.813
								c0.165,0.334,0.26,0.73,0.286,1.132c0.009,0.2-0.02,0.4-0.033,0.596c-0.04,0.191-0.09,0.378-0.144,0.553
								c-0.132,0.344-0.292,0.642-0.47,0.869c-0.149,0.244-0.352,0.388-0.457,0.511c-0.117,0.115-0.19,0.173-0.19,0.173
								s0.03-0.093,0.092-0.242c0.059-0.151,0.165-0.353,0.242-0.61c0.044-0.124,0.092-0.259,0.143-0.401
								c0.035-0.146,0.069-0.298,0.116-0.45c0.056-0.313,0.105-0.642,0.083-0.971c-0.01-0.329-0.077-0.653-0.171-0.953
								c-0.103-0.296-0.223-0.575-0.354-0.804C409.532,229.863,409.289,229.572,409.289,229.572z"/>
						</g>
						<g>
							<path style="fill:#CC6362;" d="M408.977,231.597c0,0,0.131-0.048,0.346-0.042c0.211,0.005,0.51,0.084,0.753,0.266
								c0.246,0.176,0.442,0.416,0.56,0.606c0.12,0.19,0.187,0.325,0.187,0.325l-0.585,0.202c0,0-0.022-0.122-0.073-0.302
								c-0.05-0.18-0.147-0.408-0.299-0.604c-0.148-0.199-0.372-0.337-0.56-0.398C409.117,231.589,408.977,231.597,408.977,231.597z
								"/>
						</g>
					</g>
				</g>
				<path style="fill:#E3E6ED;" d="M401.117,273.377c0,0-2.204,13.219-3.787,19.219c0,0-1.027,0.373-4.876,0.334L401.117,273.377z"
					/>
				<path style="fill:#E5918F;" d="M395.806,283.19c0,0-0.11,0.74-0.32,1.98c-0.37,2.17-1.02,5.89-1.85,9.81
					c-0.56,2.64-1.2,5.37-1.88,7.79h-15.43c0-0.04,0.01-0.08,0.01-0.12c0-0.06,0-0.11,0.02-0.18c0.22-2.35,0.52-5.09,0.86-7.87
					c0.02-0.16,0.03-0.25,0.03-0.25c0.26-2.16,0.53-4.36,0.8-6.43c0.13-1.08,0.26-2.12,0.39-3.11c0.62-4.77,1.11-8.32,1.11-8.32
					L395.806,283.19z"/>
				<path style="fill:#CC6362;" d="M378.046,287.917c0.31,0.25,6.63,5.39,15.59,7.06c0.83-3.92,1.48-7.64,1.85-9.81
					c-0.34-0.51-0.62-0.84-0.74-0.9c-0.83-0.42-9.92-2.75-9.92-2.75l-6.39,3.29C378.306,285.797,378.176,286.837,378.046,287.917z"
					/>
				<path style="fill:#FFFFFF;" d="M381.621,268.409c2.54-5.715,4.539-8.417,5.625-9.563c3.433-3.622,7.722-4.722,7.722-4.722
					c1.747-0.706,3.075-1.109,3.075-1.109s5.203,3.748,3.373,18.516c-0.796,6.42-5.606,19.631-5.606,19.631
					c-3.33,0.553-8.274-0.665-11.971-2.003c-4.75-1.719-7.513-4.159-7.513-4.159S378.792,274.776,381.621,268.409z"/>
				<path style="fill:#46509B;" d="M418.83,259.746c0,0,7.104,40.226,7.104,48.913c0,3.714-5.316,13.072-6.254,13.072
					c-1.063,0-6.611-9.784-6.496-13.509c0.417-13.583,2.271-48.333,2.271-48.333L418.83,259.746z"/>
				<path style="fill:#E5918F;" d="M439.676,306.1c0,0,3.456,6.298,8.706,7.048s39.909-4.233,39.909-4.233v-4.79l-36.564-3.009
					L439.676,306.1z"/>
				<rect x="419.737" y="306.254" style="fill:#3945BA;" width="60.644" height="2.621"/>
				<path style="fill:#E5918F;" d="M432.44,305.477c-0.958-0.315-5.833-1.56-6.375-1.393c-0.542,0.167-2.5,1.125-3.625,1.208
					c-1.125,0.083-2.882-0.208-2.882-0.208l-30.072-4.333l-13.16,2.02c0,0-1.445,9.605,3.805,10.355s39.428-4.21,39.428-4.21h16.965
					C436.523,308.915,433.398,305.792,432.44,305.477z"/>
				<path style="fill:#46509B;" d="M416.856,254.472l2.69,5.417c0,0-0.781,1.753-2.265,1.862c-0.745,0.055-2.094-0.875-2.754-1.497
					L416.856,254.472z"/>
				<path style="fill:#E3E5ED;" d="M407.772,248.278c0,0,2.855,4.863,9.084,6.194l-2.328,5.781c0,0-8.281,0-9.959-8.729
					L407.772,248.278z"/>
				<path style="fill:#E3E5ED;" d="M416.856,254.472l2.69,5.417c0,0,4.667-1.621,2.496-9.186l-1.287-1.765
					C420.756,248.938,420.606,253.302,416.856,254.472z"/>
			</g>
			<g>
				<polygon style="fill:#3945BA;" points="349.13,315.062 321.163,440.363 316.552,440.363 340.44,315.062 				"/>
				<polygon style="fill:#3945BA;" points="556.419,315.062 584.386,440.363 588.997,440.363 565.109,315.062 				"/>
				<rect x="338.684" y="325.306" style="fill:#3945BA;" width="226.425" height="4.527"/>
				<path style="fill:#F5F7FF;" d="M595.407,315.062H317.411c-1.698,0-3.074-1.376-3.074-3.074l0,0c0-1.697,1.376-3.073,3.074-3.073
					h277.996c1.698,0,3.074,1.376,3.074,3.073l0,0C598.48,313.686,597.104,315.062,595.407,315.062z"/>
			</g>
			<g>
				<g>
					
						<rect x="524.455" y="273.723" transform="matrix(-1 -1.224647e-16 1.224647e-16 -1 1063.8492 575.2437)" style="fill:#7A84CE;" width="14.939" height="27.797"/>
					
						<rect x="542.511" y="272.336" transform="matrix(-1 -1.224647e-16 1.224647e-16 -1 1093.4003 581.2513)" style="fill:#3945BA;" width="8.377" height="36.579"/>
					<polygon style="fill:#2F3C89;" points="542.511,272.336 537.766,272.336 532.879,290.025 522.948,290.025 522.948,308.915 
						542.511,308.915 					"/>
					<path style="fill:#7A84CE;" d="M544.094,279.15c0,1.44,1.167,2.606,2.606,2.606c1.44,0,2.606-1.167,2.606-2.606
						c0-1.439-1.167-2.606-2.606-2.606C545.261,276.544,544.094,277.711,544.094,279.15z"/>
					
						<rect x="544.466" y="283.254" transform="matrix(-1 -1.224647e-16 1.224647e-16 -1 1093.4003 582.4004)" style="fill:#7A84CE;" width="4.468" height="15.893"/>
					
						<rect x="544.466" y="299.89" transform="matrix(-1 -1.224647e-16 1.224647e-16 -1 1093.4003 601.4101)" style="fill:#7A84CE;" width="4.468" height="1.631"/>
					
						<rect x="544.466" y="302.193" transform="matrix(-1 -1.224647e-16 1.224647e-16 -1 1093.4003 606.0176)" style="fill:#7A84CE;" width="4.468" height="1.631"/>
				</g>
				<g>
					
						<rect x="512.44" y="273.723" transform="matrix(-1 -1.224647e-16 1.224647e-16 -1 1039.8182 575.2437)" style="fill:#FFFFFF;" width="14.939" height="27.797"/>
					
						<rect x="530.496" y="272.336" transform="matrix(-1 -1.224647e-16 1.224647e-16 -1 1069.3694 581.2513)" style="fill:#525BAD;" width="8.377" height="36.579"/>
					<polygon style="fill:#454F94;" points="530.496,272.336 525.75,272.336 520.864,290.025 510.933,290.025 510.933,308.915 
						530.496,308.915 					"/>
					<path style="fill:#7A84CE;" d="M532.078,279.15c0,1.44,1.167,2.606,2.606,2.606c1.44,0,2.607-1.167,2.607-2.606
						c0-1.439-1.167-2.606-2.607-2.606C533.245,276.544,532.078,277.711,532.078,279.15z"/>
					
						<rect x="532.451" y="283.254" transform="matrix(-1 -1.224647e-16 1.224647e-16 -1 1069.3694 582.4004)" style="fill:#7A84CE;" width="4.468" height="15.893"/>
					
						<rect x="532.451" y="299.89" transform="matrix(-1 -1.224647e-16 1.224647e-16 -1 1069.3694 601.4101)" style="fill:#7A84CE;" width="4.468" height="1.631"/>
					
						<rect x="532.451" y="302.193" transform="matrix(-1 -1.224647e-16 1.224647e-16 -1 1069.3694 606.0176)" style="fill:#7A84CE;" width="4.468" height="1.631"/>
				</g>
			</g>
			<g>
				<path style="fill:#DEE3FC;" d="M522.86,232.577l-2.436-1.628c-0.39-0.275-0.861-0.449-1.383-0.449h-77.638
					c-2.075,0-3.871,1.445-4.315,3.472l-13.366,61.034c-0.223,1.019,0.237,1.989,1.029,2.519l-0.014,0.006l2.445,1.65l0.434-1.24
					h76.105c2.075,0,3.871-1.445,4.315-3.472l13.366-61.034c0.035-0.159,0.044-0.316,0.048-0.471L522.86,232.577z"/>
				<path style="fill:#3945BA;" d="M428.522,299.586h77.638c2.075,0,3.871-1.445,4.315-3.472l13.366-61.034
					c0.33-1.508-0.818-2.935-2.362-2.935h-77.638c-2.076,0-3.871,1.445-4.315,3.472l-13.366,61.034
					C425.83,298.159,426.978,299.586,428.522,299.586z"/>
				<path style="fill:#F5F7FF;" d="M481.679,273.836c-0.173-1.003-1.042-1.736-2.06-1.736H469.46l-1.278-1.536l-0.562,2.577
					c-0.103,0.264-0.146,0.555-0.094,0.858l6.002,34.878h14.182L481.679,273.836z"/>
				<g>
					<path style="fill:#DEE3FC;" d="M474.114,306.254h14.182l-6.03-35.041c-0.173-1.003-1.042-1.736-2.06-1.736h-10.493
						c-1.007,0-1.771,0.907-1.6,1.899L474.114,306.254z"/>
				</g>
				<g>
					<path style="fill:#DEE3FC;" d="M448.033,308.915h21.192v-3.53h-18.698c-1.377,0-2.493,1.116-2.493,2.493V308.915z"/>
					<path style="fill:#3945BA;" d="M465.062,308.915h40.329v-0.783c0-1.517-1.23-2.747-2.747-2.747h-34.835
						c-1.517,0-2.747,1.23-2.747,2.747V308.915z"/>
				</g>
			</g>
			<g>
				<path style="opacity:0.4;fill:#FFFFFF;" d="M357.598,272.559c0.747-0.897,7.754-1.666,7.092,4.336
					c-0.315,2.856-4.384,3.607-5.83,4.124s0.755,1.187,0.91,2.478c0.155,1.291-0.906,2.078-4.057,1.768
					c-3.152-0.31-2.687,3.408-2.687,3.408h-0.826c0,0-1.11-1.826-0.387-3.22c0.723-1.394,2.581-1.865,1.807-3.001
					c-0.774-1.136-4.001-1.473-3.124-3.988c0.648-1.857,7.415-1.007,7.435-2.388C357.945,275,356.53,273.84,357.598,272.559z"/>
				<path style="fill:#DEE3FC;" d="M362.099,287.604l-3.047,20.904c-0.032,0.235-0.235,0.407-0.464,0.407h-9.644
					c-0.235,0-0.432-0.172-0.464-0.407l-0.267-1.845l-2.78-19.059c-0.044-0.28,0.178-0.534,0.464-0.534h15.738
					C361.921,287.07,362.137,287.324,362.099,287.604z"/>
				<path style="fill:none;stroke:#C1CCF4;stroke-width:1.0253;stroke-miterlimit:10;" d="M360.666,291.153h1.21
					c1.424,0,2.579,1.155,2.579,2.579v5.852c0,2.908-2.357,5.265-5.265,5.265l0,0"/>
				<path style="fill:#C1CCF4;" d="M362.099,287.604l-3.047,20.904c-0.032,0.235-0.235,0.407-0.464,0.407h-9.644
					c-0.235,0-0.432-0.172-0.464-0.407l-0.267-1.845c8.766-2.036,11.902-19.593,11.902-19.593h1.52
					C361.921,287.07,362.137,287.324,362.099,287.604z"/>
			</g>
			<g>
				<g>
					<polyline style="fill:#ADBAE0;" points="573.854,281.421 568.884,300.906 569.829,301.147 575.978,281.962 					"/>
					<path style="fill:#BEEBFD;" d="M575.839,276.45c-0.082,0.323-1.511,5.925-1.511,5.925c-0.076,0.298,0.104,0.601,0.402,0.677
						l0,0c0.298,0.076,0.601-0.104,0.677-0.402l0.171-0.669c0,0,0.793-1.692,2.987-0.995c0,0-2.616-0.327-2.705-0.32
						C575.771,280.672,575.922,276.127,575.839,276.45z"/>
					<g>
						<polyline style="fill:#C0CAED;" points="573.122,281.244 573.107,301.353 572.132,301.352 570.93,281.242 						"/>
						<g>
							<path style="fill:#BEEBFD;" d="M572.43,275.936c0,0.334-0.004,6.114-0.004,6.114c0,0.308-0.25,0.557-0.557,0.556l0,0
								c-0.307,0-0.557-0.25-0.556-0.557l0-0.691c0,0-0.349-1.836-2.647-1.704c0,0,2.616,0.332,2.7,0.36
								C571.45,280.044,572.43,275.603,572.43,275.936z"/>
							<g>
								<path style="fill:#525BAD;" d="M573.476,282.158c-0.196,0.767,0.27,1.551,1.037,1.747c0.768,0.196,1.551-0.27,1.747-1.037
									c0,0,0.091-0.466,0.272-0.724c0.279-0.396,0.849-0.544,1.872-0.294c0.016,0.004,0.031,0.011,0.048,0.015
									c2.537,0.647,5.238-1.321,6.02-4.387c0.782-3.066-0.647-6.087-3.184-6.734c-2.538-0.647-5.238,1.321-6.02,4.387
									c-0.028,0.11-0.047,0.219-0.069,0.329l-0.011-0.001L573.476,282.158z M578.887,280.16c-1.597-0.407-2.456-2.468-1.914-4.594
									c0.542-2.126,2.283-3.524,3.88-3.117c1.597,0.407,2.456,2.469,1.914,4.594C582.225,279.169,580.484,280.567,578.887,280.16z
									"/>
								<path style="fill:#525BAD;" d="M563.812,274.793c-0.002,3.164,2.126,5.74,4.745,5.742c0.024,0,0.047-0.004,0.07-0.004
									c1.042,0.014,1.55,0.3,1.721,0.75c0.112,0.294,0.084,0.768,0.084,0.768c-0.001,0.792,0.643,1.437,1.435,1.438
									c0.792,0.001,1.437-0.643,1.438-1.435l0.002-6.914l-0.011-0.001c0.005-0.112,0.014-0.222,0.014-0.336
									c0.002-3.164-2.127-5.74-4.745-5.742C565.946,269.056,563.814,271.629,563.812,274.793z M565.571,274.794
									c0.002-2.194,1.344-3.978,2.993-3.977c1.648,0.001,2.988,1.787,2.987,3.981c-0.002,2.194-1.344,3.978-2.993,3.977
									C566.91,278.774,565.57,276.988,565.571,274.794z"/>
							</g>
						</g>
					</g>
				</g>
				<g>
					<g>
						<path style="fill:#FFFFFF;" d="M569.188,273.79c0.055-0.003,0.1-0.047,0.104-0.103l0.038-0.558
							c0.004-0.061-0.042-0.114-0.103-0.118c-0.06-0.006-0.113,0.042-0.118,0.103l-0.038,0.558
							c-0.004,0.061,0.042,0.114,0.103,0.118C569.179,273.791,569.183,273.791,569.188,273.79z"/>
					</g>
					<g>
						<g>
							<polygon style="fill:#454F94;" points="566.754,299.136 568.227,299.236 569.801,275.472 569.064,275.422 568.327,275.372 
															"/>
						</g>
					</g>
					<polygon style="fill:#626FAF;" points="569.047,273.449 569.345,273.469 569.801,275.472 568.327,275.372 					"/>
				</g>
				<g>
					<g>
						<path style="fill:#2D3A70;" d="M565.175,293.46l2.529-0.457l-3.949-21.867c-0.021-0.114-0.13-0.19-0.244-0.169l-2.116,0.382
							c-0.114,0.021-0.19,0.13-0.169,0.244L565.175,293.46z"/>
					</g>
					<g>
						<path style="fill:#FFFFFF;" d="M561.625,273.799l2.529-0.457l-0.398-2.206c-0.021-0.114-0.13-0.19-0.244-0.169l-2.116,0.382
							c-0.114,0.021-0.19,0.13-0.169,0.244L561.625,273.799z"/>
					</g>
					<g style="opacity:0.5;">
						<g>
							
								<rect x="561.671" y="273.567" transform="matrix(0.9841 -0.1777 0.1777 0.9841 -39.7264 104.4146)" style="fill:#599DD0;" width="2.57" height="0.77"/>
						</g>
					</g>
				</g>
				<g>
					
						<rect x="558.64" y="274.469" transform="matrix(-0.9303 0.3667 -0.3667 -0.9303 1187.6941 347.319)" style="fill:#454F94;" width="4.436" height="24.002"/>
					<g>
						
							<line style="fill:none;stroke:#CAF1FD;stroke-width:0.1898;stroke-miterlimit:10;" x1="556.04" y1="276.309" x2="554.68" y2="276.845"/>
						
							<line style="fill:none;stroke:#CAF1FD;stroke-width:0.1898;stroke-miterlimit:10;" x1="556.497" y1="277.468" x2="555.137" y2="278.004"/>
						
							<line style="fill:none;stroke:#CAF1FD;stroke-width:0.1898;stroke-miterlimit:10;" x1="556.954" y1="278.628" x2="555.594" y2="279.164"/>
						
							<line style="fill:none;stroke:#CAF1FD;stroke-width:0.1898;stroke-miterlimit:10;" x1="558.077" y1="279.526" x2="556.051" y2="280.324"/>
						
							<line style="fill:none;stroke:#CAF1FD;stroke-width:0.1898;stroke-miterlimit:10;" x1="557.869" y1="280.948" x2="556.508" y2="281.484"/>
						
							<line style="fill:none;stroke:#CAF1FD;stroke-width:0.1898;stroke-miterlimit:10;" x1="558.326" y1="282.108" x2="556.966" y2="282.644"/>
						
							<line style="fill:none;stroke:#CAF1FD;stroke-width:0.1898;stroke-miterlimit:10;" x1="558.783" y1="283.268" x2="557.423" y2="283.804"/>
						
							<line style="fill:none;stroke:#CAF1FD;stroke-width:0.1898;stroke-miterlimit:10;" x1="559.906" y1="284.165" x2="557.88" y2="284.964"/>
						
							<line style="fill:none;stroke:#CAF1FD;stroke-width:0.1898;stroke-miterlimit:10;" x1="559.697" y1="285.587" x2="558.337" y2="286.124"/>
						
							<line style="fill:none;stroke:#CAF1FD;stroke-width:0.1898;stroke-miterlimit:10;" x1="560.154" y1="286.747" x2="558.794" y2="287.283"/>
						
							<line style="fill:none;stroke:#CAF1FD;stroke-width:0.1898;stroke-miterlimit:10;" x1="560.612" y1="287.907" x2="559.251" y2="288.443"/>
						
							<line style="fill:none;stroke:#CAF1FD;stroke-width:0.1898;stroke-miterlimit:10;" x1="561.734" y1="288.805" x2="559.708" y2="289.603"/>
						
							<line style="fill:none;stroke:#CAF1FD;stroke-width:0.1898;stroke-miterlimit:10;" x1="561.526" y1="290.227" x2="560.166" y2="290.763"/>
						
							<line style="fill:none;stroke:#CAF1FD;stroke-width:0.1898;stroke-miterlimit:10;" x1="561.983" y1="291.387" x2="560.623" y2="291.923"/>
						
							<line style="fill:none;stroke:#CAF1FD;stroke-width:0.1898;stroke-miterlimit:10;" x1="562.44" y1="292.547" x2="561.08" y2="293.083"/>
						
							<line style="fill:none;stroke:#CAF1FD;stroke-width:0.1898;stroke-miterlimit:10;" x1="563.563" y1="293.444" x2="561.537" y2="294.242"/>
						
							<line style="fill:none;stroke:#CAF1FD;stroke-width:0.1898;stroke-miterlimit:10;" x1="563.354" y1="294.866" x2="561.994" y2="295.402"/>
						
							<line style="fill:none;stroke:#CAF1FD;stroke-width:0.1898;stroke-miterlimit:10;" x1="563.812" y1="296.026" x2="562.451" y2="296.562"/>
						
							<line style="fill:none;stroke:#CAF1FD;stroke-width:0.1898;stroke-miterlimit:10;" x1="564.269" y1="297.186" x2="562.909" y2="297.722"/>
					</g>
				</g>
				<path style="fill:#C1CCF4;" d="M557.857,287.472l2.198,19.847c0.103,0.91,0.867,1.597,1.785,1.597h10.962
					c0.918,0,1.682-0.687,1.785-1.597l2.198-19.847c0.034-0.275-0.18-0.515-0.455-0.515h-18.018
					C558.038,286.957,557.823,287.197,557.857,287.472z"/>
				<path style="fill:#DEE3FC;" d="M557.857,287.472l2.198,19.847c0.103,0.91,0.867,1.597,1.785,1.597h6.773
					c0.919,0,1.683-0.687,1.786-1.597l2.198-19.847c0.034-0.275-0.18-0.515-0.455-0.515h-13.829
					C558.038,286.957,557.823,287.197,557.857,287.472z"/>
			</g>
		</g>
		<g>
			<line style="fill:none;stroke:#4963CE;stroke-miterlimit:10;" x1="182.245" y1="0" x2="182.245" y2="97.367"/>
			<path style="fill:#4963CE;" d="M184.412,97.367h-4.333v-2.366c0-1.197,0.97-2.167,2.167-2.167l0,0
				c1.197,0,2.167,0.97,2.167,2.167V97.367z"/>
			<path style="fill:#3945BA;" d="M155.873,122.667c0-14.565,11.807-26.373,26.373-26.373c14.565,0,26.373,11.807,26.373,26.373
				H155.873z"/>
			<linearGradient id="SVGID_1_" gradientUnits="userSpaceOnUse" x1="182.2455" y1="295.0661" x2="182.2455" y2="121.9846">
				<stop  offset="0" style="stop-color:#FFFFFF;stop-opacity:0"/>
				<stop  offset="1" style="stop-color:#FFFFFF"/>
			</linearGradient>
			<polygon style="opacity:0.35;fill:url(#SVGID_1_);" points="291.333,311.168 73.158,311.168 161.441,122.667 203.05,122.667 			
				"/>
		</g>
		<g>
			<g>
				<path style="fill:#DEE3FC;" d="M99.76,385.44c-0.236-1.305-0.204-2.64,0.125-3.925c1.101-4.303,2.361-12.395-0.439-21.138
					c-4.671-14.585-23.603-27.503-23.603-27.503s5.139,21.523,9.363,30.688c3.093,6.71,8.504,14.346,11.507,18.366
					c0.833,1.116,1.404,2.401,1.652,3.771c3.061,16.937,2.618,30.048,2.61,30.251l1.421,0.055
					C102.403,415.801,102.854,402.556,99.76,385.44z"/>
				<path style="fill:#B4C1EF;" d="M114.855,371.727c3.761-11.89,5.51-25.896,5.51-25.896s-16.975,14.006-18.366,24.844
					c-0.852,6.638,0.207,11.962,1.157,15.095c0.403,1.33,0.55,2.721,0.401,4.103c-1.718,15.949-0.372,28.171-0.351,28.358
					l1.278-0.147c-0.021-0.179-1.27-11.552,0.201-26.622c0.201-2.064,1.033-4.015,2.339-5.625
					C109.452,382.839,112.926,377.825,114.855,371.727z"/>
				<path style="fill:#DEE3FC;" d="M132.111,345.278c0,0-18.292,6.788-23.075,21.723c-2.911,9.09-1.536,17.492-0.398,21.844
					c0.319,1.221,0.302,2.496-0.004,3.721c-4.285,17.187-4.351,34.978-4.351,35.214h1.456c0-0.232,0.067-17.599,4.204-34.454
					c0.411-1.674,1.141-3.248,2.169-4.633c3.12-4.202,8.429-11.762,11.503-18.431C127.943,360.878,132.111,345.278,132.111,345.278z
					"/>
				<path style="fill:#B4C1EF;" d="M99.836,408.294c-0.455-6.252-2.159-11.88-4.224-16.602c-0.413-0.946-0.559-1.98-0.427-3.004
					c0.256-1.972,0.361-5.035-0.427-8.927c-1.484-7.328-11.21-23.158-25.292-24.086c0,0,4.859,7.811,7.359,14.347
					c3.163,8.269,7.678,16.918,15.166,20.238c1.317,0.584,2.348,1.677,2.897,3.008c1.805,4.375,3.254,9.486,3.664,15.119
					L99.836,408.294z"/>
				<g>
					<g>
						<path style="fill:#DEE3FC;" d="M90.315,440.363h23.238l6.029-36.845c0.267-1.631-0.992-3.112-2.644-3.112H86.93
							c-1.653,0-2.911,1.481-2.644,3.112L90.315,440.363z"/>
					</g>
				</g>
			</g>
			<g>
				<path style="fill:#FFFFFF;" d="M156.64,298.743c-18.445,5.292-38.625,19.523-34.667,78.092
					c1.609,23.814,17.667,63.077,71.67,63.077c56.902,0,90.489,6.19,112.89-23.58c22.401-29.77,2.44-57.255-24.17-64.256
					c-19.704-5.184-37.728-10.316-49.518-19.159C221.056,324.075,197.307,287.077,156.64,298.743z"/>
				<g>
					<path style="fill:#C4C9FC;" d="M152.367,312.743c0,0-0.772,0.598-2.025,1.918c-1.25,1.318-2.985,3.361-4.795,6.228
						c-1.813,2.859-3.701,6.536-5.287,10.971c-1.622,4.422-2.803,9.635-3.489,15.379c-0.429,2.865-0.474,5.891-0.626,9.005
						c0.062,3.136,0.038,6.327,0.328,9.67c0.462,6.646,1.301,13.599,3.032,20.612c0.226,0.872,0.452,1.748,0.679,2.628
						c0.238,0.876,0.557,1.729,0.833,2.6c0.302,0.861,0.537,1.751,0.896,2.596c0.35,0.848,0.701,1.698,1.054,2.552
						c0.325,0.867,0.757,1.684,1.181,2.507c0.431,0.82,0.82,1.666,1.287,2.47c1.002,1.565,1.907,3.208,3.1,4.657l0.848,1.121
						l0.425,0.561l0.476,0.519l1.903,2.083c0.649,0.682,1.383,1.281,2.071,1.927l1.048,0.954l1.132,0.858
						c2.945,2.394,6.326,4.225,9.751,5.902l2.626,1.16l0.656,0.291l0.164,0.073l0.132,0.047l0.344,0.121l1.374,0.483l2.746,0.966
						l2.754,0.753l2.751,0.746l2.808,0.604l2.8,0.603c0.933,0.195,1.879,0.326,2.815,0.492c1.88,0.293,3.736,0.68,5.612,0.893
						c1.872,0.239,3.735,0.477,5.586,0.714c1.856,0.2,3.707,0.346,5.542,0.521c0.918,0.082,1.833,0.164,2.744,0.245
						c0.913,0.052,1.824,0.103,2.73,0.154c1.813,0.1,3.61,0.199,5.391,0.297c1.783,0.045,3.549,0.089,5.296,0.133
						c0.874,0.025,1.743,0.049,2.607,0.073c0.864-0.004,1.723-0.008,2.577-0.012c1.708-0.012,3.396-0.023,5.061-0.035
						c3.328-0.079,6.564-0.258,9.695-0.398c3.12-0.277,6.144-0.477,9.033-0.791c2.88-0.383,5.651-0.69,8.27-1.089
						c2.611-0.453,5.088-0.882,7.416-1.286c2.302-0.533,4.457-1.032,6.449-1.493c1.004-0.206,1.941-0.494,2.837-0.771
						c0.897-0.271,1.753-0.53,2.566-0.776c3.281-0.899,5.734-1.958,7.441-2.597c1.701-0.654,2.609-1.003,2.609-1.003
						s-0.893,0.384-2.567,1.103c-1.683,0.697-4.096,1.883-7.362,2.867c-0.808,0.27-1.66,0.555-2.553,0.853
						c-0.891,0.305-1.826,0.621-2.826,0.857c-1.988,0.521-4.138,1.085-6.435,1.687c-2.328,0.473-4.804,0.977-7.415,1.508
						c-2.622,0.476-5.404,0.815-8.295,1.257c-2.9,0.368-5.936,0.622-9.072,0.957c-3.145,0.197-6.398,0.434-9.745,0.573
						c-1.675,0.041-3.373,0.083-5.092,0.125c-0.86,0.019-1.725,0.039-2.594,0.058c-0.87-0.009-1.745-0.018-2.625-0.027
						c-1.76-0.024-3.539-0.047-5.334-0.072c-1.794-0.088-3.605-0.177-5.432-0.267c-0.913-0.046-1.83-0.093-2.751-0.139
						c-0.919-0.076-1.841-0.153-2.767-0.23c-1.85-0.165-3.717-0.301-5.59-0.492c-1.87-0.228-3.752-0.457-5.642-0.688
						c-1.894-0.204-3.777-0.584-5.679-0.869c-0.948-0.162-1.904-0.29-2.852-0.482l-2.845-0.595l-2.854-0.597l-2.852-0.755
						l-2.856-0.768l-2.751-0.95l-1.377-0.475l-0.344-0.119l-0.211-0.076l-0.17-0.074l-0.678-0.295l-2.712-1.184
						c-3.532-1.753-7.026-3.675-10.09-6.19l-1.174-0.903l-1.091-1.002c-0.716-0.679-1.476-1.311-2.151-2.027l-1.977-2.188
						l-0.493-0.546l-0.441-0.587l-0.879-1.175c-1.234-1.522-2.17-3.232-3.199-4.868c-0.479-0.838-0.879-1.715-1.32-2.567
						c-0.434-0.856-0.876-1.706-1.206-2.6c-0.358-0.882-0.715-1.761-1.071-2.638c-0.364-0.874-0.601-1.786-0.906-2.673
						c-0.278-0.895-0.6-1.774-0.838-2.672c-0.227-0.9-0.454-1.797-0.68-2.69c-1.76-7.149-2.45-14.266-2.8-20.944
						c-0.231-3.322-0.154-6.635-0.159-9.784c0.209-3.157,0.31-6.218,0.795-9.118c0.774-5.817,2.133-11.068,3.907-15.494
						c1.734-4.441,3.748-8.097,5.658-10.925c1.897-2.845,3.745-4.813,5.042-6.091C151.573,313.311,152.367,312.743,152.367,312.743z
						"/>
				</g>
				<g>
					<path style="fill:#E5918F;" d="M235.369,352.283l5.287,17.531l6.956-0.481l0.943-0.064c-1.433,6.313,1.011,14.944,3.514,24.322
						c0.372,1.424,1.324,4.58,2.304,7.936c0.98,3.347,1.986,6.884,2.476,9.051l1.75,9.668c0,0,2.131,2.022,4.898,6.004
						c6.984,10.04,12.933,7.501,13.142,7.092c-0.653-0.989-7.773-11.192-8.244-11.872c-1.569-2.249-2.204-4.335-2.204-6.766
						l-0.299-5.659c-0.472-21.758,0.721-40.883,0.676-41.273c0.526-10.358-3.222-12.79-9.868-15.266
						c-1.436-0.535-4.571-0.588-6.494-0.652C243.405,351.638,235.369,352.283,235.369,352.283z"/>
					<path style="fill:#22256F;" d="M258.391,418.975c0,0,1.618,0.59,3.652,2.878c1.851,2.083,3.689,5.8,5.537,7.408
						c0.291,0.253,0.716,0.232,1.008-0.021c2.294-1.983,4.182-1.487,4.182-1.487s1.954,2.99,4.855,5.452
						c3.362,2.854,6.708,3.571,6.938,4.233c0.729,2.104-0.959,2.71-1.466,2.766c-3.215,0.359-13.455,0-13.455,0
						s-3.187-0.475-5.1-3.079c-2.206-3.002-5.441-8.233-7.252-9.758C255.479,425.842,255.908,422.172,258.391,418.975z"/>
					<path style="fill:#22256F;" d="M256.503,426.274c0,0,0.465,2.996,0.617,5.893c0.124,2.349,0.264,6.172,0.312,7.535
						c0.01,0.283,0.242,0.502,0.525,0.502h3.355c0.292,0,0.528-0.236,0.526-0.527c-0.016-1.966-0.015-8.882,0.723-11.27
						C263.427,425.612,256.503,426.274,256.503,426.274z"/>
					<path style="fill:#E5918F;" d="M224.7,371.973c1.424-0.199,3.845-0.463,5.36-0.626c0.363-0.045,0.671-0.073,0.907-0.1
						c-1.723,3.31-3.492,8.244-4,14.285c-0.082,0.934-0.109,2.195-0.109,3.655c0,7.555,1.292,17.067,1.301,17.683
						c-0.045,2.902-0.136,6.965-0.272,7.836c-0.218,1.388-1.769,1.496-1.624,3.555c0.154,2.059,1.841,7.074,3.873,9.977
						s7.02,7.682,8.77,6.485c1.759-1.197,1.106-5.188,0.154-8.063c-0.535-1.605-1.46-4.018-2.177-5.832
						c-0.653-1.66-0.898-3.455-0.717-5.224l0.644-6.113c1.324-6.512,3.165-13.196,4.943-19.228
						c1.778-6.022,3.079-8.033,4.132-11.924c0,0,5.714-18.248,2.095-21.613c-2.004-1.868-7.492-4.163-12.988-4.753
						c-3.138-0.345-6.276-0.118-8.779,1.061C219.331,356.282,222.514,372.281,224.7,371.973z"/>
					<path style="fill:#22256F;" d="M227.884,414.709c0,0-0.772,1.704,0.499,4.284c1.271,2.58,2.358,4.746,3.295,6.868
						c0.937,2.122,2.071-0.401,4.094-0.695c2.737-0.398,3.167,1.138,3.167,1.138s2.15,5.03,2.756,7.106
						c0.531,1.815,1.882,4.214,2.067,5.308c0.185,1.093-0.765,1.582-3.021,1.507c-2.336-0.078-5.322-0.021-9.466-4.311
						c-1.674-1.733-2.945-5.27-4.198-8.443c-1.667-4.221-2.416-5.407-2.339-8.183C224.816,416.513,227.884,414.709,227.884,414.709z
						"/>
					<path style="fill:#22256F;" d="M225.139,419.87c0,0-0.874,7.584-1.536,10.285c-0.1,0.407,0.107,0.819,0.482,1.005
						c0.607,0.301,1.591,0.672,2.779,0.697c0.401,0.008,0.762-0.248,0.879-0.632c0.435-1.431,1.595-5.084,2.784-7.507"/>
					<g>
						<path style="fill:#CC6362;" d="M241.984,353.574c0,0,0.388,0.035,1.054,0.185c0.66,0.163,1.619,0.39,2.696,0.896
							c0.533,0.261,1.117,0.552,1.665,0.987c0.56,0.409,1.11,0.944,1.516,1.63c0.449,0.66,0.624,1.548,0.64,2.359
							c0.003,0.759-0.017,1.555-0.058,2.33c-0.181,3.123-0.769,6.196-1.376,8.445c-0.605,2.253-1.166,3.703-1.166,3.703
							s0.242-1.528,0.604-3.82c0.354-2.285,0.77-5.331,0.94-8.386c0.051-0.768,0.082-1.518,0.091-2.281
							c-0.022-0.698-0.085-1.345-0.439-1.916c-0.311-0.571-0.738-1.079-1.221-1.488c-0.468-0.425-0.985-0.756-1.463-1.058
							c-0.975-0.58-1.858-0.974-2.486-1.216C242.354,353.695,241.984,353.574,241.984,353.574z"/>
					</g>
					<path style="fill:#22256F;" d="M181.765,349.991c0.721-1.677,8.818-6.323,17.269-8.07c8.127-1.68,16.634-0.496,16.634-0.496
						s0.281,1.024,7.45,2.208c19.873,3.281,27.685,6.085,33.583,8.876c0.211,0.1-2.258-0.419-5.604-0.462
						c-8.479-0.11-19.521-0.427-22.833,1.743c-3.191,2.091-4.896,5.963-4.5,10.052c0.583,6.017,3.735,7.788,3.735,7.788
						c0.009,0.009-29.991,2.859-37.818-2.021C180.048,363.586,181.765,349.991,181.765,349.991z"/>
				</g>
				<path style="fill:#E5918F;" d="M231.213,334.033l-13.755-20.449l-1.79-6.059l-9.572,5.417l4.25,8.292
					c0,0,11.376,15.16,18.125,15.875C235.221,337.823,231.213,334.033,231.213,334.033z"/>
				<path style="fill:#467CDB;" d="M217.927,309.028c0,0-2.24,2.82-6.24,4.17c-0.43,0.16-0.87,0.28-1.34,0.39
					c-0.98,0.22-1.47-0.51-1.64-1.81c-0.67-5.14,3.75-19.23,3.75-19.23L217.927,309.028z"/>
				<path style="fill:#316DB5;" d="M211.687,313.198c-0.43,0.16-0.87,0.28-1.34,0.39c-0.98,0.22-1.47-0.51-1.64-1.81l1.06-3.59
					C209.767,308.188,210.787,310.798,211.687,313.198z"/>
				<path style="fill:#467CDB;" d="M179.458,287.148c0,0-4.304,0.95-7.567,5.401c-1.577,2.15,0.945,5.471,0.456,9.543
					c-1.5,12.5,5.357,33.075,6.417,37.432c2.182,8.973,1.54,10.49,2.928,11.357c0.988,0.618,4.068-0.199,6.989-1.607
					c5.93-2.858,14.642-8.811,26.988-7.85c0,0,0.126-0.33-0.197-1.983c-1.059-5.43-5.73-18.797-5.188-26.271
					c0.198-2.731,0.596-6.918,0.855-10.375c0.29-3.859,2.51-6.797,1.52-9.719c-1.289-3.806-5.419-5.838-7.455-6.485
					C199.932,284.915,179.458,287.148,179.458,287.148z"/>
				<path style="fill:#316DB5;" d="M184.467,305.706c0,0-4.183,15.652-6.245,20.09l-5.188-3.688L184.467,305.706z"/>
				<g>
					<polygon style="fill:#218AFF;" points="194.605,348.212 220.73,348.212 213.076,351.441 					"/>
					<path style="fill:#76BEFF;" d="M194.337,350.078l18.675,2.746l0.656-1.865l-19.062-2.746c-0.515-0.074-0.993,0.283-1.067,0.798
						l0,0C193.464,349.526,193.822,350.004,194.337,350.078z"/>
					<path style="fill:#76BEFF;" d="M267.228,319.054l-1.39-0.811c-0.169-0.108-0.367-0.177-0.587-0.177h-41.644
						c-0.97,0-1.822,0.647-2.081,1.582l-8.991,32.406c-0.107,0.387,0.184,0.77,0.585,0.77h43.064c0.516,0,0.968-0.344,1.106-0.841
						l9.022-32.52c0.014-0.05,0.016-0.099,0.023-0.148L267.228,319.054z"/>
					<path style="fill:#218AFF;" d="M214.68,352.824h43.064c0.516,0,0.968-0.344,1.106-0.841l8.814-31.729
						c0.195-0.702-0.333-1.397-1.062-1.397h-41.644c-0.97,0-1.822,0.647-2.081,1.582l-8.782,31.615
						C213.987,352.441,214.278,352.824,214.68,352.824z"/>
				</g>
				<g>
					<path style="fill:#E5918F;" d="M164.91,322.427c0.005-0.051,0.01-0.094,0.023-0.145c0.418-2.788,1.007-5.412,1.185-6.125
						c0.025-0.12,0.037-0.188,0.037-0.188c1.367-6.762,2.954-13.877,2.954-13.877l12.335,6.303c0,0-2.226,9.286-4.577,15.494
						c0,0,8.295,5.885,14.292,9.938c6.206,4.193,8.671,5.716,8.671,5.716c-0.995,1.901-1.633,3.727-1.633,3.727
						c-6.462-1.895-15.792-4.841-24.043-8.406c-3.402-1.462-6.138-3.031-7.646-3.953c-0.071-0.046-1.084-0.648-1.154-0.694
						c-0.447-0.23-0.695-0.879-0.802-1.782c0-0.008,0-0.008,0-0.008C164.374,326.886,164.584,324.61,164.91,322.427z"/>
					<path style="fill:#E5918F;" d="M209.378,348.171c0,0-1.25-3.125-1.75-3.813c-0.5-0.688-2.75-2.875-4.43-3.463
						c-1.68-0.587-3.368-1.352-3.368-1.352s-2.577,3.253-1.633,3.727c0.768,0.386,2.223,1.895,3.525,2.53
						c0.33,0.365,0.687,0.755,0.781,0.85c0.188,0.188,0.979,2.271,1.188,2.417c0.208,0.146,0.833,0.298,0.75-0.497
						c-0.061-0.579-0.312-1.945-0.444-2.648c0.324,0.311,0.616,0.623,0.705,0.817c0.229,0.5,0.889,1.931,1.189,2.263
						c0.298,0.329,1.154,0.614,0.977-0.393c-0.031-0.175-0.093-0.433-0.172-0.728c0.317,0.576,0.752,1.293,0.965,1.528
						c0.298,0.329,1.154,0.614,0.977-0.393c-0.027-0.156-0.08-0.377-0.146-0.632c0.25,0.141,0.526,0.232,0.681,0.163
						C209.495,348.405,209.378,348.171,209.378,348.171z"/>
				</g>
				<path style="fill:#467CDB;" d="M181.347,313.4c-7.22-1.43-12.721-4.216-15.701-5.746c3.951-11.962,6.245-15.105,6.245-15.105
					s13.305,5.815,13.695,8.645C185.796,302.744,183.638,308.066,181.347,313.4z"/>
				<g>
					<path style="fill:#E5918F;" d="M201.957,286.078c0,0-1.02,4.74-7.83,5.69c-7.84,0.4-14.67-4.62-14.67-4.62
						c1.66-0.67,3.27-1.04,5.16-2.25c1.28-0.82,2.11-2.86,2.11-2.86s2.63-6.54-0.49-14.92l12.8,5.82c-0.69,0.51-1.42,1.12-1.42,1.12
						s0,0.05,0,0.13c0,0.49,0.03,2.34,0.2,4.27c0.02,0.18,0.03,0.36,0.05,0.54c0,0.02,0,0.04,0.01,0.06h-0.01l-0.94,0.4
						c0,0,0.19,2.17,0.73,3.88c0.25,0.83,0.59,1.54,1.02,1.85C200.017,286.148,201.957,286.078,201.957,286.078z"/>
					<path style="fill:#CC6362;" d="M197.867,279.058l-0.94,0.4c0,0,0.19,2.17,0.73,3.88c-5.27-2.32-8.43-7.3-8.43-7.3l8.64,2.96
						V279.058z"/>
					<path style="fill:#18004D;" d="M207.706,261.377c0,0,0.151,4.459-1.228,5.602l-0.85-6.32L207.706,261.377z"/>
					<path style="fill:#E5918F;" d="M188.404,275.644c2.353,2.733,12.219,10.382,16.193,1.673c0.583-1.278,1.813-4.677,2.098-8.29
						c0.32-4.049-0.298-7.91-0.858-10.724c-0.585-2.936-2.153-8.52-9.979-7.657C188.073,251.505,178.077,263.651,188.404,275.644z"
						/>
					<path style="fill:#18004D;" d="M184.521,257.593c0,0-5.876,0.424-7.538-3.457c-1.852-4.323,3.344-9.215,7.333-7.084
						c3.989,2.131,3.565,7.361,3.565,7.361"/>
					<path style="fill:#506AF8;" d="M181.783,258.11c0,0-1.215-1.063,1.719-4.782c0.91-1.154,3.892-2.948,4.691-2.342l-2.149,3.562
						L181.783,258.11z"/>
					<path style="fill:#18004D;" d="M180.5,267.756c1.349,7.113,5.298,9.307,7.155,9.931c0.287-1.662,0.148-7.819,0.148-7.819
						c-0.331-1.018-0.216-2.061,0.051-2.71c0.496-1.145,1.781-0.763,1.781-0.763c13.042-0.407,15.23-9.797,15.23-9.797
						c-0.598-4.479-7.049-6.858-9.886-7.291C188.274,248.263,178.464,256.979,180.5,267.756z"/>
					<path style="fill:#18004D;" d="M200.684,256.389c0,0,4.065,5.587,7.222,5.744c0,0,1.009-7.616-3.305-10.705
						c-5.891-4.218-12.561-2.008-12.561-2.008"/>
					<path style="fill:#E5918F;" d="M190.295,267.925c0,0-0.443-3.341-3.538-2.291c-2.018,0.685-0.998,5.534-0.09,7.071
						c0.908,1.537,2.937,1.006,3.206-0.144"/>
					<g>
						<path style="fill:#18004D;" d="M204.61,257.465c0-0.016-0.04,0.302-0.174,0.781c-0.141,0.479-0.354,1.161-0.749,1.913
							c-0.173,0.387-0.437,0.767-0.687,1.181c-0.296,0.384-0.575,0.814-0.954,1.185c-0.342,0.403-0.761,0.752-1.184,1.104
							c-0.424,0.35-0.913,0.632-1.378,0.932c-0.507,0.231-0.986,0.52-1.503,0.694c-0.521,0.16-1.013,0.382-1.521,0.479
							c-0.505,0.104-0.993,0.204-1.456,0.299c-0.469,0.043-0.913,0.084-1.322,0.121c-0.408,0.051-0.783,0.059-1.117,0.044
							c-0.333-0.004-0.623-0.008-0.862-0.012c-0.477-0.007-0.749-0.01-0.749-0.01s0.272-0.01,0.749-0.029
							c0.238-0.009,0.527-0.02,0.859-0.033c0.332-0.002,0.704-0.029,1.107-0.101c0.402-0.058,0.839-0.121,1.3-0.187
							c0.45-0.117,0.924-0.24,1.414-0.368c0.492-0.12,0.961-0.362,1.457-0.543c0.492-0.194,0.939-0.499,1.412-0.743
							c0.431-0.313,0.882-0.603,1.266-0.956c0.384-0.356,0.761-0.702,1.062-1.099c0.337-0.364,0.576-0.783,0.835-1.153
							c0.212-0.4,0.441-0.763,0.582-1.132c0.331-0.716,0.492-1.355,0.598-1.794c0.1-0.447,0.113-0.674,0.118-0.689L204.61,257.465z"
							/>
					</g>
					<path style="fill:#CC6362;" d="M187.056,267.709c0,0,0.886-0.602,1.68,0.437c0.874,1.143,0.416,2.533-0.505,2.356
						c-0.51-0.098-0.701-0.828-0.473-1.241c0.255-0.461,0.878-0.296,0.878-0.296S188.3,267.541,187.056,267.709z"/>
				</g>
				<path style="fill:#FFFFFF;" d="M223.772,373.75c0,0-1.542-3.167-13.592-6.809c-10.766-3.254-26.729,0.873-28.299-10.863
					l-0.852,17.672H223.772z"/>
			</g>
		</g>
		<g>
			<g>
				<path style="fill:none;stroke:#FFFFFF;stroke-width:0.8956;stroke-miterlimit:10;" d="M676.009,135.665h-32.214
					c-3.401,0-6.158,2.757-6.158,6.158v12.536c0,3.137,2.347,5.727,5.381,6.109c0.445,0.056,0.777,0.434,0.777,0.882v6.862
					c0,0.397,0.509,0.56,0.74,0.237l5.405-7.558c0.168-0.235,0.439-0.374,0.728-0.374h25.341c3.401,0,6.158-2.757,6.158-6.158
					v-12.536C682.167,138.422,679.41,135.665,676.009,135.665z"/>
				<g>
					<path style="fill:none;stroke:#FFFFFF;stroke-width:0.8956;stroke-miterlimit:10;" d="M651.936,148.072
						c0,1.12-0.908,2.027-2.027,2.027s-2.027-0.908-2.027-2.027c0-1.12,0.908-2.027,2.027-2.027S651.936,146.952,651.936,148.072z"
						/>
					<path style="fill:none;stroke:#FFFFFF;stroke-width:0.8956;stroke-miterlimit:10;" d="M662.145,148.072
						c0,1.12-0.908,2.027-2.027,2.027c-1.12,0-2.027-0.908-2.027-2.027c0-1.12,0.908-2.027,2.027-2.027
						C661.238,146.044,662.145,146.952,662.145,148.072z"/>
					<path style="fill:none;stroke:#FFFFFF;stroke-width:0.8956;stroke-miterlimit:10;" d="M672.355,148.072
						c0,1.12-0.908,2.027-2.027,2.027c-1.12,0-2.028-0.908-2.028-2.027c0-1.12,0.908-2.027,2.028-2.027
						C671.447,146.044,672.355,146.952,672.355,148.072z"/>
				</g>
			</g>
			<g>
				<path style="fill:#525BAD;" d="M574.329,440.473h16.141h2.277h7.468c0,0,2.257-4.746-0.971-10.626c0,0-2.145,1.72-8.572,0.557
					c0,0-2.682,2.277-4.534,3.167C584.277,434.472,573.611,436.567,574.329,440.473z"/>
				<path style="fill:#525BAD;" d="M643.954,428.905c0,0-3.581,1.843-8.626,0.682c0,0-0.489,0.669-1.154,2.488
					c-0.532,1.454-3.73,4.361-4.341,7.499c-0.091,0.466,0.277,0.899,0.752,0.899h15.432c0.359,0,0.67-0.246,0.742-0.598
					C647.08,438.294,647.544,433.79,643.954,428.905z"/>
				<g>
					<path style="fill:#29394A;" d="M593.131,280.684c0.003-0.026,0.007-0.043,0.007-0.043S593.133,280.67,593.131,280.684z"/>
					<path style="fill:#2D3A70;" d="M645.601,430.063c-2.193,0.813-6.943,1.114-11.13,0.125c0,0-8.255-50.158-20.125-104.457
						c-2.2,8.17-6.03,19.85-9.06,28.94c0,0.06-0.98,2.82-0.98,2.82c-0.53,3.37,0.88,27.2-0.93,41.05
						c-1.16,8.91-3.113,32.56-3.113,32.56c-3.91,0.27-8.833-0.247-10.583-0.517c0,0-1.403-28.283-2.393-39.973
						c-0.98-11.69-1.78-22.05-2-27.1c-0.05-0.76,0.02-4.25,0.1-5.51c2.93-46.2,7.46-75.48,7.74-77.26c-0.02,0.49,0.31,2.53,7.9,2.1
						c10.9-0.61,27.44-3.34,27.44-3.34c10.97-1.03,14.43,29.65,13.6,42.51c-0.25,3.98-0.85,18.98,0.45,34.49
						C648.316,388.1,645.601,430.063,645.601,430.063z"/>
				</g>
				<path style="fill:#E5918F;" d="M582.013,229.583c0,0-3.807,14.943-1.307,18.93c2.5,3.988,12.229-1.313,12.229-1.313L592.179,232
					L582.013,229.583z"/>
				<path style="fill:#FFFFFF;" d="M592.116,232.62c-5.02-0.65-8.58-1.65-10.73-2.39c4.93-21.28,9.17-24.56,9.17-24.56
					S593.066,223.88,592.116,232.62z"/>
				<path style="fill:#1F2B38;" d="M605.287,354.673c3.032-9.098,6.862-20.773,9.055-28.945l-4.527-15.993
					C609.814,309.736,609.458,340.849,605.287,354.673z"/>
				<path style="fill:#FFFFFF;" d="M592.414,284.689c0.301,3.294,11.071,4.675,18.094,4.675c7.904,0,21.331-3.427,25.266-5.95
					c0.984-0.631-0.837-8.539-0.928-18.039c-0.121-12.629,1.321-27.783,1.933-29.585c2.692-7.934,5.181-14.734,4.109-21.07
					c-1.224-2.105-2.57-3.835-3.896-5.242c-3.957-4.23-7.772-5.657-8.349-5.839c-0.041-0.01-0.071-0.03-0.071-0.03
					c-5.859-1.589-12.458-2.57-16.526-2.702c-11.709-0.354-17.356,1.346-21.494,4.766c-3.481,2.874-1.875,14.516,0.169,28.076
					c0.693,4.579,1.954,22.822,2.214,36.25C593.077,277.347,592.283,283.258,592.414,284.689z"/>
				<g>
					<path style="fill:#E5918F;" d="M621.07,203.358c-0.625-1.48-0.237-2.629-0.546-4.554c-1.061-6.613-0.672-15.18-0.672-15.18
						l-8.136,6.841l-3.835,3.228c-0.415,1.923-1.093,4.382-1.66,6.376c-0.597,2.034,0.154,3.572,0.154,3.572L621.07,203.358z"/>
					<path style="fill:#CC6362;" d="M616.748,190.472c0,0-3.262,7.205-10.53,9.593c0.573-1.991,1.246-4.445,1.663-6.37l3.836-3.229
						L616.748,190.472z"/>
					<path style="fill:#E5918F;" d="M597.948,174.679c0,0-1.636,17.148,3.966,20.268c3.074,1.713,9.569,1.054,13.779-2.875
						c1.847-1.724,2.948-4.094,3.812-6.468c1.403-3.855,3.556-11.011,2.189-15.592c-1.804-6.046-19.252-11.193-23.192,0.394
						C598.191,171.32,598.078,173.566,597.948,174.679z"/>
					<path style="fill:#192C51;" d="M596.568,163.712c-2.227,2.451-1.237,6.483,1.886,7.587c1.182,0.418,2.635,0.732,4.407,0.827
						c3.42,0.193,8.031-0.409,9.704-1.006c0.12,2.197,0.15,6.05,0.965,7.437c0.873,1.486,5.634,1.036,5.699,1.763
						c0.325,3.639,0.393,6.499,0.622,10.926l0.748-0.367c0.125-1.49,3.636-9.624,4.132-13.945c0.055-0.303,1.241-7.538-0.193-11.142
						c-1.462-3.677-4.164-2.831-4.164-2.831c-2.486-4.086-8.062-4.321-8.375-4.348C603.999,157.63,599.206,160.809,596.568,163.712z
						"/>
					<path style="fill:#E5918F;" d="M615.781,185.479c3.903,2.129,6.549-7.826,2.702-8.8c-2.918-0.739-3.594,3.379-3.594,3.379
						S613.552,184.263,615.781,185.479z"/>
				</g>
				<path style="fill:#E5918F;" d="M620.932,241.29c0.892-2.473,2.114-5.304,3.374-8.035c0.919-1.976,1.857-3.907,2.703-5.598
					c1.747-3.503,18.606,1.71,16.023,6.683c-1.278,2.482-7.028,13.198-7.028,13.198s-8.447,14.244-16.563,13.334
					C613.923,260.253,619.948,244.039,620.932,241.29z"/>
				<path style="fill:#FFFFFF;" d="M646.816,223.91c-0.12,1.6-1.11,7.05-3.15,12.35c-1.18,3.05-2.932,6.811-4.112,9.191
					c-5.75-0.456-15.708-5.763-18.828-7.721c1.75-4.04,11.88-23.88,11.88-23.88l-3.96-10.21c0,0,4.06,1.23,7.33,3.15
					c0.04,0.02,0.06,0.04,0.1,0.06c0.31,0.18,0.61,0.37,0.9,0.57C645.456,212.9,647.006,221.57,646.816,223.91z"/>
				<path style="fill:#E5918F;" d="M610.409,258.289c0.195-0.075,0.375-0.152,0.556-0.23c-0.103,0.047-0.197,0.089-0.289,0.117
					C610.575,258.209,610.481,258.25,610.409,258.289z"/>
				<path style="fill:#2D3A70;" d="M610.253,209.592c0,0,1.252,46,1.251,51.631c-0.001,4.182-5.211,12.87-6.217,13.789
					c-1.005,0.919-4.709-9.954-4.797-13.866c-0.23-10.214,7.527-51.683,7.527-51.683L610.253,209.592z"/>
				<polygon style="fill:#2D3A70;" points="611.503,209.012 610.002,209.708 608.016,209.463 607.345,208.158 610.002,203.559 				
					"/>
				<path style="fill:#E3E5ED;" d="M622.84,202.282c0,0-0.148-0.784-1.026-2.322c-0.376-0.659-1.408-1.946-1.408-1.946
					s-1.17,3.686-10.404,5.546l1.501,5.453C611.503,209.012,619.236,208.019,622.84,202.282z"/>
				<path style="fill:#E3E5ED;" d="M606.518,199.012c0,0-0.238,1.055,1.2,2.749c0.453,0.533,2.284,1.797,2.284,1.797l-2.657,4.599
					c0,0-2.207-2.214-2.207-7.189c0,0,0.14-0.373,0.562-0.946C605.878,199.782,606.518,199.012,606.518,199.012z"/>
				<g style="opacity:0.5;">
					<g>
						<path style="fill:#CC6362;" d="M618.413,178.324c0,0-0.303,0.238-0.608,0.657c-0.306,0.417-0.606,1.005-0.734,1.66
							c-0.082,0.322-0.119,0.659-0.147,0.981c-0.033,0.322-0.034,0.629-0.048,0.899c-0.008,0.274-0.014,0.502-0.019,0.662
							c-0.006,0.163-0.019,0.26-0.019,0.26s-0.049-0.081-0.119-0.23c-0.057-0.152-0.187-0.361-0.256-0.635
							c-0.081-0.272-0.16-0.598-0.178-0.959c-0.034-0.359-0.003-0.753,0.079-1.139c0.089-0.385,0.243-0.761,0.453-1.072
							c0.203-0.316,0.466-0.557,0.704-0.728C618.018,178.347,618.413,178.324,618.413,178.324z"/>
					</g>
					<g>
						<path style="fill:#CC6362;" d="M618.797,180.333c0,0-0.171-0.005-0.413,0.051c-0.242,0.051-0.548,0.174-0.792,0.364
							c-0.248,0.185-0.425,0.431-0.524,0.629c-0.104,0.195-0.147,0.337-0.147,0.337l-0.646-0.334c0,0,0.103-0.162,0.3-0.369
							c0.191-0.21,0.497-0.449,0.841-0.581c0.342-0.139,0.7-0.175,0.958-0.159C618.634,180.283,618.797,180.333,618.797,180.333z"/>
					</g>
				</g>
				<g>
					<path style="fill:#1F2B38;" d="M591.692,290.962c0,0,1.232,0.303,3.392,0.671c0.441,0.073,0.929,0.156,1.453,0.239
						c4.174,0.634,10.71,1.333,18.275,1.048c0.478-0.018,0.965-0.046,1.452-0.064c6.711-0.368,14.139-1.535,21.373-4.192
						c0,0-0.439-3.365-1.864-5.249c0,0-8.055,2.997-19.803,3.622c-0.478,0.018-0.974,0.046-1.471,0.055
						c-5.12,0.193-10.912-0.101-17.062-1.269c-0.478-0.083-0.956-0.184-1.443-0.285c-1.177-0.248-2.372-0.524-3.576-0.846
						C592.418,284.692,591.52,287.965,591.692,290.962z"/>
					<path style="fill:#2D3A70;" d="M595.075,292.478h1.452c0-0.202,0-0.404,0.009-0.607c0.064-3.061,0.634-5.212,0.901-6.049
						c-0.478-0.083-0.956-0.184-1.443-0.285c-0.303,1.002-0.818,3.126-0.91,6.095C595.075,291.909,595.075,292.184,595.075,292.478z
						"/>
					<path style="fill:#2D3A70;" d="M614.812,292.92c-0.009,0.147-0.028,0.303-0.037,0.46l1.443,0.12
						c0.018-0.221,0.028-0.432,0.046-0.643c0.156-2.629-0.083-4.633-0.294-5.819c-0.478,0.018-0.974,0.046-1.471,0.055
						C614.702,288.158,614.977,290.208,614.812,292.92z"/>
					<path style="fill:#2D3A70;" d="M627.36,285.621c0.386,1.048,0.965,2.969,1.25,5.58v0.037c0.018,0.138,0.028,0.276,0.046,0.423
						l1.443-0.129c-0.018-0.212-0.046-0.414-0.064-0.616v-0.028c-0.285-2.528-0.827-4.431-1.241-5.571
						C628.335,285.418,627.857,285.52,627.36,285.621z"/>
					<path style="fill:#2B435D;" d="M609.009,287.611c-0.016,1.084-0.043,3.342-0.011,4.803c0.008,0.364-0.283,0.658-0.647,0.651
						c-1.296-0.023-4.169-0.098-5.81-0.315c-0.311-0.041-0.54-0.298-0.55-0.612c-0.031-1.05-0.075-3.438,0.107-5.035
						c0.04-0.351,0.349-0.599,0.7-0.561c1.051,0.114,3.316,0.338,5.593,0.426C608.74,286.981,609.015,287.262,609.009,287.611z"/>
				</g>
				<path style="fill:#E5918F;" d="M622.377,246.875c0,0-23.895-9.303-33.398-11.293c0.096,0.876,0.408,2.564,0.613,3.398
					c0,0,3.436,1.623,8.47,6.471c4.5,4.333,16.789,14.036,20.953,15.334C623.179,262.083,625.796,250.148,622.377,246.875z"/>
				<path style="fill:#E5918F;" d="M580.706,248.514c0,0,1.229,2.773,13.057,3.44c11.828,0.667,21.657-1.78,21.657-1.78
					s-23.157-11.257-26.74-11.34C585.096,238.75,580.706,248.514,580.706,248.514z"/>
				<path style="fill:#E5918F;" d="M603.896,240.089c0,0,6.043,0.723,8.793,0.348s6.123-1.237,7.393-1.238
					c3.513-0.003,8.513,3.509,10.12,5.676c1.033,1.392-4.175,6.221-10.567,1.272L603.896,240.089z"/>
				<g>
					<path style="fill:#CC6362;" d="M589.592,238.98c0,0,0.525,0.236,1.394,0.746c0.864,0.515,2.086,1.284,3.449,2.347
						c1.373,1.046,2.893,2.388,4.459,3.86c1.581,1.448,3.342,2.922,5.126,4.362c1.772,1.456,3.575,2.876,5.291,4.17
						c1.716,1.295,3.328,2.493,4.755,3.452c1.422,0.965,2.626,1.746,3.519,2.204c0.438,0.247,0.797,0.407,1.049,0.503
						c0.248,0.104,0.381,0.16,0.381,0.16s-0.135-0.048-0.389-0.139c-0.257-0.083-0.627-0.224-1.079-0.448
						c-0.915-0.422-2.184-1.111-3.636-2.045c-1.455-0.929-3.128-2.053-4.859-3.34c-1.734-1.282-3.557-2.686-5.348-4.131
						c-1.776-1.463-3.525-2.957-5.107-4.434c-1.559-1.491-2.994-2.88-4.338-3.957c-1.327-1.09-2.479-1.946-3.319-2.496
						C590.104,239.244,589.592,238.98,589.592,238.98z"/>
				</g>
				<g>
					<path style="fill:#CC6362;" d="M599.934,238.749c0,0,1.072,0.316,2.66,0.844c0.79,0.273,1.72,0.572,2.703,0.929
						c0.983,0.356,2.031,0.736,3.079,1.115c1.04,0.401,2.081,0.801,3.056,1.177c0.976,0.374,1.873,0.759,2.649,1.071
						c1.545,0.642,2.561,1.107,2.561,1.107s-1.072-0.315-2.66-0.844c-0.79-0.274-1.721-0.571-2.703-0.929
						c-0.983-0.356-2.031-0.736-3.079-1.116c-1.04-0.401-2.08-0.802-3.056-1.178c-0.976-0.375-1.873-0.76-2.649-1.072
						C600.95,239.215,599.934,238.749,599.934,238.749z"/>
				</g>
				<g>
					<path style="fill:#CC6362;" d="M619.637,246.147c0,0,0.577,0.458,1.547,0.923c0.961,0.481,2.342,0.892,3.754,0.963
						c0.353,0.019,0.706,0.025,1.054-0.001c0.344-0.006,0.687-0.053,1.003-0.119c0.642-0.137,1.228-0.349,1.686-0.615
						c0.456-0.267,0.809-0.546,1.024-0.777c0.221-0.224,0.331-0.372,0.331-0.372s-0.071,0.17-0.256,0.434
						c-0.186,0.261-0.485,0.629-0.947,0.952c-0.46,0.32-1.052,0.629-1.736,0.807c-0.347,0.087-0.701,0.165-1.073,0.173
						c-0.366,0.033-0.739,0.034-1.112,0.018c-0.371-0.03-0.745-0.06-1.105-0.137c-0.363-0.059-0.709-0.167-1.043-0.269
						c-0.666-0.213-1.242-0.526-1.716-0.811C620.104,246.725,619.637,246.147,619.637,246.147z"/>
				</g>
			</g>
		</g>
		
			<line style="fill:none;stroke:#FFFFFF;stroke-width:1.1144;stroke-linecap:round;stroke-miterlimit:10;" x1="49.89" y1="440.363" x2="700.11" y2="440.363"/>
	</g>
</g>
</svg>
