<?xml version="1.0" encoding="utf-8"?>
<!-- Generator: Adobe Illustrator 27.5.0, SVG Export Plug-In . SVG Version: 6.00 Build 0)  -->
<svg version="1.1" xmlns="http://www.w3.org/2000/svg" xmlns:xlink="http://www.w3.org/1999/xlink" x="0px" y="0px"
	 viewBox="0 0 600 500" style="enable-background:new 0 0 600 500;" xml:space="preserve">
<g id="BACKGROUND">
	<rect style="fill:#FFFFFF;" width="600" height="500"/>
</g>
<g id="OBJECTS">
	<g>
		<path style="fill:#BEDCE0;" d="M321.742,419.519v8.68h31.526c0.037-9.012,7.378-16.334,16.398-16.334s16.361,7.322,16.398,16.334
			h31.526v-8.68h-15.214c-0.778-2.904-1.922-5.653-3.398-8.196l10.76-10.759l-12.369-12.369l-10.759,10.76
			c-2.543-1.476-5.292-2.62-8.196-3.397v-15.214h-17.495v15.214c-2.904,0.778-5.653,1.922-8.196,3.397l-10.76-10.76l-12.369,12.369
			l10.759,10.759c-1.476,2.543-2.62,5.292-3.397,8.196H321.742z"/>
		<g>
			<path style="fill:none;stroke:#BEDCE0;stroke-width:0.8315;stroke-miterlimit:10;" d="M54.199,428.199
				c0,0,3.818-235.137,49.803-236.911c45.985-1.774,17.003,193.168,44.052,193.168c27.048,0,28.485-113.309,57.872-113.309
				c29.387,0,16.249,121.832,39.188,121.832c22.939,0,13.139-141.23,38.532-141.23c29.348,0,18.353,121.037,36.279,121.037
				c27.964,0,9.322-190.012,60.948-190.012c55.212,0,34.178,221.431,58.935,221.431c24.757,0,16.354-166.696,59.376-166.696
				c35.852,0,40.154,190.691,40.154,190.691"/>
			<path style="fill:#4A75C9;" d="M77.507,243.916c0,2.649-2.148,4.797-4.797,4.797c-2.649,0-4.797-2.148-4.797-4.797
				c0-2.65,2.148-4.797,4.797-4.797C75.359,239.119,77.507,241.266,77.507,243.916z"/>
			<path style="fill:#4A75C9;" d="M232.649,331.62c0,2.649-2.148,4.797-4.797,4.797c-2.649,0-4.797-2.148-4.797-4.797
				c0-2.649,2.148-4.797,4.797-4.797C230.501,326.823,232.649,328.971,232.649,331.62z"/>
			<path style="fill:#4A75C9;" d="M326.539,372.968c0,2.649-2.148,4.797-4.797,4.797c-2.649,0-4.797-2.148-4.797-4.797
				c0-2.65,2.148-4.797,4.797-4.797C324.391,368.17,326.539,370.318,326.539,372.968z"/>
			<path style="fill:#4A75C9;" d="M367.667,193.213c0,2.649-2.148,4.797-4.797,4.797c-2.649,0-4.797-2.148-4.797-4.797
				s2.148-4.797,4.797-4.797C365.519,188.416,367.667,190.564,367.667,193.213z"/>
			<path style="fill:#4A75C9;" d="M471.755,294.223c0,2.65-2.148,4.797-4.797,4.797c-2.649,0-4.797-2.148-4.797-4.797
				c0-2.649,2.148-4.797,4.797-4.797C469.607,289.425,471.755,291.573,471.755,294.223z"/>
			<circle style="fill:#4A75C9;" cx="528.458" cy="304.05" r="4.797"/>
		</g>
		<g>
			<path style="fill:#1B2536;" d="M511.391,233.501h-61.944c-3.015,0-5.46-2.445-5.46-5.46v-41.983c0-3.015,2.445-5.46,5.46-5.46
				h61.944c3.015,0,5.46,2.444,5.46,5.46v41.983C516.851,231.057,514.407,233.501,511.391,233.501z"/>
			<g>
				<path style="fill:#D68D8D;" d="M490.685,191.831h14.661c0.592,0,1.072-0.48,1.072-1.072l0,0c0-0.592-0.48-1.072-1.072-1.072
					h-14.661c-0.592,0-1.072,0.48-1.072,1.072l0,0C489.613,191.351,490.093,191.831,490.685,191.831z"/>
				<path style="fill:#FFFFFF;" d="M479.239,195.904h26.107c0.592,0,1.072-0.48,1.072-1.072l0,0c0-0.592-0.48-1.072-1.072-1.072
					h-26.107c-0.592,0-1.072,0.48-1.072,1.072l0,0C478.167,195.424,478.647,195.904,479.239,195.904z"/>
				<path style="fill:#BEDCE0;" d="M462.418,195.904h12.518c0.592,0,1.072-0.48,1.072-1.072l0,0c0-0.592-0.48-1.072-1.072-1.072
					h-12.518c-0.592,0-1.072,0.48-1.072,1.072l0,0C461.346,195.424,461.826,195.904,462.418,195.904z"/>
				<path style="fill:#EBBC3B;" d="M460.617,199.976h44.729c0.592,0,1.072-0.48,1.072-1.072v0c0-0.592-0.48-1.072-1.072-1.072
					h-44.729c-0.592,0-1.072,0.48-1.072,1.072v0C459.545,199.496,460.025,199.976,460.617,199.976z"/>
				<path style="fill:#4A75C9;" d="M502.055,204.049h3.292c0.592,0,1.072-0.48,1.072-1.072l0,0c0-0.592-0.48-1.072-1.072-1.072
					h-3.292c-0.592,0-1.072,0.48-1.072,1.072l0,0C500.983,203.569,501.463,204.049,502.055,204.049z"/>
				<path style="fill:#BEDCE0;" d="M475.283,204.049h22.44c0.592,0,1.072-0.48,1.072-1.072l0,0c0-0.592-0.48-1.072-1.072-1.072
					h-22.44c-0.592,0-1.072,0.48-1.072,1.072l0,0C474.211,203.569,474.691,204.049,475.283,204.049z"/>
				<path style="fill:#FFFFFF;" d="M490.685,208.121h14.661c0.592,0,1.072-0.48,1.072-1.072l0,0c0-0.592-0.48-1.072-1.072-1.072
					h-14.661c-0.592,0-1.072,0.48-1.072,1.072l0,0C489.613,207.641,490.093,208.121,490.685,208.121z"/>
				<path style="fill:#EBBC3B;" d="M469.212,212.194h36.134c0.592,0,1.072-0.48,1.072-1.072l0,0c0-0.592-0.48-1.072-1.072-1.072
					h-36.134c-0.592,0-1.072,0.48-1.072,1.072l0,0C468.141,211.714,468.62,212.194,469.212,212.194z"/>
				<path style="fill:#FFFFFF;" d="M460.081,216.267h45.265c0.592,0,1.072-0.48,1.072-1.072l0,0c0-0.592-0.48-1.072-1.072-1.072
					h-45.265c-0.592,0-1.072,0.48-1.072,1.072l0,0C459.009,215.787,459.489,216.267,460.081,216.267z"/>
				<path style="fill:#4A75C9;" d="M481.383,220.339h23.964c0.592,0,1.072-0.48,1.072-1.072l0,0c0-0.592-0.48-1.072-1.072-1.072
					h-23.964c-0.592,0-1.072,0.48-1.072,1.072l0,0C480.311,219.859,480.791,220.339,481.383,220.339z"/>
				<path style="fill:#BEDCE0;" d="M460.081,220.339h15.39c0.592,0,1.072-0.48,1.072-1.072l0,0c0-0.592-0.48-1.072-1.072-1.072
					h-15.39c-0.592,0-1.072,0.48-1.072,1.072l0,0C459.009,219.859,459.489,220.339,460.081,220.339z"/>
				<path style="fill:#D68D8D;" d="M490.685,224.412h14.661c0.592,0,1.072-0.48,1.072-1.072l0,0c0-0.592-0.48-1.072-1.072-1.072
					h-14.661c-0.592,0-1.072,0.48-1.072,1.072l0,0C489.613,223.932,490.093,224.412,490.685,224.412z"/>
			</g>
		</g>
		<g>
			<path style="fill:#365896;" d="M180.701,186.138c3.587-1.209,4.876-4.675,3.909-7.657c-0.967-2.982-5.843-3.667-14.911-0.242
				c-9.067,3.425-15.596,3.063-16.16,6.005c-0.564,2.942,1.854,4.393,6.287,3.828l3.929,9.188L180.701,186.138z"/>
			<polygon style="fill:#1B2536;" points="186.992,279.815 213.585,415.31 195.45,415.31 164.5,302.121 126.853,413.348 
				109.813,413.348 139.353,279.815 			"/>
			<path style="fill:#D9956A;" d="M169.296,185.413l11.647-1.894c0,0,0.806,3.909,0.766,7.375c0,0,2.136,2.282,2.015,6.287
				c-0.121,3.99-2.297,7.576-6.287,8.342l0.081,7.335h-14.226l2.055-18.135C165.346,194.722,170.102,193.553,169.296,185.413z"/>
			<path style="fill:#D9956A;" d="M167.906,197.984c-0.89,2.064-3.534,2.909-5.905,1.886c-2.371-1.023-3.571-3.525-2.681-5.589
				c0.89-2.064,3.534-2.909,5.904-1.886C167.596,193.417,168.796,195.92,167.906,197.984z"/>
			<path style="fill:none;stroke:#422424;stroke-width:0.3868;stroke-miterlimit:10;" d="M160.833,194.803
				c0,0,3.708-2.176,5.843,2.458"/>
			
				<line style="fill:none;stroke:#422424;stroke-width:0.3868;stroke-miterlimit:10;" x1="162.687" y1="197.019" x2="163.291" y2="194.321"/>
			<path style="fill:none;stroke:#422424;stroke-width:0.3868;stroke-miterlimit:10;" d="M176.55,205.563
				c0,0-3.748,0.564-7.052-2.297"/>
			<path style="fill:none;stroke:#422424;stroke-width:0.3868;stroke-miterlimit:10;" d="M175.912,189.281
				c0,0-0.005,2.394,1.355,3.987c0.225,0.263,0.155,0.663-0.152,0.823l-1.203,0.63"/>
			<path style="fill:#422424;" d="M173.769,196.132h5.924c0,0-1.894,5.118-3.305,5.158
				C174.978,201.331,173.769,196.132,173.769,196.132z"/>
			<path style="fill:#943232;" d="M176.118,197.957c-0.623,0-1.216,0.086-1.755,0.239c0.486,1.446,1.223,3.118,2.025,3.095
				c0.743-0.021,1.617-1.449,2.281-2.797C177.945,198.157,177.068,197.957,176.118,197.957z"/>
			<path style="fill:#1B2536;" d="M172.283,188.956c-0.55,0.074-0.839,1.086-0.646,2.261c0.059,0.36,0.16,0.688,0.283,0.976
				l0.806-0.544c0,0-0.203,0.624-0.409,1.211c0.21,0.244,0.442,0.38,0.666,0.35c0.55-0.074,0.839-1.086,0.646-2.261
				C173.436,189.774,172.833,188.882,172.283,188.956z"/>
			<path style="fill:#1B2536;" d="M178.557,188.11c-0.55,0.074-0.839,1.086-0.646,2.261c0.059,0.36,0.16,0.688,0.283,0.976
				l0.806-0.544c0,0-0.203,0.624-0.409,1.211c0.21,0.244,0.442,0.38,0.666,0.35c0.55-0.074,0.839-1.086,0.646-2.261
				C179.71,188.928,179.107,188.036,178.557,188.11z"/>
			<path style="fill:none;stroke:#365896;stroke-width:0.75;stroke-linecap:round;stroke-linejoin:round;stroke-miterlimit:10;" d="
				M169.88,187.629c0,0,2.06-0.665,3.629,0"/>
			<path style="fill:none;stroke:#365896;stroke-width:0.75;stroke-linecap:round;stroke-linejoin:round;stroke-miterlimit:10;" d="
				M176.983,187.055c0,0,1.241-0.888,3.25-0.61"/>
			<path style="fill:#D65353;" d="M163.891,209.915h13.727c1.005,0,1.878,0.69,2.111,1.667l0.506,2.121l18.36,6.482l15.878,26.483
				l6.932-8.227l11.123,4.747l-6.745,17.273c-2.957,7.573-12.2,10.412-18.899,5.807l-14.861-10.217l-2.857,17.779
				c0,0,10.156,8.676-1.209,8.676h-48.193c-1.303,0-2.279-1.196-2.017-2.473l12.812-62.525l10.72-4.127l0.524-1.879
				C162.063,210.564,162.917,209.915,163.891,209.915z"/>
			
				<line style="fill:none;stroke:#1B2536;stroke-width:0.4299;stroke-miterlimit:10;" x1="214.472" y1="246.668" x2="207.48" y2="255.635"/>
			
				<line style="fill:none;stroke:#1B2536;stroke-width:0.4299;stroke-miterlimit:10;" x1="192.021" y1="256.051" x2="194.161" y2="241.849"/>
			<g>
				<polygon style="fill:#EDD1C2;" points="220.313,248.935 175.218,248.935 182.756,212.857 227.851,212.857 				"/>
				<g>
					<path style="fill:none;stroke:#FFFFFF;stroke-width:0.4299;stroke-miterlimit:10;" d="M220.432,220.185h-33.32
						c-0.737,0-1.209-0.599-1.054-1.339l0,0c0.154-0.739,0.877-1.339,1.613-1.339h33.32c0.737,0,1.208,0.599,1.054,1.339l0,0
						C221.891,219.586,221.169,220.185,220.432,220.185z"/>
					<path style="fill:none;stroke:#FFFFFF;stroke-width:0.4299;stroke-miterlimit:10;" d="M219.161,226.271h-33.32
						c-0.737,0-1.208-0.599-1.054-1.339l0,0c0.154-0.739,0.877-1.339,1.613-1.339h33.32c0.737,0,1.209,0.599,1.054,1.339l0,0
						C220.62,225.671,219.898,226.271,219.161,226.271z"/>
					<path style="fill:none;stroke:#FFFFFF;stroke-width:0.4299;stroke-miterlimit:10;" d="M209.229,232.356h-24.66
						c-0.737,0-1.208-0.599-1.054-1.339l0,0c0.155-0.739,0.877-1.339,1.613-1.339h24.66c0.737,0,1.209,0.599,1.054,1.339l0,0
						C210.688,231.757,209.966,232.356,209.229,232.356z"/>
					<path style="fill:none;stroke:#FFFFFF;stroke-width:0.4299;stroke-miterlimit:10;" d="M216.618,238.441h-33.32
						c-0.737,0-1.209-0.599-1.054-1.339v0c0.155-0.739,0.877-1.339,1.614-1.339h33.32c0.737,0,1.209,0.599,1.054,1.339v0
						C218.077,237.842,217.355,238.441,216.618,238.441z"/>
					<path style="fill:none;stroke:#FFFFFF;stroke-width:0.4299;stroke-miterlimit:10;" d="M202.334,244.526h-20.307
						c-0.737,0-1.209-0.599-1.054-1.339l0,0c0.154-0.739,0.877-1.339,1.613-1.339h20.307c0.737,0,1.208,0.599,1.054,1.339l0,0
						C203.793,243.927,203.07,244.526,202.334,244.526z"/>
				</g>
			</g>
			<path style="fill:#1B2536;" d="M141.312,262.622c0,0,20.017-9.112,32.699-12.488c-4.973,9.124-19.637,20.456-28.875,27.006
				c-2.85,2.021-6.698-0.494-5.996-3.917L141.312,262.622z"/>
			<path style="fill:#D65353;" d="M150.557,217.508c-5.239,1.595-9.672,4.9-16.523,12.718c-6.851,7.818-21.525,22.292-14.024,34.335
				c8.785,14.105,41.589-4.755,54.002-14.427l-6.448-12.171l-20.875,6.126l7.899-11.733L150.557,217.508z"/>
			<path style="fill:none;stroke:#1B2536;stroke-width:0.4299;stroke-miterlimit:10;" d="M134.517,241.849
				c0,0,3.446-0.711,9.914,1.339"/>
			<path style="fill:#D9956A;" d="M167.563,237.964l5.158-1.854l4.784-10.087c0.492-1.038,1.425-1.798,2.541-2.071l6.615-1.616
				c1.202-0.294,2.391,0.53,2.538,1.759l0.539,4.507c0.09,0.749-0.34,1.463-1.042,1.735l-5.208,2.019c0,0,4.509,0.731,6.403,0.973
				c0.27,0.034,0.268,1.042,0,1.088c-1.854,0.322-6.403,0.121-6.403,0.121s-3.027,5.864-7.198,5.984l-5.248,4.004L167.563,237.964z"
				/>
			
				<line style="fill:none;stroke:#422424;stroke-width:0.3868;stroke-miterlimit:10;" x1="179.879" y1="227.288" x2="189.198" y2="224.759"/>
			
				<line style="fill:none;stroke:#422424;stroke-width:0.3868;stroke-miterlimit:10;" x1="180.57" y1="229.679" x2="189.574" y2="227.235"/>
			<path style="fill:#D9956A;" d="M230.091,242.148v-7.308l1.203-6.07c0.258-1.303-0.289-2.635-1.39-3.379l-5.434-3.674
				c-0.649-0.439-1.537-0.101-1.731,0.658l-2.122,8.321c-0.119,0.467,0.08,0.958,0.492,1.209l2.45,1.496l-1.143,5.472
				L230.091,242.148z"/>
			
				<line style="fill:none;stroke:#422424;stroke-width:0.3868;stroke-miterlimit:10;" x1="223.559" y1="233.401" x2="226.239" y2="235.022"/>
			
				<line style="fill:none;stroke:#422424;stroke-width:0.3868;stroke-miterlimit:10;" x1="221.083" y1="228.867" x2="227.045" y2="232.356"/>
			
				<line style="fill:none;stroke:#422424;stroke-width:0.3868;stroke-miterlimit:10;" x1="221.672" y1="226.271" x2="227.634" y2="229.76"/>
			
				<line style="fill:none;stroke:#422424;stroke-width:0.3868;stroke-miterlimit:10;" x1="222.432" y1="223.793" x2="228.394" y2="227.282"/>
			
				<line style="fill:none;stroke:#1B2536;stroke-width:0.4299;stroke-miterlimit:10;" x1="183.486" y1="259.536" x2="166.545" y2="270.215"/>
			<polygon style="fill:#1B2536;" points="123.878,411.414 125.373,417.7 142.255,425.116 143.061,428.799 106.469,428.799 
				112.755,411.414 			"/>
			<path style="fill:#1B2536;" d="M159.826,188.072c2.286-0.094,6.013-1.681,6.013-1.681l-4.542,5.121L159.826,188.072z"/>
			<polyline style="fill:none;stroke:#1B2536;stroke-width:0.4299;stroke-miterlimit:10;" points="130.648,248.95 167.563,237.964 
				174.011,250.134 			"/>
			
				<line style="fill:none;stroke:#1B2536;stroke-width:0.4299;stroke-miterlimit:10;" x1="146.688" y1="244.089" x2="155.994" y2="230.611"/>
		</g>
		<path style="fill:#D4780E;" d="M545.785,373.851v-20.849h-18.131c-0.927-3.461-2.29-6.737-4.049-9.768l12.823-12.823
			l-14.741-14.741l-12.823,12.823c-3.031-1.759-6.307-3.122-9.767-4.049v-18.131h-20.849v18.131
			c-3.461,0.927-6.737,2.29-9.768,4.049l-12.823-12.823l-14.741,14.741l12.823,12.823c-1.759,3.031-3.122,6.307-4.049,9.768h-18.131
			v20.849h18.131c0.927,3.461,2.29,6.737,4.049,9.768l-12.823,12.822l14.741,14.741l12.823-12.823
			c3.031,1.759,6.307,3.122,9.768,4.049v18.132h20.849v-18.132c3.461-0.927,6.737-2.29,9.767-4.049l12.823,12.823l14.741-14.741
			l-12.823-12.822c1.759-3.031,3.122-6.307,4.049-9.768H545.785z M508.218,363.426c0,10.777-8.769,19.546-19.546,19.546
			c-10.777,0-19.546-8.769-19.546-19.546c0-10.777,8.769-19.546,19.546-19.546C499.448,343.88,508.218,352.649,508.218,363.426z"/>
		<g>
			<path style="fill:#1B2536;" d="M433.55,202.056l-2.418,9.512c0,0-5.387-5.99-5.011-10.45L433.55,202.056z"/>
			<path style="fill:#D68D8D;" d="M382.945,405.087l-1.326,8.544l-13.985,6.506c-1.235,0.575-2.194,1.612-2.67,2.889l-2.094,5.618
				h32.931l-1.799-14.252l0.98-9.305H382.945z"/>
			<path style="fill:#1B2536;" d="M386.439,413.792L386.439,413.792c0-1.87-1.516-3.385-3.385-3.385h-0.935l-0.501,3.225
				l-13.985,6.506c-1.235,0.575-2.194,1.612-2.67,2.889l-2.094,5.618h32.931l-1.799-14.252l0.063-0.6H386.439z"/>
			<polygon style="fill:#4A6CAB;" points="362.87,428.644 395.801,428.644 395.391,425.392 364.082,425.392 			"/>
			<path style="fill:#D68D8D;" d="M457.605,405.088l0.603,8.551l-14.052,6.36c-1.241,0.562-2.211,1.589-2.7,2.861l-2.152,5.939
				h32.93l-1.65-14.27l-0.941-9.316L457.605,405.088z"/>
			<path style="fill:#1B2536;" d="M470.583,414.529l-0.087-0.858h-8.374l-0.068-0.479c-0.238-1.668-1.667-2.906-3.351-2.906h-0.731
				l0.236,3.353l-14.052,6.36c-1.241,0.562-2.211,1.589-2.7,2.861l-2.152,5.939l32.93,0L470.583,414.529z"/>
			<polygon style="fill:#4A6CAB;" points="439.304,428.798 472.233,428.799 471.857,425.543 440.549,425.217 			"/>
			<g>
				<g>
					<path style="fill:#1B2536;" d="M389.471,323.273h-21.928l2.818-10.659h16.291L389.471,323.273z M370.893,320.694h15.228
						l-1.455-5.501h-12.318L370.893,320.694z"/>
				</g>
				<path style="fill:#6E9296;" d="M398.225,352.819h-40.128c-2.346,0-4.248-1.902-4.248-4.248v-22.15h48.624v22.15
					C402.473,350.917,400.571,352.819,398.225,352.819z"/>
				<path style="fill:#496163;" d="M401.694,332.024h-47.065c-1.314,0-2.379-1.065-2.379-2.38v-5.016
					c0-2.865,2.323-5.188,5.189-5.188h41.446c2.866,0,5.189,2.323,5.189,5.188v5.016
					C404.073,330.959,403.008,332.024,401.694,332.024z"/>
				<g>
					<rect x="360.181" y="326.421" style="fill:#FFFFFF;" width="4.097" height="5.603"/>
					<rect x="392.045" y="326.421" style="fill:#FFFFFF;" width="4.097" height="5.603"/>
				</g>
				<g>
					
						<rect x="360.181" y="326.421" style="fill:none;stroke:#1B2536;stroke-width:0.4299;stroke-miterlimit:10;" width="4.097" height="11.173"/>
					
						<rect x="392.045" y="326.421" style="fill:none;stroke:#1B2536;stroke-width:0.4299;stroke-miterlimit:10;" width="4.097" height="11.173"/>
				</g>
			</g>
			<path style="fill:#4A6CAB;" d="M409.571,280.924v10.8l-20.22,48.586c-1.451,3.486-2.414,7.155-2.862,10.904l-6.74,56.411h18.377
				l8.425-46.41c0.722-3.974,1.873-7.859,3.434-11.584l16.99-43.319h3.804l23.605,101.314h17.571l-16.281-116.708l-0.967-10.8
				L409.571,280.924z"/>
			<g>
				
					<line style="fill:none;stroke:#1B2536;stroke-width:0.4299;stroke-miterlimit:10;" x1="409.571" y1="285.76" x2="455.212" y2="285.76"/>
				
					<line style="fill:none;stroke:#1B2536;stroke-width:0.4299;stroke-miterlimit:10;" x1="428.877" y1="306.313" x2="427.424" y2="282.133"/>
				<path style="fill:none;stroke:#1B2536;stroke-width:0.4299;stroke-miterlimit:10;" d="M423.434,282.616l0.809,11.815
					c0.138,2.015,1.813,3.579,3.833,3.579h0.302"/>
				<path style="fill:none;stroke:#1B2536;stroke-width:0.4299;stroke-miterlimit:10;" d="M445.76,282.616
					c0,0-1.406,14.911,10.903,15.395"/>
				<path style="fill:none;stroke:#1B2536;stroke-width:0.4299;stroke-miterlimit:10;" d="M415.294,283.1
					c0,0,0.328,14.719-8.5,15.298"/>
				
					<line style="fill:none;stroke:#1B2536;stroke-width:0.4299;stroke-miterlimit:10;" x1="417.712" y1="306.313" x2="439.474" y2="306.635"/>
				<polyline style="fill:none;stroke:#1B2536;stroke-width:0.4299;stroke-miterlimit:10;" points="422.628,306.635 
					402.801,352.818 394.58,404.402 				"/>
				
					<line style="fill:none;stroke:#1B2536;stroke-width:0.4299;stroke-miterlimit:10;" x1="453.201" y1="297.406" x2="466.958" y2="404.402"/>
			</g>
			<polygon style="fill:#1B2536;" points="409.571,284.213 455.62,290.314 454.707,280.118 409.571,280.924 			"/>
			<path style="fill:#D68D8D;" d="M395.869,256.986l-2.499,12.412l-17.087,34.255l-3.131,10.858c-0.329,1.141,0.527,2.28,1.716,2.28
				h7.189c1.136,0,2.022-0.983,1.904-2.113l-0.747-7.156l27.565-32.804l0.161-17.732H395.869z"/>
			<g>
				<path style="fill:none;stroke:#422424;stroke-width:0.3868;stroke-miterlimit:10;" d="M377.896,306.313
					c0,0,1.562,3.466-0.282,8.543h1.804c1.037,0,1.874,0.846,1.864,1.883l0,0.051"/>
				
					<line style="fill:none;stroke:#422424;stroke-width:0.3868;stroke-miterlimit:10;" x1="378.501" y1="311.551" x2="383.524" y2="311.551"/>
				
					<line style="fill:none;stroke:#422424;stroke-width:0.3868;stroke-miterlimit:10;" x1="381.482" y1="311.551" x2="382.62" y2="316.7"/>
				
					<line style="fill:none;stroke:#422424;stroke-width:0.3868;stroke-miterlimit:10;" x1="379.447" y1="311.551" x2="380.219" y2="315.043"/>
			</g>
			<path style="fill:#1B2536;" d="M394.628,263.153c0,0,4.251,3.023,16.207,5.601l0.107-11.769h-15.072L394.628,263.153z"/>
			<path style="fill:#6E9296;" d="M426.094,222.59c0,0,16.08,0.141,23.938,4.332c7.858,4.191,20.795,29.58,20.795,29.58
				l-15.475,0.967l3.194,22.569c0.229,1.617-1.026,3.061-2.659,3.061h-48.733c-4.917,0,1.531-4.03,1.531-4.03l-1.451-17.813
				c0,0-10.8,2.096-17.087-0.645l9.896-25.535c1.966-5.072,6.41-8.771,11.755-9.782L426.094,222.59z"/>
			<polygon style="fill:#496163;" points="431.041,218.741 435.421,223.219 427.847,232.201 423.857,227.547 421.319,231.839 
				415.788,224.222 419.324,220.716 			"/>
			
				<line style="fill:none;stroke:#1B2536;stroke-width:0.4299;stroke-miterlimit:10;" x1="446.87" y1="257.955" x2="443.987" y2="240.301"/>
			
				<line style="fill:none;stroke:#1B2536;stroke-width:0.4299;stroke-miterlimit:10;" x1="407.234" y1="261.257" x2="405.42" y2="240.301"/>
			
				<line style="fill:none;stroke:#1B2536;stroke-width:0.4299;stroke-miterlimit:10;" x1="424.488" y1="229.487" x2="428.877" y2="280.924"/>
			<g>
				<polygon style="fill:#FFFFFF;" points="444.176,277.297 417.091,277.297 413.578,245.262 440.663,245.262 				"/>
				<path style="fill:#D4780E;" d="M428.866,244.533c-0.19-0.936-1.049-1.671-2.008-1.671s-1.657,0.735-1.642,1.671h-2.739
					l0.245,2.237h9.128l-0.245-2.237H428.866z"/>
			</g>
			<g>
				<polygon style="fill:#6B89BF;" points="454.384,407.626 471.955,407.626 471.247,402.548 453.201,402.548 				"/>
				<polygon style="fill:#6B89BF;" points="399.048,402.548 380.356,402.548 379.749,407.626 398.126,407.626 				"/>
			</g>
			<g>
				<path style="fill:#D68D8D;" d="M467.564,256.706l-20.694,1.249l0.523,4.121l-19.795-3.468c0,0-2.273-5.299-8.416-6.048
					c-0.345-0.042-0.504,0.419-0.212,0.608c0.966,0.622,2.207,1.642,2.65,2.972l-5.279,0.201l-2.513-0.568
					c-0.431-0.098-0.832,0.253-0.793,0.694l0.543,6.061c0.067,0.75,0.625,1.359,1.366,1.496c0.9,0.167,2.373,0.339,4.701,0.378
					c3.99,1.894,7.012,1.33,7.012,1.33s11.647,8.624,27.081,12.171C469.174,281.448,470.263,269.761,467.564,256.706z"/>
				<path style="fill:none;stroke:#422424;stroke-width:0.3868;stroke-miterlimit:10;" d="M413.142,257.801
					c0,0,2.907,1.03,5.805,0.86"/>
				<path style="fill:none;stroke:#422424;stroke-width:0.3868;stroke-miterlimit:10;" d="M413.308,259.72
					c0,0,2.907,1.03,5.805,0.86"/>
				<path style="fill:none;stroke:#422424;stroke-width:0.3868;stroke-miterlimit:10;" d="M413.474,261.64
					c0,0,2.907,1.03,5.804,0.86"/>
				
					<line style="fill:none;stroke:#422424;stroke-width:0.3868;stroke-miterlimit:10;" x1="447.394" y1="262.076" x2="457.488" y2="263.555"/>
			</g>
			<path style="fill:#D68D8D;" d="M414.488,199.518c0,0-0.967,6.367-1.854,10.881c-0.887,4.514,0.967,8.544,6.69,8.302v3.627
				l4.513,4.594l7.657-6.287l-0.484-12.493c0,0-4.03-1.209-3.546-7.093L414.488,199.518z"/>
			<path style="fill:none;stroke:#422424;stroke-width:0.3868;stroke-miterlimit:10;" d="M420.089,218.741
				c0,0,4.312,0.04,6.529-3.546"/>
			<path style="fill:#D68D8D;" d="M433.337,211.315c-1.305,1.626-3.392,2.118-4.66,1.1c-1.268-1.018-1.238-3.162,0.068-4.787
				c1.306-1.626,3.392-2.118,4.66-1.1C434.673,207.546,434.643,209.689,433.337,211.315z"/>
			<path style="fill:none;stroke:#422424;stroke-width:0.3868;stroke-miterlimit:10;" d="M428.877,210.119
				c0.24-1.696,3.06-3.396,4.172-1.703"/>
			
				<line style="fill:none;stroke:#422424;stroke-width:0.3868;stroke-miterlimit:10;" x1="431.558" y1="210.309" x2="430.006" y2="208.392"/>
			<g>
				<path style="fill:#28364F;" d="M416.978,206.314l0.599,0.291c0.057-0.204,0.103-0.42,0.127-0.65
					c0.116-1.082-0.214-1.968-0.737-1.98c-0.523-0.012-1.041,0.856-1.157,1.938c-0.116,1.082,0.214,1.968,0.737,1.98
					c0.327,0.007,0.651-0.328,0.877-0.844L416.978,206.314z"/>
				<path style="fill:#28364F;" d="M422.604,206.441l0.599,0.291c0.057-0.204,0.103-0.42,0.128-0.65
					c0.116-1.082-0.214-1.968-0.737-1.98c-0.523-0.012-1.041,0.856-1.157,1.938c-0.116,1.082,0.214,1.968,0.737,1.98
					c0.326,0.007,0.651-0.328,0.877-0.844L422.604,206.441z"/>
			</g>
			<polyline style="fill:none;stroke:#422424;stroke-width:0.3868;stroke-miterlimit:10;" points="419.082,206.238 417.964,210.56 
				420.956,210.309 			"/>
			<path style="fill:none;stroke:#422424;stroke-width:0.3868;stroke-miterlimit:10;" d="M417.208,212.555
				c0,0,3.355,0.907,6.015-1.541"/>
			<path style="fill:#4A75C9;" d="M414.393,199.636l19.358,2.445c0,0,2.337-9.092-8.146-10.502
				C417.144,190.441,414.747,197.401,414.393,199.636z"/>
			<path style="fill:#6E9296;" d="M426,191.643c-0.133-0.021-0.258-0.046-0.395-0.064c-8.461-1.138-10.858,5.822-11.212,8.057
				l9.328,1.178L426,191.643z"/>
			<path style="fill:#1B2536;" d="M423.721,200.814l-18.18-2.304l0,0c0.134-0.919,0.978-1.561,1.899-1.447l16.632,2.092
				L423.721,200.814z"/>
		</g>
		<g>
			<path style="fill:#6E4C2E;" d="M127.99,273.543c0,0-2.379-3.521-7.396-2.191c-5.017,1.33-5.258,5.561-5.258,7.556
				c0,1.995,0.242,4.836-3.204,5.017c-3.446,0.181-4.292,3.022-4.292,4.655c0,1.632-0.242,4.232-2.418,5.38h17.712L127.99,273.543z"
				/>
			<path style="fill:#1B2536;" d="M123.972,290.435l3.756-15.789c-0.946,0.497-1.857,1.167-2.704,2.037
				C119.757,282.092,121.809,287.576,123.972,290.435z"/>
			<path style="fill:#1B2536;" d="M130.22,277.314c0,2.225-1.708,4.028-3.815,4.028c-2.107,0-3.815-1.803-3.815-4.028
				s1.708-4.028,3.815-4.028C128.512,273.286,130.22,275.09,130.22,277.314z"/>
			<path style="fill:#6E4C2E;" d="M144.775,280.298c-1.693-6.529-12.211-11.909-18.86-5.078c-6.649,6.831-1.632,13.783,0.544,15.415
				L144.775,280.298z"/>
			<polygon style="fill:#496163;" points="137.055,381.787 129.998,381.787 145.171,422.457 80.375,422.457 95.548,381.787 
				88.491,381.787 70.952,428.799 154.594,428.799 			"/>
			<path style="fill:#DE6767;" d="M150.275,401.822l-3.869,14.589l14.75,7.093l1.644,0.411c2.191,0.548,3.629,2.643,3.354,4.884l0,0
				h-36.35c-1.068,0-1.788-1.093-1.366-2.075l4.507-10.474l3.788-14.427H150.275z"/>
			<path style="fill:#1B2536;" d="M134.745,409.398l-1.799,6.851l-4.507,10.474c-0.422,0.981,0.297,2.075,1.366,2.075h36.35
				c0.276-2.241-1.163-4.336-3.354-4.884l-1.644-0.411l-14.75-7.093l1.86-7.012H134.745z"/>
			<path style="fill:#1B2536;" d="M179.474,360.659l21.337,43.501h-24.986c0,0-4.03-5.481-4.03-10.962
				c0-5.481-7.8-9.131-8.986-13.541c-1.186-4.41-9.229-15.314-9.229-15.314l-4.846-11.123h18.807
				C172.612,353.221,177.241,356.106,179.474,360.659z"/>
			<g>
				<path style="fill:#1B2536;" d="M95.548,381.787h-7.057l-5.369,14.391c1.733,1.41,3.725,2.49,5.875,3.168L95.548,381.787z"/>
				<polygon style="fill:#1B2536;" points="137.055,381.787 129.998,381.787 136.856,400.17 143.913,400.17 				"/>
			</g>
			<path style="fill:#496163;" d="M115.109,317.607l28.202,75.592H94.644c-7.076,0-13.408-4.396-15.881-11.025l-20.319-54.464
				c-1.825-4.892,1.792-10.102,7.014-10.102H115.109z"/>
			<path style="fill:#1B2536;" d="M140.386,385.358l-25.277-67.752H65.457c-0.859,0-1.669,0.153-2.425,0.411
				c0.065,0.615,0.208,1.236,0.437,1.852l20.319,54.464c2.473,6.63,8.805,11.025,15.881,11.025H140.386z"/>
			
				<line style="fill:none;stroke:#1B2536;stroke-width:0.4299;stroke-miterlimit:10;" x1="82.998" y1="379.375" x2="99.405" y2="379.375"/>
			<path style="fill:#4A6CAB;" d="M130.77,353.221h21.87c7.949,0,13.591,7.749,11.149,15.314L152.29,404.16h-24.341
				c0,0,1.29-4.997,4.03-7.415c2.74-2.418-0.791-5.803,0.733-9.511c1.352-3.29,2.901-4.168,3.458-7.254l-41.629,0
				c-8.463,0-19.102-12.694-3.748-35.907h37.479l-0.725,6.166L130.77,353.221z"/>
			<path style="fill:#1B2536;" d="M90.947,344.919c0,0,25.805,1.138,31.962,8.302h7.862l-3.224-2.982l0.725-6.166L90.947,344.919z"
				/>
			
				<line style="fill:none;stroke:#1B2536;stroke-width:0.4299;stroke-miterlimit:10;" x1="115.933" y1="353.221" x2="129.884" y2="353.221"/>
			<path style="fill:none;stroke:#1B2536;stroke-width:0.4299;stroke-miterlimit:10;" d="M104.253,344.073l-3.904,12.512
				c-0.702,2.25,0.979,4.535,3.335,4.535h38.38c3.781,0,6.506,3.626,5.453,7.258l-9.574,33.042"/>
			
				<line style="fill:none;stroke:#1B2536;stroke-width:0.4299;stroke-miterlimit:10;" x1="153.578" y1="360.515" x2="142.296" y2="367.89"/>
			
				<line style="fill:none;stroke:#1B2536;stroke-width:0.4299;stroke-miterlimit:10;" x1="154.749" y1="362.812" x2="140.764" y2="377.804"/>
			
				<line style="fill:none;stroke:#1B2536;stroke-width:0.4299;stroke-miterlimit:10;" x1="111.729" y1="354.349" x2="95.548" y2="365.472"/>
			
				<line style="fill:none;stroke:#1B2536;stroke-width:0.4299;stroke-miterlimit:10;" x1="105.664" y1="355.316" x2="93.816" y2="358.943"/>
			<path style="fill:none;stroke:#000000;stroke-width:0.4392;stroke-miterlimit:10;" d="M111.729,325.394
				c-2.942-5.83-5.219-10.579-5.219-10.579"/>
			<path style="fill:#D9956A;" d="M148.734,320.104c0,0-3.944-7.292-5.216-9.746c-1.316-2.539-2.613-6.183-12.889-9.568
				s-24.059-4.352-28.834,8.282c-4.776,12.634-8.826,29.56-8.826,29.56l-3.261,3.358c-1.063,1.094-0.287,2.929,1.238,2.929h38.051
				L148.734,320.104z"/>
			<path style="fill:#D65353;" d="M148.734,320.104l6.525,12.191l22.975,9.977c0,0,12.559-0.682,14.672,6.181h-49.388
				l-10.806-22.526L148.734,320.104z"/>
			<path style="fill:#1B2536;" d="M118.842,338.874c-2.051-3.637-10.493-20.277-10.493-20.277l4.828,20.295
				c0.841,3.533,3.998,6.027,7.63,6.027h2.711C121.917,343.504,120.355,341.557,118.842,338.874z"/>
			
				<line style="fill:none;stroke:#1B2536;stroke-width:0.4299;stroke-miterlimit:10;" x1="109.119" y1="334.279" x2="95.548" y2="340.647"/>
			<path style="fill:none;stroke:#1B2536;stroke-width:0.4299;stroke-miterlimit:10;" d="M134.196,309.496l-0.907,6.831
				c0,0,1.451,5.06,0,9.391"/>
			<path style="fill:#DE6767;" d="M130.992,285.981l2.75-6.166l11.032,0.484c0,0,0.484,1.451,0,3.627
				c-0.484,2.176-1.236,3.143-1.464,5.803c-0.229,2.66,0.195,10.458-9.115,9.43l-3.976,7.073c0,0-6.665,1.593-9.626-7.546
				L130.992,285.981z"/>
			<path style="fill:#DE6767;" d="M131.932,288.893c-0.407,1.916-2.502,3.094-4.679,2.632c-2.177-0.462-3.612-2.39-3.205-4.306
				c0.407-1.916,2.502-3.094,4.679-2.632C130.904,285.049,132.339,286.978,131.932,288.893z"/>
			<path style="fill:none;stroke:#422424;stroke-width:0.3868;stroke-miterlimit:10;" d="M126.458,286.283
				c0,0,2.325-0.645,3.762,2.781"/>
			
				<line style="fill:none;stroke:#422424;stroke-width:0.3868;stroke-miterlimit:10;" x1="127.063" y1="288.58" x2="128.616" y2="286.832"/>
			<circle style="fill:#D65353;" cx="133.289" cy="291.038" r="2.251"/>
			<path style="fill:none;stroke:#422424;stroke-width:0.3868;stroke-miterlimit:10;" d="M133.531,298.977
				c0,0-3.99-0.635-5.471-2.902"/>
			
				<line style="fill:none;stroke:#FFFFFF;stroke-width:0.4392;stroke-miterlimit:10;" x1="112.232" y1="288.781" x2="110.298" y2="293.96"/>
			
				<line style="fill:none;stroke:#FFFFFF;stroke-width:0.4392;stroke-miterlimit:10;" x1="115.569" y1="288.781" x2="113.635" y2="293.96"/>
			
				<line style="fill:none;stroke:#FFFFFF;stroke-width:0.4392;stroke-miterlimit:10;" x1="118.906" y1="288.781" x2="116.972" y2="293.96"/>
			
				<line style="fill:none;stroke:#FFFFFF;stroke-width:0.4392;stroke-miterlimit:10;" x1="122.243" y1="288.781" x2="120.309" y2="293.96"/>
			<g>
				<path style="fill:#1B2536;" d="M141.226,287.454l-0.614,0.244c-0.015-0.199-0.018-0.409,0.002-0.63
					c0.093-1.044,0.566-1.875,1.058-1.856c0.491,0.019,0.814,0.881,0.721,1.925c-0.093,1.044-0.566,1.875-1.057,1.856
					c-0.307-0.012-0.547-0.352-0.663-0.86L141.226,287.454z"/>
				<path style="fill:#1B2536;" d="M135.943,287.248l-0.614,0.244c-0.015-0.199-0.018-0.409,0.002-0.631
					c0.093-1.044,0.566-1.875,1.058-1.856c0.491,0.019,0.814,0.881,0.721,1.925c-0.093,1.044-0.566,1.875-1.057,1.856
					c-0.307-0.012-0.547-0.352-0.663-0.861L135.943,287.248z"/>
			</g>
			<path style="fill:none;stroke:#000000;stroke-width:0.4392;stroke-miterlimit:10;" d="M139.546,285.92
				c0,0-0.456,2.11,0.292,3.447c0.181,0.324-0.07,0.716-0.44,0.685l-1.364-0.113"/>
			<path style="fill:none;stroke:#422424;stroke-width:0.3868;stroke-miterlimit:10;" d="M140.18,292.096
				c0,0-2.539,0.846-5.591-0.725"/>
			<path style="fill:#6E4C2E;" d="M134.589,282.988c0.372-0.569,3.847,0.308,3.888,0.864
				C138.518,284.409,134.075,283.774,134.589,282.988z"/>
			<path style="fill:#6E4C2E;" d="M144.371,283.924c-0.313-0.603-3.858-0.076-3.955,0.474
				C140.32,284.948,144.804,284.757,144.371,283.924z"/>
			<path style="fill:none;stroke:#1B2536;stroke-width:0.4299;stroke-miterlimit:10;" d="M136.332,378.69
				c0.322-4.191-2.579-9.511,2.418-13.218"/>
			<path style="fill:#6B89BF;" d="M128.439,426.724c-0.422,0.981,0.297,2.075,1.366,2.075h36.35
				c0.124-1.007-0.113-1.976-0.594-2.797H128.75L128.439,426.724z"/>
			<path style="fill:#6B89BF;" d="M129.492,400.17c-1.041,2.048-1.542,3.99-1.542,3.99h24.341l1.288-3.99H129.492z"/>
			<path style="fill:#DE6767;" d="M130.22,318.597l7.723,15.683l32.643,10.397c0,0,11.002-2.66,16.926,3.99c0,0-45.337,0-51.382,0
				c-6.045,0-11.969-0.363-17.289-9.793c-2.289-4.057-4.891-9.077-7.113-13.48L130.22,318.597z"/>
			
				<line style="fill:none;stroke:#1B2536;stroke-width:0.4299;stroke-miterlimit:10;" x1="122.106" y1="302.121" x2="130.22" y2="318.597"/>
			<circle style="fill:none;stroke:#943232;stroke-miterlimit:10;" cx="126.715" cy="291.559" r="1.125"/>
		</g>
		<g>
			<g>
				<polygon style="fill:#496163;" points="239.338,428.267 149.093,428.267 176.309,355.316 239.338,355.316 				"/>
				<polygon style="fill:#1B2536;" points="174.648,359.769 239.338,383.365 239.338,355.316 176.309,355.316 				"/>
			</g>
			<path style="fill:#496163;" d="M239.338,356.606h-97.424c-2.192,0-3.97-1.777-3.97-3.97l0,0c0-2.193,1.777-3.97,3.97-3.97h97.424
				V356.606z"/>
		</g>
		
			<line style="fill:none;stroke:#28364F;stroke-width:1.2517;stroke-miterlimit:10;" x1="37.488" y1="428.799" x2="562.512" y2="428.799"/>
		<g>
			<path style="fill:none;stroke:#BEDCE0;stroke-width:1.2362;stroke-miterlimit:10;" d="M164.807,116.742h-61.356
				c-2.42,0-4.382,1.962-4.382,4.382v42.175c0,2.42,1.962,4.382,4.382,4.382h28.76c1.128,0,2.171,0.599,2.741,1.573L144.154,185
				c0.502,0.858,1.815,0.502,1.815-0.492v-13.653c0-1.753,1.421-3.174,3.174-3.174h15.663c2.42,0,4.382-1.962,4.382-4.382v-42.175
				C169.189,118.704,167.227,116.742,164.807,116.742z"/>
			<g>
				<path style="fill:#EBBC3B;" d="M146.67,137.061c2.517,7.292-1.354,15.244-8.646,17.761c-7.292,2.517-15.244-1.354-17.761-8.646
					c-2.517-7.292,1.354-15.244,8.646-17.761C136.201,125.898,144.153,129.769,146.67,137.061z"/>
				<path style="fill:#4A75C9;" d="M143.581,132.001c0.627,0.659,1.193,1.383,1.688,2.169c7.841-1.85,12.715-2.039,13.749-1.371
					c-0.592,1.714-8.876,7.107-24.306,12.433c-15.429,5.326-25.277,6.19-26.8,5.206c0.402-1.163,4.355-4.021,11.668-7.401
					c-0.095-0.924-0.097-1.844-0.009-2.749c-7.372,3.289-15.252,7.672-14.105,10.995c2.052,5.945,28.931-3.257,30.074-3.651
					c1.143-0.395,27.975-9.732,25.923-15.677C160.318,128.632,151.413,130.042,143.581,132.001z"/>
			</g>
		</g>
		<g>
			<path style="fill:#365896;" d="M242.214,332.152c0,0,11.123-27.807,45.216-47.876c0,0,8.704-22.679,21.165-30.572
				c4.171-2.642,9.279,1.718,7.47,6.312l-12.435,31.578h36.517L242.214,332.152z"/>
			<g>
				<path style="fill:#EBBC3B;" d="M339.417,163.377c-2.788-20.171-20.311-46.103-54.163-46.103
					c-33.852,0-51.375,25.932-54.163,46.103c-2.74,19.827,2.418,31.273,12.251,47.393c10.757,17.634,14.83,41.912,14.83,41.912
					h27.082h27.081c0,0,4.073-24.278,14.83-41.912C336.999,194.649,342.157,183.204,339.417,163.377z"/>
				<path style="fill:#1B2536;" d="M285.254,251.641c-11.888,0-22.394-0.565-28.532-1.423l5.409,37.276
					c0.163,1.125,10.515,2.025,23.123,2.025c12.608,0,22.96-0.9,23.123-2.025l5.409-37.276
					C307.648,251.077,297.142,251.641,285.254,251.641z"/>
				<ellipse style="fill:#1B2536;" cx="285.254" cy="285.403" rx="14.746" ry="10.518"/>
				<path style="fill:none;stroke:#FFFFFF;stroke-width:2;stroke-linecap:round;stroke-linejoin:round;stroke-miterlimit:10;" d="
					M299.657,205.772l2.527-17.329h-0.024c0.114-0.671,0.223-1.36,0.326-2.065c1.876-12.861,1.026-25.54-2.304-25.54
					c-2.067,0-4.286,5.166-5.832,12.36c-0.549-7.194-2.053-12.36-4.12-12.36c-2.066,0-3.928,5.166-4.976,12.36
					c-1.047-7.194-2.909-12.36-4.976-12.36c-2.066,0-3.57,5.166-4.12,12.36c-1.546-7.194-3.765-12.36-5.832-12.36
					c-3.33,0-4.18,12.68-2.304,25.54c0.103,0.705,0.212,1.394,0.326,2.065h0l2.503,17.329"/>
				<g>
					
						<line style="fill:none;stroke:#D4780E;stroke-width:3;stroke-miterlimit:10;" x1="260.113" y1="105.529" x2="249.889" y2="77.437"/>
					
						<line style="fill:none;stroke:#D4780E;stroke-width:3;stroke-miterlimit:10;" x1="238.005" y1="118.293" x2="218.789" y2="95.393"/>
					
						<line style="fill:none;stroke:#D4780E;stroke-width:3;stroke-miterlimit:10;" x1="221.595" y1="137.85" x2="195.706" y2="122.902"/>
					
						<line style="fill:none;stroke:#D4780E;stroke-width:3;stroke-miterlimit:10;" x1="212.864" y1="161.839" x2="183.423" y2="156.647"/>
					
						<line style="fill:none;stroke:#D4780E;stroke-width:3;stroke-miterlimit:10;" x1="285.254" y1="71.201" x2="285.254" y2="101.096"/>
					
						<line style="fill:none;stroke:#D4780E;stroke-width:3;stroke-miterlimit:10;" x1="320.619" y1="77.437" x2="310.395" y2="105.529"/>
					
						<line style="fill:none;stroke:#D4780E;stroke-width:3;stroke-miterlimit:10;" x1="351.719" y1="95.393" x2="332.503" y2="118.293"/>
					
						<line style="fill:none;stroke:#D4780E;stroke-width:3;stroke-miterlimit:10;" x1="374.802" y1="122.902" x2="348.913" y2="137.85"/>
					
						<line style="fill:none;stroke:#D4780E;stroke-width:3;stroke-miterlimit:10;" x1="387.084" y1="156.647" x2="357.644" y2="161.839"/>
				</g>
			</g>
			<g>
				<path style="fill:#4A75C9;" d="M288.397,373.5v-28.774l63.678-38.444c9.166-5.533,15.498-14.753,17.373-25.294l6.325-35.557
					c0.407-2.286-1.201-4.463-3.511-4.694c-3.738-0.374-9.278,0.662-13.502,8.236l0.58-18.766c0.076-2.463-2.064-4.412-4.509-4.106
					l-1.352,0.169c-7.616,0.952-13.332,7.427-13.332,15.103v31.539l-6.695-30.734c-0.497-2.28-3.16-3.312-5.063-1.962l-2.316,1.643
					c-5.504,3.903-8.184,10.689-6.831,17.3l5.908,28.867l-16.74-26.849c-0.939-1.506-3.061-1.688-4.242-0.363l0,0
					c-3.405,3.817-4.197,9.3-2.013,13.925l8.729,18.485l-12.815,11.848c0,0-62.142,5.078-62.142,41.348c0,15.717,0,27.082,0,27.082
					H288.397z"/>
				<polygon style="fill:#1B2536;" points="235.927,359.475 288.397,363.344 288.397,373.5 235.927,373.5 				"/>
				
					<path style="fill:none;stroke:#1B2536;stroke-width:0.7511;stroke-linecap:round;stroke-linejoin:round;stroke-miterlimit:10;" d="
					M326.258,289.519l0.925,1.25c2.773,3.745,2.31,8.972-1.078,12.172l-23.925,22.602"/>
				
					<path style="fill:none;stroke:#1B2536;stroke-width:0.7511;stroke-linecap:round;stroke-linejoin:round;stroke-miterlimit:10;" d="
					M340.867,277.505l0.825,3.907c1.773,8.395-0.823,17.117-6.897,23.178l-18.179,18.139"/>
				
					<path style="fill:none;stroke:#1B2536;stroke-width:0.7511;stroke-linecap:round;stroke-linejoin:round;stroke-miterlimit:10;" d="
					M358.761,251.875l-0.791,29.679c-0.214,8.034-3.866,15.591-10.028,20.751l-16.585,13.888"/>
				<rect x="226.98" y="366.004" style="fill:#BEDCE0;" width="77.376" height="29.741"/>
				<rect x="223.562" y="389.487" style="fill:#1B2536;" width="84.212" height="39.312"/>
				<line style="fill:none;stroke:#BEDCE0;stroke-miterlimit:10;" x1="272.713" y1="417.475" x2="272.713" y2="389.487"/>
				<path style="fill:none;stroke:#BEDCE0;stroke-miterlimit:10;" d="M286.278,397.841c0,2.27-1.84,4.111-4.111,4.111
					c-2.27,0-4.111-1.84-4.111-4.111c0-2.27,1.84-4.111,4.111-4.111C284.437,393.73,286.278,395.57,286.278,397.841z"/>
				<path style="fill:none;stroke:#BEDCE0;stroke-miterlimit:10;" d="M286.278,412.538c0,2.27-1.84,4.111-4.111,4.111
					c-2.27,0-4.111-1.84-4.111-4.111c0-2.27,1.84-4.111,4.111-4.111C284.437,408.427,286.278,410.267,286.278,412.538z"/>
			</g>
		</g>
		<g>
			<polygon style="fill:#BEDCE0;" points="160.535,289.255 143.518,334.866 206.547,334.866 223.563,289.255 			"/>
			
				<line style="fill:none;stroke:#4A75C9;stroke-width:0.7511;stroke-miterlimit:10;" x1="163.767" y1="289.255" x2="146.751" y2="334.866"/>
			<path style="fill:none;stroke:#FFFFFF;stroke-width:0.7511;stroke-miterlimit:10;" d="M194.762,309.416
				c-1.163,4.451-5.715,8.06-10.167,8.06s-7.117-3.608-5.953-8.06c1.163-4.451,5.715-8.06,10.166-8.06
				C193.26,301.356,195.925,304.965,194.762,309.416z"/>
			<polygon style="fill:#4A75C9;" points="173.323,321.782 174.648,335.118 206.547,335.118 191.751,321.782 			"/>
			<polygon style="fill:#BEDCE0;" points="191.751,321.782 201.702,348.453 183.273,348.453 173.323,321.782 			"/>
			
				<line style="fill:none;stroke:#4A75C9;stroke-width:0.7511;stroke-miterlimit:10;" x1="175.302" y1="321.782" x2="185.578" y2="348.667"/>
		</g>
		<g>
			<path style="fill:#4A75C9;" d="M456.43,149.844c0-12.623-12.336-22.856-27.553-22.856c-15.217,0-27.553,10.233-27.553,22.856
				c0,9.862,7.53,18.265,18.081,21.469c2.644,0.803,4.779,2.77,5.942,5.276l3.53,7.604l3.53-7.604
				c1.164-2.507,3.298-4.473,5.942-5.276C448.9,168.109,456.43,159.706,456.43,149.844z"/>
			<g>
				<path style="fill:#FFFFFF;" d="M418.758,149.553c0,1.379-1.118,2.498-2.498,2.498c-1.379,0-2.498-1.118-2.498-2.498
					c0-1.38,1.118-2.498,2.498-2.498C417.64,147.055,418.758,148.173,418.758,149.553z"/>
				<path style="fill:#FFFFFF;" d="M427.169,149.553c0,1.379-1.118,2.498-2.498,2.498c-1.379,0-2.498-1.118-2.498-2.498
					c0-1.38,1.118-2.498,2.498-2.498C426.051,147.055,427.169,148.173,427.169,149.553z"/>
				<path style="fill:#FFFFFF;" d="M435.58,149.553c0,1.379-1.118,2.498-2.498,2.498c-1.379,0-2.498-1.118-2.498-2.498
					c0-1.38,1.118-2.498,2.498-2.498C434.462,147.055,435.58,148.173,435.58,149.553z"/>
				<path style="fill:#FFFFFF;" d="M443.991,149.553c0,1.379-1.118,2.498-2.498,2.498c-1.379,0-2.498-1.118-2.498-2.498
					c0-1.38,1.118-2.498,2.498-2.498C442.873,147.055,443.991,148.173,443.991,149.553z"/>
			</g>
		</g>
	</g>
</g>
</svg>
