<?xml version="1.0" encoding="utf-8"?>
<!-- Generator: Adobe Illustrator 27.5.0, SVG Export Plug-In . SVG Version: 6.00 Build 0)  -->
<svg version="1.1" xmlns="http://www.w3.org/2000/svg" xmlns:xlink="http://www.w3.org/1999/xlink" x="0px" y="0px"
	 viewBox="0 0 750 500" style="enable-background:new 0 0 750 500;" xml:space="preserve">
<g id="BACKGROUND">
	<rect style="fill:#C7F7FF;" width="750" height="500"/>
</g>
<g id="OBJECTS">
	<g>
		<path style="fill:#9CE8EF;" d="M587.979,311.226c-12.956,20.872-32.919,35.439-55.862,43.734
			c-25.463,9.205-55.712,13.508-82.602,9.746c-22.736-3.187-47.393-15.061-56.644-37.429c-9.734-23.553,6.156-46.691,25.589-59.106
			c10.931-6.973,23.3-10.539,34.576-16.741c4.246-2.336,7.502-5.27,10.183-8.606c2.865-4.384,4.959-9.274,6.823-14.141
			c4.211-10.965,7.571-22.92,16.108-31.469c9.573-9.561,24.646-14.072,37.636-16.304c13.75-2.359,27.143,0.46,39.051,7.628
			C604.697,213.724,612.66,271.496,587.979,311.226z"/>
		<path style="fill:#9CE8EF;" d="M362.504,132.386c4.202,26.226-3.039,53.438-19.56,74.23c-18,22.667-45.184,34.507-70.602,46.731
			c-25.391,12.196-50.823,28.895-79.705,30.716c-26.65,1.697-52.767-11.525-67.468-33.741
			c-15.673-23.666-19.081-54.423-14.537-81.936c7.405-44.664,38.696-87.753,79.445-109.722
			c13.127-8.213,27.335-14.263,42.049-16.015c15.645-1.889,32.03,1.246,47.059,5.571c14.509,4.161,28.621,10.293,41.077,18.876
			C342.519,82.411,358.219,105.517,362.504,132.386z"/>
	</g>
	<g>
		<g>
			<path style="fill:#FFFFFF;" d="M515.463,76.968v138.373H344.358V76.968H515.463z M506.58,207.634V83.163H395.191v124.471H506.58z
				 M385.804,202.017v-31.873h-31.873v31.873H385.804z M385.804,160.962v-31.873h-31.873v31.873H385.804z M385.804,119.907V88.034
				h-31.873v31.873H385.804z"/>
			<rect x="395.191" y="83.163" style="fill:#80E7FF;" width="111.389" height="124.471"/>
			<rect x="353.931" y="170.144" style="fill:#C7F7FF;" width="31.873" height="31.873"/>
			<rect x="353.931" y="129.089" style="fill:#C7F7FF;" width="31.873" height="31.873"/>
			<rect x="353.931" y="88.034" style="fill:#C7F7FF;" width="31.873" height="31.873"/>
			<polygon style="fill:#CE3A64;" points="360.196,96.001 354.32,104.819 370.229,114.459 385.415,87.152 368.602,104.348 			"/>
			<polygon style="fill:#CE3A64;" points="360.196,135.341 354.32,144.158 370.229,153.798 385.415,126.492 368.602,143.688 			"/>
			<polygon style="fill:#CE3A64;" points="362.091,178.993 356.216,187.81 372.125,197.45 387.311,170.144 370.498,187.34 			"/>
		</g>
		<polygon style="fill:#CE3A64;" points="501.079,97.172 501.079,135.776 493.485,124.817 455.941,166.887 448.69,150.35 
			427.569,175.8 417.115,164.23 400.692,179.645 417.542,153.535 427.569,163.933 448.904,129.801 457.863,143.154 479.412,111.102 
			472.375,100.126 		"/>
	</g>
	<g>
		<g>
			<g>
				<path style="fill:#F4B276;" d="M292.95,164.926c-5.357-5.835-10.318-11.999-13.779-19.136c0.363-1.17,0.676-2.34,0.939-3.527
					c0.478-1.994,0.841-4.005,1.088-6.049c0.049-0.429,0.099-0.874,0.016-1.286c1.698,1.055,3.758,1.599,5.769,1.813
					c2.571,0.28,5.258,0.099,7.615-0.972c0.775-0.346,1.599-0.824,2.39-1.417c0.165,1.483,0.28,2.967,0.346,4.45
					c0.461,9.115-0.758,18.312-3.593,26.998c-0.214-0.297-0.461-0.56-0.742-0.824C292.966,164.959,292.95,164.942,292.95,164.926z"
					/>
				<path style="fill:#38AFB2;" d="M315.64,144.538c-2.74-0.415-5.817-0.232-8.103,0.106c-2.778-1.273-5.016-3.203-6.232-5.971
					c-1.129-0.039-2.952,0.328-4.061,0.56c-0.067-1.563-0.135-3.097-0.309-4.659c1.399-1.032,3.01-2.556,3.724-3.936
					c0-0.521,0.029-1.042,0.087-1.572c0.28-3.164,0.907-6.299,1.08-9.492c0.193-3.917-0.338-7.891-1.553-11.634
					c-1.495-4.611-4.351-9.145-8.827-11.055l-0.164,0.01c0.193,1.833-0.289,3.733-1.36,5.248c-2.749,4.023-8.759,4.929-11.209,9.145
					c-0.945,1.65-1.225,3.608-1.958,5.364c-0.029,0.087-0.087,0.193-0.116,0.28c-0.068,0.328-0.125,0.646-0.212,0.955
					c-0.347,1.408-0.974,2.74-1.833,3.917c0.318,1.505,0.617,2.981,0.945,4.486c0.54,2.402,1.206,4.872,2.788,6.772
					c0.646,0.762,2.585,1.679,3.425,2.18c0.627,1.254-0.28,1.013-0.338,1.466c-0.26,2.161-0.801,3.454-1.302,5.556
					c-0.907,0.434-2.518,1.37-3.405,1.91l-0.087-0.154c-8.296,4.698-18.136,7.206-27.647,7.785
					c-0.743-2.923,0.521-6.328,2.566-8.692c2.45-2.894,5.836-4.823,8.653-7.351c3.521-3.154,6.164-7.283,7.582-11.808
					c0.28-0.907,0.521-1.852,0.714-2.778c0.608-2.798,0.936-5.672,1.563-8.479c0.82-3.695,2.122-7.293,3.907-10.66
					c3.164-6.048,8.566-11.672,15.377-12.145c5.45-0.376,10.727,2.759,14.026,7.129c3.27,4.37,4.804,9.811,5.585,15.222
					c0.772,5.402,0.859,10.891,1.592,16.303C311.26,133.811,312.64,140.11,315.64,144.538z"/>
				<path style="fill:#FFCB97;" d="M297.242,134.347c-0.836,0.627-1.707,1.132-2.526,1.498c-2.491,1.132-5.33,1.324-8.048,1.028
					c-2.125-0.226-4.302-0.801-6.097-1.916c-0.836-0.505-1.603-1.132-2.247-1.899c-1.585-1.899-2.247-4.372-2.787-6.776
					c-0.331-1.498-0.627-2.979-0.941-4.477c0.854-1.184,1.481-2.508,1.829-3.919c0.087-0.314,0.139-0.627,0.209-0.958
					c0.035-0.087,0.087-0.192,0.122-0.279c0.732-1.759,1.01-3.71,1.951-5.365c2.456-4.215,8.466-5.121,11.218-9.145
					c1.063-1.515,1.55-3.414,1.359-5.243l0.157-0.017c4.477,1.916,7.333,6.445,8.831,11.061c1.219,3.745,1.742,7.717,1.55,11.636
					c-0.174,3.188-0.801,6.323-1.08,9.493c-0.052,0.523-0.087,1.045-0.087,1.568C299.942,132.013,298.636,133.32,297.242,134.347z"
					/>
				<path style="fill:#C1815D;" d="M288.399,123.252c-0.964-0.219-2.411-0.498-2.51-1.756c-0.048-0.606,0.69-1.796,0.885-2.408
					c0.558-1.755,0.919-3.545,1.151-5.37c0.098-0.768-1.083-1.087-1.182-0.308c-0.186,1.458-0.445,2.897-0.836,4.316
					c-0.326,1.184-1.295,2.767-1.355,3.958c-0.088,1.731,2.164,2.437,3.54,2.75C288.855,124.607,289.168,123.427,288.399,123.252z"
					/>
				<path style="fill:#FFFFFF;" d="M289.525,132.732c-2.295,0.439-5.64-0.317-5.75-3.199c-0.098-2.527,2.283-2.954,4.419-3.138
					c2.124-0.598,4.847-0.928,5.555,1.27C294.628,130.376,291.808,132.305,289.525,132.732z"/>
				<path style="fill:#34393D;" d="M296.137,111.569c-0.55-0.849-1.82-1.201-2.597-0.433c-0.803,0.793-0.81,2.534-0.376,3.496
					c0.135,0.3,0.347,0.55,0.593,0.735c0.701,0.667,1.787,0.596,2.354-0.294C296.711,114.131,296.746,112.508,296.137,111.569z"/>
				<path style="fill:#0E7F7F;" d="M296.985,108.143c-1.277-1.046-3.822-1.295-4.838,0.216c-0.201,0.299-0.023,0.644,0.223,0.834
					c0.392,0.301,0.996,0.195,1.493,0.163c0.987,0.177,2.038,0.725,2.97,0.511C297.83,109.639,297.592,108.641,296.985,108.143z"/>
				<path style="fill:#34393D;" d="M278.493,112.409c0.55-0.849,1.82-1.201,2.597-0.433c0.803,0.793,0.81,2.534,0.376,3.496
					c-0.135,0.3-0.347,0.55-0.593,0.735c-0.701,0.667-1.787,0.596-2.354-0.294C277.919,114.971,277.884,113.348,278.493,112.409z"/>
				<path style="fill:#0E7F7F;" d="M277.645,108.984c1.277-1.046,3.822-1.295,4.838,0.216c0.201,0.299,0.023,0.644-0.223,0.834
					c-0.392,0.301-0.996,0.195-1.493,0.163c-0.987,0.177-2.038,0.725-2.97,0.511C276.8,110.479,277.038,109.481,277.645,108.984z"/>
			</g>
			<g>
				<path style="fill:#FFFFFF;" d="M267.304,216.96c-1.516-1.714-0.181-4.945-1.203-7.12c15.839,0.165,31.695-0.313,47.485-1.467
					v0.016c1.17,2.555,2.291,5.752,0.593,8.01c-0.297,0.396-0.659,0.725-1.071,1.005c-1.203,0.808-2.785,1.104-4.269,1.302
					c-7.186,0.956-14.422,1.038-21.674,0.676c-5.686-0.247-11.356-0.775-17.01-1.352c-0.874-0.099-1.78-0.198-2.472-0.725
					C267.534,217.207,267.419,217.075,267.304,216.96z"/>
				<path style="fill:#FFCB97;" d="M399.111,149.284c0.692,0.511,0.165,1.582-0.412,2.209c-4.763,5.142-11.554,8.34-18.559,8.736
					c-0.445,0.016-0.906,0.016-1.335-0.082c-0.165-0.412-0.429-0.808-0.692-1.154c-0.626-0.824-1.335-1.582-2.126-2.258
					c-1.121-0.956-2.373-1.747-3.741-2.34c0.461-1.005,1.401-1.78,2.423-2.209c1.335-0.577,2.835-0.659,4.302-0.709
					c4.632-0.165,9.329-0.115,13.812-1.253c1.797-0.462,3.577-1.104,5.439-1.137C398.534,149.087,398.864,149.103,399.111,149.284z"
					/>
				<path style="fill:#E1E4EA;" d="M378.805,160.146c0.082,0.231,0.132,0.461,0.148,0.709c0.016,0.61-0.264,1.203-0.527,1.747
					c-4.417,8.95-10.12,17.174-15.79,25.382c-0.742,1.071-1.516,2.077-2.324,3.066l-4.088-2.439
					c2.209-2.703,3.626-5.983,5.175-9.148c3.758-7.714,8.389-14.999,13.763-21.69l0.824-1.038c0.791,0.676,1.5,1.434,2.126,2.258
					C378.377,159.338,378.64,159.734,378.805,160.146z"/>
				<path style="fill:#FFFFFF;" d="M311.393,191.94c-3.906-1.994-8.571-1.714-12.971-1.368c-5.406,0.412-10.796,0.824-16.202,1.253
					c-0.972,0.066-1.961,0.148-2.901-0.115c-0.939-0.264-1.813-0.939-2.044-1.895c-0.099-0.429-0.082-0.923-0.379-1.236
					c-0.297-0.33-0.808-0.363-1.253-0.33c-0.972,0.033-1.961,0.165-2.95,0.033c-0.972-0.148-1.961-0.626-2.406-1.5
					c-0.61-1.187-0.066-2.654-0.297-3.972c-0.181-0.956-0.758-1.78-1.17-2.654c-0.857-1.879-0.89-4.022-0.89-6.098
					c0-4.088,0.066-8.258-1.055-12.18c-1.137-3.923-3.692-7.664-7.499-9.148c-1.516-0.593-3.132-0.808-4.73-1.005
					c-1.055-0.132-2.126-0.264-3.181-0.412c-0.049-0.148-0.099-0.297-0.148-0.445c8.999-0.544,18.312-2.917,26.157-7.368
					l0.082,0.148c-3.181,1.879-6.131,4.318-8.373,7.153c-0.132,0.165-0.264,0.363-0.214,0.56c0.066,0.247,0.363,0.33,0.61,0.379
					c2.983,0.643,6.032,1.352,8.604,3c2.769,1.764,4.796,4.533,7.565,6.329c2.126,1.385,5.274,2.143,7.203,3.857
					c0,0.016,0.016,0.033,0.049,0.049c0.231,0.28,0.494,0.544,0.742,0.824c1.813-4.994,9.873-17.933,15.114-18.839
					c-0.709-0.956-1.417-1.912-2.126-2.868c2.159-0.313,5.077-0.494,7.664-0.099c1.566,0.231,3,0.676,4.088,1.401
					c1.928,1.302,3.263,3.329,4.533,5.307c5.175,8.043,10.351,16.07,15.526,24.113c0.874,1.368,1.829,2.785,3.296,3.461
					c0.989,0.478,2.225,0.593,2.934,1.434c0.709,0.874,0.709,2.308,1.698,2.835c1.17,0.643,2.456-0.593,3.23-1.681
					c5.901-8.422,11.801-16.828,17.718-25.251c0.511-0.725,1.088-1.5,1.945-1.764c0.725-0.214,1.516,0,2.209,0.264
					c0.231,0.082,0.462,0.181,0.676,0.28c1.368,0.593,2.621,1.385,3.741,2.34l-0.824,1.038c-5.373,6.692-10.005,13.977-13.763,21.69
					c-1.549,3.165-2.967,6.445-5.175,9.148c-0.313,0.379-0.643,0.758-0.989,1.121c-2.785,2.884-7.087,4.714-10.862,3.362
					c-1.45-0.511-2.637-1.417-3.741-2.489c-2.406-2.34-4.318-5.489-7.269-7.137c-1.417-0.775-3.033-1.187-4.351-2.126
					c-1.319-0.956-2.275-2.736-1.566-4.186c0.527-1.071,1.862-1.78,1.895-2.983c0.016-0.742-0.494-1.368-0.972-1.945
					c-5.653-6.56-12.015-12.526-18.938-17.735l-0.132,0.115c1.764,1.895,3.527,3.807,5.258,5.736c2.027,2.242,4.104,4.582,5.06,7.45
					c1.187,3.544,0.544,7.466-0.907,10.895c-0.28,0.643-0.577,1.269-0.89,1.895c-1.269,2.637-2.736,5.225-2.934,8.109l0.527,1.879
					c-1.253,0.725-2.456,1.516-3.659,2.307c-0.115-0.28-0.264-0.544-0.429-0.808L311.393,191.94z"/>
				<path style="fill:#E1E4EA;" d="M356.225,188.611l4.088,2.439c-3.494,4.236-7.433,7.796-10.647,12.444
					c-0.396,0.56-0.808,1.137-1.434,1.401c-0.89,0.346-1.879-0.066-2.753-0.478c-4.318-2.077-7.466-2.687-11.636-5.06l-0.066-0.115
					c1.203-0.692,2.34-1.467,3.445-2.308c0.527-0.412,1.071-0.857,1.335-1.467c0.28-0.61,0.214-1.417-0.313-1.83
					c-0.28-0.198-0.61-0.264-0.956-0.264l3.346-2.769c1.104,1.071,2.291,1.978,3.741,2.489c3.774,1.352,8.076-0.478,10.862-3.362
					C355.582,189.369,355.912,188.99,356.225,188.611z"/>
				<path style="fill:#E1E4EA;" d="M340.633,190.605l-3.346,2.769c-0.247,0-0.494,0.033-0.742,0.066
					c-2.39,0.346-4.796,0.742-7.203,1.005l-0.049-0.363c-1.17-1.005-2.159-2.159-3-3.445c0.593-0.56,1.17-1.121,1.747-1.698
					c0.297-0.297,0.61-0.742,0.379-1.104c-0.132-0.198-0.396-0.264-0.643-0.313c-1.78-0.313-3.61-0.198-5.373,0.181
					c-1.187-1.384-2.126-2.967-3.066-4.549c-0.511-0.857-1.005-1.714-1.516-2.571c0.313-0.626,0.61-1.253,0.89-1.895
					c1.45-3.428,2.093-7.351,0.907-10.895c-0.956-2.868-3.033-5.208-5.06-7.45c-1.731-1.928-3.494-3.84-5.258-5.736l0.132-0.115
					c6.922,5.208,13.285,11.175,18.938,17.735c0.478,0.577,0.989,1.203,0.972,1.945c-0.033,1.203-1.368,1.912-1.895,2.983
					c-0.709,1.45,0.247,3.23,1.566,4.186c1.319,0.939,2.934,1.352,4.351,2.126C336.314,185.117,338.226,188.265,340.633,190.605z"/>
				<path style="fill:#FFCB97;" d="M322.403,187.704c1.764-0.379,3.593-0.494,5.373-0.181c0.247,0.049,0.511,0.115,0.643,0.313
					c0.231,0.363-0.082,0.808-0.379,1.104c-0.577,0.577-1.154,1.137-1.747,1.698c-1.467,1.401-2.983,2.753-4.533,4.055
					c2.538,0.198,5.06,0.049,7.582-0.247c2.406-0.264,4.813-0.659,7.203-1.005c0.247-0.033,0.494-0.066,0.742-0.066
					c0.346,0,0.676,0.066,0.956,0.264c0.527,0.412,0.593,1.22,0.313,1.83c-0.264,0.61-0.808,1.055-1.335,1.467
					c-1.104,0.841-2.242,1.615-3.445,2.308c-5.901,3.511-12.823,5.274-19.68,4.994c-0.099-3.181-0.626-6.329-1.582-9.362
					c-0.214-0.676-0.445-1.352-0.758-1.994c1.203-0.791,2.406-1.582,3.659-2.307c1.236-0.725,2.522-1.385,3.873-1.912
					C320.294,188.265,321.332,187.935,322.403,187.704z"/>
				<path style="fill:#E1E4EA;" d="M266.1,209.84c-1.912-0.016-3.824-0.049-5.736-0.082c-1.467-0.033-3.016-0.099-4.236-0.907
					c-2.209-1.467-2.34-4.599-2.522-7.252c-0.494-7.73-3.263-15.18-3.741-22.91c-0.313-4.961,0.313-10.071-1.335-14.752
					c-0.429-1.236-1.022-2.439-1.121-3.741c-0.082-1.055,0.165-2.093,0.412-3.132c0.363-1.467,0.709-2.95,1.055-4.417
					c0.099-0.412,0.214-0.857,0.494-1.17c0.462-0.511,1.22-0.577,1.912-0.61c0.016,0,0.016,0,0.033,0
					c0.049,0.148,0.099,0.297,0.148,0.445c1.055,0.148,2.126,0.28,3.181,0.412c1.599,0.198,3.214,0.412,4.73,1.005
					c3.807,1.483,6.362,5.225,7.499,9.148c1.121,3.923,1.055,8.093,1.055,12.18c0,2.077,0.033,4.219,0.89,6.098
					c0.412,0.874,0.989,1.698,1.17,2.654c0.231,1.319-0.313,2.785,0.297,3.972c0.445,0.874,1.434,1.352,2.406,1.5
					c0.989,0.132,1.978,0,2.95-0.033c0.445-0.033,0.956,0,1.253,0.33c0.297,0.313,0.28,0.808,0.379,1.236
					c0.231,0.956,1.104,1.632,2.044,1.895c0.939,0.264,1.928,0.181,2.901,0.115c5.406-0.429,10.796-0.841,16.202-1.253
					c4.401-0.346,9.065-0.626,12.971,1.368l-0.066,0.132c0.165,0.264,0.313,0.527,0.429,0.808c0.313,0.643,0.544,1.319,0.758,1.994
					c0.956,3.033,1.483,6.181,1.582,9.362c0.066,1.368,0.033,2.753-0.099,4.121c-0.132,0-0.28,0.016-0.412,0.016
					C297.796,209.527,281.94,210.005,266.1,209.84z"/>
				<path style="fill:#E1E4EA;" d="M306.729,144.093c0.709,0.956,1.417,1.912,2.126,2.868c-5.241,0.907-13.301,13.845-15.114,18.839
					c2.835-8.686,4.055-17.883,3.593-26.998c1.286-0.264,3.23-0.56,4.104-0.28C302.575,141.159,304.092,142.889,306.729,144.093z"/>
				<path style="fill:#F4B276;" d="M293.741,165.799c-0.247-0.28-0.511-0.544-0.742-0.824
					C293.279,165.239,293.527,165.503,293.741,165.799z"/>
				<path style="fill:#E1E4EA;" d="M292.95,164.926c-1.928-1.714-5.077-2.472-7.203-3.857c-2.769-1.797-4.796-4.566-7.565-6.329
					c-2.571-1.648-5.62-2.357-8.604-3c-0.247-0.049-0.544-0.132-0.61-0.379c-0.049-0.198,0.082-0.396,0.214-0.56
					c2.242-2.835,5.192-5.274,8.373-7.153c0.841-0.511,1.698-0.972,2.555-1.384c-0.264,1.187-0.577,2.357-0.939,3.527
					C282.632,152.927,287.593,159.091,292.95,164.926z"/>
			</g>
			<g>
				<path style="fill:#16233A;" d="M292.604,319.001c-3.807,0.033-7.598,0.016-11.373-0.165c-3.626-0.165-7.219-0.478-10.779-0.989
					c-3.115-0.445-6.197-1.055-9.246-1.862c3.049-10.499,3.791-21.658,2.159-32.47c-0.808-5.34-2.176-10.565-2.95-15.905
					c-2.439-17.026,1.335-34.365,6.89-50.65c0.115,0.115,0.231,0.247,0.379,0.346c0.692,0.527,1.599,0.626,2.472,0.725
					c5.653,0.577,11.323,1.104,17.01,1.352l-0.033,0.659c3.527,1.335,7.038,2.654,10.565,3.989c2.093,0.775,4.252,1.599,5.884,3.132
					c3.89,3.626,3.593,9.988,1.566,14.916c-2.044,4.928-5.439,9.246-7.038,14.323c-0.742,2.34-1.088,4.879-0.544,7.269
					c0.445,1.912,1.417,3.659,2.472,5.307c4.236,6.609,10.186,12.889,10.466,20.735c0.379,10.911-10.268,18.921-13.779,29.239
					C295.356,318.968,293.972,319.001,292.604,319.001z"/>
				<path style="fill:#1D2D4F;" d="M306.432,318.77c-3.23,0.049-6.477,0.132-9.708,0.181c3.511-10.318,14.158-18.328,13.779-29.239
					c-0.28-7.845-6.23-14.125-10.466-20.735c-1.055-1.648-2.027-3.395-2.472-5.307c-0.544-2.39-0.198-4.928,0.544-7.269
					c1.599-5.077,4.994-9.395,7.038-14.323c2.027-4.928,2.324-11.29-1.566-14.916c-1.632-1.533-3.791-2.357-5.884-3.132
					c-3.527-1.335-7.038-2.654-10.565-3.989l0.033-0.659c7.252,0.363,14.488,0.28,21.674-0.676c1.483-0.198,3.066-0.494,4.269-1.302
					l0.791,0.115c4.516,8.768,5.522,18.856,6.445,28.679c0.89,9.329,1.78,18.691,1.566,28.069
					c-0.346,14.966-3.478,30.195,0.231,44.7c-1.846-0.099-3.708-0.165-5.571-0.198C313.206,318.688,309.811,318.704,306.432,318.77z
					"/>
				<path style="fill:#F4B276;" d="M316.569,319.364c1.879,22.185-2.242,44.469-8.307,65.896c-1.038,3.643-2.126,7.285-2.703,11.027
					c-0.775,4.862-0.659,9.807-0.527,14.752c-0.907,1.417-1.846,2.818-3.132,3.906c-0.445,0.396-0.939,0.742-1.467,1.022
					l-0.692-0.247c2.472-9.642,0.758-19.844,1.401-29.783c0.742-11.587,4.648-22.696,7.021-34.052
					c2.307-11.01,3.033-22.976-1.731-33.113c3.379-0.066,6.774-0.082,10.137,0V319.364z"/>
				<path style="fill:#FFCB97;" d="M306.432,318.77c4.763,10.137,4.038,22.103,1.731,33.113c-2.373,11.356-6.28,22.465-7.021,34.052
					c-0.643,9.939,1.071,20.141-1.401,29.783l0.692,0.247c-1.121,0.593-2.39,0.89-3.643,0.676c-2.571-0.445-4.285-2.851-5.587-5.126
					l-0.231-0.049c2.39-9.593,3.544-19.498,3.478-29.404c-0.016-3.906-0.231-7.829-0.198-11.735
					c0.049-7.565,1.038-15.114,2.934-22.432c0.972-3.725,2.176-7.466,2.192-11.323c0.033-5.736-2.538-11.257-2.439-16.993
					l-0.379-0.115c0.049-0.165,0.099-0.346,0.165-0.511C299.955,318.902,303.202,318.82,306.432,318.77z"/>
				<path style="fill:#16233A;" d="M305.031,411.037c0.099,3.527,0.214,7.071,0.033,10.598c-0.066,1.022-0.148,2.077-0.626,2.983
					c-0.791,1.5-2.489,2.275-4.137,2.654c-3.774,0.857-7.895,0.033-11.06-2.209l-0.115-0.115c0.082-0.082,0.148-0.148,0.214-0.231
					c0.692-0.808,0.808-1.945,0.874-3c0.214-3.082,0.297-6.181,0.247-9.279h0.28c0.082-0.33,0.165-0.643,0.231-0.972l0.231,0.049
					c1.302,2.275,3.016,4.681,5.587,5.126c1.253,0.214,2.522-0.082,3.643-0.676c0.527-0.28,1.022-0.626,1.467-1.022
					C303.185,413.856,304.125,412.455,305.031,411.037z"/>
				<path style="fill:#F4B276;" d="M292.604,319.001c-0.939,4.104-1.846,8.208-2.769,12.312c-0.676,3-1.352,6.016-1.483,9.098
					c-0.099,2.67,0.214,5.34,0.363,8.027c0.363,6.296-0.132,12.609-0.841,18.872c-0.626,5.489-1.417,11.01-0.939,16.532
					c0.297,3.395,1.071,6.725,1.698,10.087c1.071,5.835,1.681,11.735,1.813,17.652c0,0.016,0,0.016,0,0.016
					c-1.632,2.209-3.445,4.483-6.032,5.34c-0.247,0.082-0.511,0.148-0.758,0.198l-0.165-0.89c2.637-9.56,1.071-19.696-0.214-29.536
					c-1.78-13.466-2.983-27.163-1.154-40.628c0.626-4.549,1.599-9.065,1.813-13.664c0.198-4.582-0.396-9.345-2.72-13.318
					l0.016-0.264C285.005,319.017,288.796,319.034,292.604,319.001z"/>
				<path style="fill:#16233A;" d="M290.461,412.438c0.049,3.099-0.033,6.197-0.247,9.279c-0.066,1.055-0.181,2.192-0.874,3
					c-0.066,0.082-0.132,0.148-0.214,0.231c-0.725,0.692-1.797,0.956-2.818,1.121c-2.868,0.478-5.818,0.494-8.703,0.066
					c-1.401-0.214-2.917-0.61-3.708-1.78c-0.692-1.005-0.659-2.324-0.577-3.544c0.198-3.379,0.511-6.758,0.824-10.137
					c0.082,2.126,2.439,4.186,4.186,5.39c1.533,1.055,3.494,1.434,5.324,1.071c0.247-0.049,0.511-0.115,0.758-0.198
					c2.588-0.857,4.401-3.132,6.032-5.34C290.461,411.878,290.461,412.158,290.461,412.438z"/>
				<path style="fill:#FFCB97;" d="M281.214,319.1c2.324,3.972,2.917,8.736,2.72,13.318c-0.214,4.599-1.187,9.115-1.813,13.664
					c-1.83,13.466-0.626,27.163,1.154,40.628c1.286,9.84,2.851,19.976,0.214,29.536l0.165,0.89
					c-1.829,0.363-3.791-0.016-5.324-1.071c-1.747-1.203-4.104-3.263-4.186-5.39c0.33-3.676,0.643-7.335,0.808-11.01
					c0.527-11.851-0.577-23.751-3.263-35.305c-0.939-4.022-2.077-8.027-2.324-12.147c-0.363-5.736,1.005-11.422,1.912-17.092
					c0.907-5.686,1.319-11.686-0.857-17.01l0.033-0.264c3.56,0.511,7.153,0.824,10.779,0.989L281.214,319.1z"/>
			</g>
		</g>
		<path style="fill:#FFFFFF;" d="M249.814,118.458c-0.958,4.29-3.159,7.464-7.042,9.598c-3.091,1.696-6.454,2.933-9.93,3.86
			c1.991,4.268,4.584,8.218,7.758,11.762c0.256,0.287,0,0.701-0.362,0.626c-6.024-1.116-11.86-3.144-17.228-6.115
			c-0.535-0.302-3.076-1.938-5.157-3.702c-1.636,0.181-3.265,0.347-4.863,0.505c-5.632,0.573-11.317,0.875-16.972,0.362
			c-4.599-0.422-9.229-1.417-13.112-4.041c-7.736-5.21-11.053-14.439-12.848-23.192c-1.071-5.195-1.734-10.488-1.832-15.796
			c-0.083-4.795,0.143-9.794,1.734-14.363c2.858-8.188,10.262-12.252,18.307-14.114c3.438-0.799,6.959-1.357,10.503-1.742
			c7.774-1.485,15.705-2.126,23.622-1.847c4.931,0.173,10.284,0.354,14.876,2.345c4.388,1.892,6.748,5.534,8.52,9.809
			c3.921,9.47,4.645,19.92,5.014,30.046C250.991,107.789,250.976,113.226,249.814,118.458z"/>
	</g>
	<ellipse style="fill:#B5E1E5;" cx="387.955" cy="434.454" rx="278.292" ry="12.95"/>
	<g>
		<path style="fill:#7F7F7F;" d="M444.1,333.105h75.023c-7.719,4.559-16.627,7.074-25.589,7.236
			c-6.353,0.116-12.66-0.918-18.951-1.774c-10.004-1.35-20.101-2.253-29.912-4.621L444.1,333.105z"/>
		<g>
			<g>
				<path style="fill:#009391;" d="M523.746,264.405l0.274-0.008c2.202-1.376,4.405-2.753,6.607-4.129
					c0.587-0.364,1.206-0.742,1.896-0.813c0.695-0.068,1.482,0.28,1.671,0.947c0.189,0.638-0.201,1.285-0.591,1.824
					c-2.192,3.063-4.801,5.827-7.738,8.19c2.277-0.858,4.723-1.258,7.154-1.156c0.663,0.025,1.411,0.14,1.797,0.678
					c0.706,0.998-0.425,2.257-1.461,2.907c-3.378,2.126-7.073,3.749-10.922,4.804c2.264-0.418,4.61-0.407,6.868,0.038
					c0.387,0.821,0.136,1.831-0.408,2.559c-0.536,0.728-1.319,1.23-2.093,1.71c-2.611,1.597-5.313,3.032-8.099,4.305
					c2.607-0.658,5.362-0.73,7.994-0.212l-0.105,0.487c0.451,0.028,0.901,0.084,1.348,0.167c0.361,0.07,0.739,0.167,1.021,0.404
					c0.735,0.635,0.442,1.838-0.062,2.669c-1.426,2.338-3.923,3.78-6.348,5.065c-2.47,1.317-4.97,2.576-7.504,3.773
					c3.243-0.98,6.564-1.692,9.923-2.122c0.823-0.104,1.893-0.062,2.195,0.718c0.131,0.343,0.056,0.729-0.071,1.07
					c-0.486,1.308-1.668,2.204-2.81,3.007c-3.575,2.502-7.34,4.711-11.269,6.612l0.2,0.408c3.763-1.892,8.077-2.663,12.253-2.196
					c-0.571,2.396-2.442,4.248-4.303,5.868c-3.216,2.802-6.656,5.345-10.088,7.88c3.239-1.033,6.616-1.654,10.01-1.827
					c0.802-0.047,1.829,0.094,2.042,0.866c0.205,0.744-0.541,1.383-1.201,1.787c-4.402,2.74-8.936,5.274-13.572,7.603
					c3.813-0.191,7.747-0.358,11.333,0.95c0.561,0.203,1.144,0.473,1.435,0.991c0.354,0.63,0.15,1.457-0.307,2.019
					c-0.454,0.557-1.113,0.911-1.761,1.23c-6.015,2.972-12.639,4.489-19.218,5.829c-2.266,0.46-4.635,0.903-6.879,0.439
					c-0.12-0.023-0.237-0.052-0.351-0.084c-3.046-8.381-11.375-14.498-12.776-23.312c4.087,2.082,7.836,4.82,11.066,8.065
					c-1.132-3.968-2.261-7.941-3.39-11.915l-0.363-0.195c0.058-0.276,0.155-0.545,0.285-0.789c0.165-0.313,0.408-0.612,0.742-0.721
					c0.508-0.169,1.037,0.126,1.485,0.413c3.051,1.964,5.931,4.199,8.592,6.665c-0.83-1.538-1.892-2.957-2.709-4.513
					c-1.052-2.013-1.658-4.493-0.649-6.531c0.15-0.302,0.354-0.608,0.675-0.719c0.29-0.098,0.616-0.01,0.91,0.083
					c2.151,0.649,4.299,1.303,6.45,1.953c-1.878-2.996-3.284-6.298-4.16-9.73c-0.355-1.405-0.509-3.162,0.632-4.053
					c0.94-0.735,2.307-0.496,3.39-0.01c1.087,0.481,2.123,1.179,3.307,1.283c-0.709-2.636-1.418-5.272-1.999-7.944
					c-0.477-2.204-0.818-4.671,0.405-6.566c0.307-0.476,0.777-0.927,1.345-0.921c0.369,0.011,0.703,0.206,1.016,0.4
					c1.26,0.768,2.515,1.532,3.77,2.297c-0.094-4.935-1.966-10.033-0.275-14.668c0.185-0.516,0.436-1.033,0.885-1.339
					c0.859-0.576,2.066-0.101,2.781,0.65s1.14,1.737,1.844,2.501l1.425,0.101c0.304-3.903,1.018-7.772,2.147-11.524
					c0.148-0.506,0.479-1.132,1.005-1.049c0.219,0.038,0.402,0.202,0.56,0.361C522.685,259.642,523.687,262.008,523.746,264.405z"/>
				<path style="fill:#2AB5AA;" d="M507.605,309.391c5.029-13.792,9.918-27.637,14.872-41.456c0.253-0.706-0.833-1.133-1.086-0.425
					c-4.828,13.466-9.613,26.948-14.488,40.398c-4.88,13.465-10.32,26.94-19.834,37.871c-0.492,0.566,0.453,1.25,0.943,0.686
					C497.337,335.752,502.793,322.589,507.605,309.391z"/>
			</g>
			<g>
				<path style="fill:#009391;" d="M491.182,315.531c0.519,1.358-0.338,2.827-1.231,3.976c-5.565,7.176-13.999,12.067-22.993,13.344
					c-0.216-0.268-0.432-0.536-0.659-0.804c0.023-0.361,0.041-0.723,0.052-1.084c2.065-4.314,4.491-8.54,7.944-11.852
					c3.506-3.369,8.213-5.725,13.072-5.538C488.884,313.625,490.634,314.12,491.182,315.531z"/>
				<path style="fill:#009391;" d="M485.536,294.964c0.321,0.507,0.344,1.148,0.321,1.749c-0.239,6.552-4.445,12.329-9.309,16.731
					c-2.899,2.629-6.084,4.932-9.49,6.856c-0.787-3.008,0.105-6.22,1.33-9.082c2.689-6.284,7.075-11.822,12.576-15.886
					c0.694-0.513,1.429-1.009,2.275-1.178C484.084,293.991,485.069,294.241,485.536,294.964z"/>
				<path style="fill:#009391;" d="M482.631,281.306c0.198,2.011-0.554,3.993-1.476,5.795c-3.441,6.704-9.525,12.015-16.63,14.527
					c1.137-5.865,3.587-11.478,7.116-16.305c1.972-2.699,4.381-5.229,7.478-6.482c0.449-0.181,0.927-0.332,1.412-0.286
					C481.774,278.671,482.503,280.058,482.631,281.306z"/>
				<path style="fill:#009391;" d="M463.645,287.806c-0.047,0-0.087,0-0.134-0.006c-0.006-0.093-0.012-0.187-0.006-0.286h0.087
					c0.863-6.85,4.363-13.338,9.613-17.821c0.432-0.373,0.916-0.74,1.423-1.038c0.875-0.507,1.832-0.799,2.788-0.542
					c0.455,2.781-0.251,5.655-1.522,8.167c-1.272,2.518-3.086,4.71-4.958,6.815c-1.913,2.145-4.101,4.337-6.924,4.85
					C463.878,287.969,463.698,287.893,463.645,287.806z"/>
				<path style="fill:#009391;" d="M475.299,262.651c0.618,0.245,0.799,1.055,0.694,1.714c-0.222,1.463-1.312,2.647-2.461,3.585
					c-1.902,1.562-4.106,2.752-6.451,3.486c-0.758,0.233-1.569,0.426-2.345,0.233h-0.257c0.07-0.408,0.146-0.822,0.222-1.23
					c2.316-3.305,5.541-5.969,9.233-7.59C474.366,262.657,474.862,262.482,475.299,262.651z"/>
				<path style="fill:#009391;" d="M466.439,263.706c-0.053,0.163-0.105,0.326-0.158,0.49c-0.274-2.746-0.152-5.544,0.601-8.196
					c0.817-2.862,2.397-5.55,4.713-7.433c0.688-0.565,1.721-1.055,2.421-0.496c0.572,0.455,0.537,1.323,0.408,2.046
					c-0.91,5.264-3.698,10.178-7.746,13.664L466.439,263.706z"/>
				<path style="fill:#009391;" d="M466.299,332.046c-0.035,0.688-0.076,1.37-0.134,2.052c-5.168,0.443-10.359-0.962-15.142-2.991
					c-1.417-0.595-2.829-1.265-3.972-2.291s-1.995-2.466-1.995-4.005c0-0.6,0.14-1.218,0.478-1.714
					c0.776-1.131,2.333-1.37,3.704-1.323c3.605,0.128,7.081,1.545,10.044,3.603C461.948,327.219,464.228,329.557,466.299,332.046z"
					/>
				<path style="fill:#009391;" d="M466.142,319.169c0.035,0.548,0.07,1.096,0.093,1.644c-0.315,0.128-0.688,0.07-1.032,0
					c-4.835-0.968-9.543-2.594-13.952-4.815c-2.222-1.125-4.41-2.425-6.095-4.261c-1.692-1.831-2.852-4.267-2.706-6.756
					c0.041-0.635,0.175-1.294,0.577-1.784c0.373-0.455,0.939-0.711,1.505-0.863c2.368-0.641,4.876,0.28,6.999,1.492
					C457.719,307.364,462.082,313.275,466.142,319.169z"/>
				<path style="fill:#009391;" d="M464.503,301.756c0.029,0.309,0.058,0.618,0.093,0.921l-0.472,0.047
					c-3.698-0.705-7.285-1.988-10.593-3.783c-3.774-2.04-7.396-5.078-8.37-9.252c-0.233-1.003-0.268-2.163,0.408-2.944
					c0.916-1.061,2.613-0.863,3.937-0.391c3.301,1.178,6.125,3.445,8.44,6.069c2.316,2.629,4.171,5.626,6.014,8.604l0.461-0.047
					c0.023,0.222,0.047,0.443,0.07,0.659C464.491,301.68,464.497,301.721,464.503,301.756z"/>
				<path style="fill:#009391;" d="M463.511,271.582c0.029,0.175,0.064,0.344,0.093,0.519c-2.479-0.665-4.981-1.434-7.075-2.921
					c-2.088-1.481-3.739-3.801-3.803-6.36c-0.018-0.618,0.134-1.341,0.7-1.586c0.251-0.105,0.531-0.093,0.805-0.058
					c2.047,0.268,3.774,1.603,5.355,2.932c2.106,1.766,4.281,3.859,4.631,6.587l0.21,0.134c-0.14,0.221-0.28,0.443-0.42,0.665
					L463.511,271.582z"/>
				<path style="fill:#009391;" d="M457.474,276.893c2.561,3.253,4.538,6.96,5.804,10.901c-3.126-0.105-6.165-1.475-8.586-3.486
					c-2.636-2.204-4.585-5.13-6.084-8.22c-0.519-1.067-0.997-2.291-0.618-3.422c0.105-0.326,0.292-0.635,0.572-0.828
					c0.443-0.309,1.038-0.28,1.569-0.181C453.152,272.211,455.572,274.473,457.474,276.893z"/>
				<path style="fill:#009391;" d="M464.347,302.557c-1.307-13.306-1.423-26.855,2.84-39.679c0.237-0.712-0.893-1.004-1.129-0.294
					c-4.177,12.563-4.201,25.844-2.982,38.898c1.31,14.023,3.438,27.991,5.247,41.956c0.095,0.734,1.263,0.738,1.167-0.006
					C467.728,329.823,465.688,316.216,464.347,302.557z"/>
			</g>
			<g>
				<path style="fill:#2AB5AA;" d="M487.646,296.654c-0.023-0.058-0.053-0.117-0.087-0.175c0.945-2.921,2.689-5.585,5.005-7.596
					c1.277-1.113,2.759-2.04,4.41-2.408c0.554-0.122,1.172-0.169,1.645,0.146c0.723,0.484,0.735,1.539,0.525,2.384
					c-0.659,2.565-2.671,4.629-4.999,5.894c-1.954,1.067-4.13,1.644-6.329,2.081C487.762,296.87,487.71,296.765,487.646,296.654z"/>
				<path style="fill:#2AB5AA;" d="M498.483,277.819c0.029,2.029-1.067,3.947-2.531,5.352c-1.464,1.405-3.278,2.378-5.069,3.335
					c-0.647,0.35-1.289,0.694-1.937,1.038l-0.187-0.35c-0.175-0.233-0.344-0.461-0.525-0.694c1.61-3.76,3.681-7.52,7.134-9.677
					c0.455-0.28,0.945-0.536,1.476-0.595c0.531-0.052,1.114,0.14,1.406,0.589C498.436,277.107,498.477,277.469,498.483,277.819z"/>
				<path style="fill:#2AB5AA;" d="M485.942,309.286c0.064-0.437,0.128-0.874,0.192-1.318c1.382-1.994,2.963-3.853,4.701-5.544
					c1.534-1.492,3.371-2.926,5.512-2.991c0.332-0.006,0.671,0.017,0.974,0.157c0.706,0.315,1.027,1.183,0.933,1.953
					c-0.099,0.764-0.537,1.446-1.003,2.064c-2.701,3.568-6.953,5.923-11.409,6.325C485.872,309.718,485.907,309.502,485.942,309.286
					z"/>
				<path style="fill:#2AB5AA;" d="M497.427,323.213c0.029,0.63-0.274,1.224-0.618,1.755c-1.651,2.577-4.305,4.39-7.145,5.538
					c-2.835,1.154-5.88,1.696-8.901,2.18l-0.204-0.152c3.033-4.022,6.824-7.485,11.112-10.138c1.003-0.624,2.094-1.218,3.272-1.207
					C496.127,321.196,497.375,322.036,497.427,323.213z"/>
				<path style="fill:#2AB5AA;" d="M487.891,275.854c0.927-3.713,3.278-7.065,6.475-9.182c0.589-0.391,1.412-0.723,1.942-0.262
					c0.385,0.332,0.397,0.915,0.344,1.417c-0.239,2.268-1.283,4.442-2.899,6.051c-1.283,1.277-2.922,2.192-4.684,2.629
					c-0.449,0.117-0.91,0.198-1.377,0.245C487.745,276.449,487.815,276.151,487.891,275.854z"/>
				<path style="fill:#2AB5AA;" d="M487.879,266.97c-0.268,0.029-0.542,0.052-0.811,0.07c0.093-0.291,0.187-0.571,0.292-0.857
					c0.922-2.594,2.298-5.025,4.06-7.141c0.782-0.944,1.744-1.877,2.957-2.023c0.28-0.035,0.577-0.023,0.834,0.087
					c0.898,0.396,0.892,1.673,0.607,2.606C494.738,263.32,491.554,266.189,487.879,266.97z"/>
				<path style="fill:#2AB5AA;" d="M495.485,310.312c1.388,1.702,1.12,4.331-0.111,6.156c-1.225,1.825-3.208,2.996-5.203,3.923
					c-2.088,0.979-4.27,1.766-6.498,2.349c-0.093,0.023-0.204,0.017-0.309-0.017C486.975,318.194,491.04,314.026,495.485,310.312z"
					/>
				<path style="fill:#2AB5AA;" d="M492.796,249.096c0.525,0.286,0.776,0.933,0.735,1.533c-0.035,0.595-0.315,1.148-0.612,1.667
					c-1.522,2.6-3.885,4.704-6.655,5.905l-0.111,0.012c-0.006-0.111-0.018-0.222-0.035-0.332c1.382-2.746,2.112-5.923,4.311-8.056
					C491.064,249.207,492.014,248.682,492.796,249.096z"/>
				<path style="fill:#2AB5AA;" d="M487.727,285.846c-0.006,0.507-0.012,1.02-0.023,1.527c-0.064,0.099-0.158,0.181-0.257,0.239
					c-0.257,0.146-0.566,0.169-0.863,0.175c-1.697,0.029-3.371-0.379-4.964-0.95c-1.324-0.484-2.625-1.09-3.698-2
					c-1.073-0.909-1.913-2.145-2.135-3.539c-0.128-0.781,0.052-1.749,0.787-2.046c0.28-0.111,0.583-0.105,0.881-0.087
					c2.38,0.181,4.62,1.271,6.486,2.757C485.365,283.059,486.59,284.418,487.727,285.846z"/>
				<path style="fill:#2AB5AA;" d="M487.541,275.446c0.023,0.519,0.041,1.038,0.058,1.551c-2.053-0.064-4.101-0.338-6.008-1.078
					c-2.351-0.915-4.474-2.623-5.448-4.949c-0.157-0.373-0.286-0.787-0.175-1.178c0.152-0.519,0.706-0.839,1.242-0.886
					c0.537-0.041,1.067,0.14,1.569,0.338C482.151,270.555,485.184,272.712,487.541,275.446z"/>
				<path style="fill:#2AB5AA;" d="M487.348,296.1c-0.006,0.181-0.017,0.367-0.035,0.548c-1.995-0.064-3.978-0.478-5.827-1.213
					c-2.52-1.003-4.94-2.798-5.716-5.398c-0.297-1.014-0.175-2.373,0.805-2.775C481.101,288.726,485.027,291.955,487.348,296.1z"/>
				<path style="fill:#2AB5AA;" d="M486.905,265.693c0.041,0.449,0.076,0.898,0.117,1.347c-1.756,0.117-3.535,0.029-5.273-0.268
					c-1.102-0.187-2.211-0.466-3.191-1.014c-0.974-0.548-1.82-1.393-2.187-2.454c-0.07-0.198-0.122-0.408-0.082-0.612
					c0.076-0.402,0.472-0.659,0.857-0.81c1.382-0.53,2.957-0.233,4.346,0.286C483.528,262.924,485.394,264.137,486.905,265.693z"/>
				<path style="fill:#2AB5AA;" d="M485.4,252.168c0.07,0.49,0.134,0.979,0.198,1.469c-2.601-3.2-3.651-7.613-2.776-11.642
					c0.099-0.461,0.227-0.927,0.525-1.288c0.303-0.356,0.817-0.577,1.254-0.414c0.303,0.117,0.513,0.396,0.688,0.676
					c0.933,1.492,1.172,3.323,1.12,5.083c-0.053,1.761-0.379,3.498-0.478,5.258c-0.018,0.251-0.018,0.525,0.017,0.781L485.4,252.168
					z"/>
				<path style="fill:#2AB5AA;" d="M486.059,257.368c0.012,0.093,0.023,0.187,0.029,0.286l-0.262,0.029
					c-1.429,0.659-3.08,0.735-4.614,0.414c-1.54-0.321-2.975-1.02-4.311-1.848c-0.391-0.251-0.811-0.554-0.898-1.009
					c-0.14-0.752,0.677-1.312,1.406-1.533c1.68-0.513,3.541-0.396,5.139,0.326c1.499,0.67,2.753,1.871,3.506,3.329
					C486.053,257.368,486.059,257.368,486.059,257.368z"/>
				<path style="fill:#2AB5AA;" d="M485.657,308.663c-0.181,0.274-0.356,0.548-0.531,0.822l0.105,0.169
					c-0.146,0.047-0.338,0.047-0.49,0.012c-2.718-0.647-5.337-1.743-7.705-3.23c-1.837-1.143-3.634-2.693-4.083-4.809
					c-0.076-0.361-0.099-0.781,0.128-1.078c0.251-0.321,0.706-0.391,1.114-0.402c2.73-0.093,5.401,1.096,7.437,2.915
					C483.364,304.599,484.665,306.564,485.657,308.663z"/>
				<path style="fill:#2AB5AA;" d="M476.808,312.254c3.249,2.711,5.46,6.634,6.101,10.82c-3.43-1.294-6.585-3.317-9.198-5.894
					c-0.84-0.822-1.651-1.755-1.948-2.891c-0.303-1.137,0.052-2.524,1.085-3.084C474.125,310.505,475.694,311.327,476.808,312.254z"
					/>
				<path style="fill:#2AB5AA;" d="M479.83,331.468l-0.496,0.204c0.006,0.187,0.006,0.379,0.006,0.571
					c-4.381-2.244-9.379-3.585-12.902-7.019c-1.295-1.265-2.397-3.107-1.785-4.815c1.785-1.067,4.095-0.326,5.903,0.7
					C474.662,323.429,477.969,327.137,479.83,331.468z"/>
				<path style="fill:#009391;" d="M486.032,252.027c-0.131-0.74-1.257-0.433-1.127,0.302c5.167,29.21,2.29,59.46-8.233,87.192
					c-0.266,0.7,0.865,0.99,1.129,0.294C488.398,311.888,491.233,281.434,486.032,252.027z"/>
			</g>
		</g>
		<path style="fill:#FFFFFF;" d="M512.747,344.361c5.882,16.872,9.417,34.801,9.417,44.615c0,22.01-17.847,39.855-39.877,39.855
			c-22.031,0-39.893-17.844-39.893-39.855c0-9.813,3.535-27.735,9.417-44.607C451.811,344.369,481.746,354.251,512.747,344.361z"/>
		<path style="fill:#E1E4EA;" d="M519.308,333.105l-6.561,11.248v0.008c-31,9.89-60.935,0.008-60.935,0.008v-0.008l-7.14-10.415
			c9.811,2.368,19.908,3.271,29.912,4.621c6.291,0.856,12.598,1.89,18.951,1.774c8.962-0.162,17.87-2.677,25.589-7.236H519.308z"/>
	</g>
	<g>
		<path style="fill:#1E5D6B;" d="M301.921,231.73h-19.408c1.997,1.958,4.301,3.038,6.62,3.107c1.643,0.05,3.275-0.394,4.903-0.762
			c2.588-0.58,5.2-0.967,7.738-1.984L301.921,231.73z"/>
		<g>
			<path style="fill:#009391;" d="M293.183,220.827c-0.372,3.238-2.208,7.071-0.252,10.11c0.641,0.997,1.699,2.179,2.903,2.456
				c1.187,0.273,2.005-0.624,2.795-1.352c1.402-1.29,2.985-1.869,4.73-2.526c1.207-0.455,2.204-1.137,2.733-2.349
				c0.583-1.34,0.525-2.824,0.55-4.251c0.037-1.919,0.401-3.568,1.881-4.879c1.927-1.712,4.557-2.733,4.921-5.611
				c0.091-0.703,0.037-1.406-0.116-2.092c0.033-0.033,0.054-0.074,0.058-0.132c0.029-2.799-1.526-5.681-4.259-6.661
				c-2.729-0.976-5.673,0.194-7.054,2.692c-0.434,0.786-0.777,1.613-1.402,2.274c-0.521,0.558-1.212,0.926-1.898,1.236
				c-1.232,0.554-2.58,0.939-3.626,1.819c-1.116,0.939-1.683,2.274-1.782,3.709C293.241,217.122,293.394,218.966,293.183,220.827z"
				/>
			<path style="fill:#009391;" d="M275.87,217.54c1.067,2.737,3.767,4.214,5.392,6.554c1.005,1.447,1.257,2.849,1.038,4.569
				c-0.141,1.116-0.223,2.27,0.662,3.118c1.468,1.418,4.519,1.881,6.157,0.558c2.158-1.741,1.596-4.9,0.699-7.137
				c-0.608-1.518-1.443-2.936-1.948-4.495c-0.55-1.687-0.504-3.258,0.091-4.921c0.451-1.253,1.034-2.514,0.943-3.879
				c-0.07-1.083-0.55-2.067-1.228-2.903c-0.021-0.029-0.046-0.058-0.07-0.083c0.058-0.074,0.074-0.182-0.008-0.269
				c-1.108-1.162-2.382-2.15-3.817-2.882c-1.17-0.595-2.588-1.24-3.932-1.137c-3.527,0.269-1.522,4.28-2.419,6.335
				c-0.463,1.054-1.212,1.96-1.629,3.039C275.345,215.166,275.419,216.39,275.87,217.54z"/>
			<path style="fill:#FFFFFF;" d="M302.408,215.048c0.149-0.219,0.509-0.016,0.359,0.205c-4.071,6.016-6.642,12.933-7.468,20.151
				c-0.03,0.261-0.444,0.263-0.414-0.002C295.721,228.111,298.295,221.127,302.408,215.048z"/>
			<path style="fill:#FFFFFF;" d="M283.736,216.93c1.862,6.249,3.376,12.593,4.537,19.009c0.047,0.26-0.353,0.367-0.4,0.104
				c-1.161-6.416-2.675-12.76-4.537-19.009C283.26,216.779,283.66,216.674,283.736,216.93z"/>
			<path style="fill:#02827B;" d="M286.675,222.882c-0.488,1.323-0.926,2.568-0.504,3.974c0.753,2.489,3.167,4.271,5.549,5.024
				c0.207,0.066,0.31-0.182,0.211-0.323c2.543-0.116,4.689-1.914,5.681-4.296c0.595-1.427,0.711-2.894,0.806-4.42
				c0.066-1.075,0.17-2.15,0.657-3.13c0.376-0.757,0.968-1.381,1.53-2.001c0.819-0.897,1.642-1.824,1.935-3.031
				c0.323-1.344,0.017-2.746-0.455-4.015c-0.587-1.563-1.468-3.018-1.832-4.664c-0.339-1.538-0.136-3.176-0.682-4.673
				c-0.897-2.46-3.941-3.862-6.438-3.614c-2.336,0.232-4.027,1.939-4.313,4.242c-0.19,1.522,0.095,3.238-0.707,4.623
				c-0.72,1.253-2.154,1.881-2.791,3.205c-1.228,2.555,0.343,5.367,1.22,7.749C287.22,219.38,287.365,221.017,286.675,222.882z"/>
			<path style="fill:#FFFFFF;" d="M291.164,213.613c0.015-0.265,0.429-0.264,0.414,0.002c-0.432,7.483-0.091,14.987,1.026,22.399
				c0.039,0.26-0.361,0.368-0.4,0.104C291.081,228.67,290.73,221.133,291.164,213.613z"/>
		</g>
		<path style="fill:#3796AF;" d="M282.465,231.73l1.697,4.83v0.003c8.02,4.247,15.764,0.003,15.764,0.003v-0.003l1.847-4.472
			c-2.538,1.017-5.15,1.405-7.738,1.984c-1.628,0.368-3.259,0.812-4.903,0.762c-2.318-0.07-4.623-1.15-6.62-3.107H282.465z"/>
		<path style="fill:#9CE8EF;" d="M299.926,236.563l1.736,36.401c0.061,1.274-0.955,2.339-2.231,2.339h-15.757
			c-1.299,0-2.324-1.104-2.227-2.399l2.715-36.344C284.162,236.56,291.553,240.634,299.926,236.563z"/>
	</g>
	<g>
		<g>
			<path style="fill:#38AFB2;" d="M220.772,325.464c3.585,0,6.244,3.306,5.509,6.821l-0.752,3.498
				c-0.56,2.606-2.851,4.46-5.509,4.46h-0.315h-4.775h-16.038h-46.96h-8.15h-16.038h-3.498c-3.253,0-5.824-2.746-5.614-5.999
				c0.087-1.539,0.367-3.393,0.927-5.632c1.959-7.661-8.57-55.828-19.186-79.824c-1.662-3.725,1.067-7.905,5.142-7.905h52.015
				c2.361,0,4.46,1.469,5.282,3.673c4.058,10.809,15.269,43.847,13.8,74.962c-0.157,3.236,2.379,5.947,5.614,5.947H220.772z"/>
			
				<rect x="142.944" y="340.243" transform="matrix(-1 -4.488511e-11 4.488511e-11 -1 332.6951 687.2171)" style="fill:#1D2D4F;" width="46.807" height="6.731"/>
			
				<rect x="153.425" y="346.974" transform="matrix(-1 -4.484381e-11 4.484381e-11 -1 332.1201 699.7897)" style="fill:#16233A;" width="25.271" height="5.842"/>
			
				<rect x="163.64" y="352.816" transform="matrix(-1 -4.433932e-11 4.433932e-11 -1 332.6951 766.8752)" style="fill:#1D2D4F;" width="5.415" height="61.244"/>
			<g>
				<path style="fill:#16233A;" d="M128.299,421.504h4.943c0-2.735,2.224-4.976,4.976-4.976h25.654v4.976h4.943v-4.976h27.038
					c2.735,0,4.976,2.241,4.976,4.976h4.943c0-5.47-4.449-9.919-9.919-9.919h-57.635
					C132.747,411.585,128.299,416.034,128.299,421.504z"/>
			</g>
			
				<ellipse transform="matrix(0.353 -0.9356 0.9356 0.353 -265.1404 464.6855)" style="fill:#1D2D4F;" cx="203.437" cy="424.062" rx="5.776" ry="4.527"/>
			
				<ellipse transform="matrix(0.353 -0.9356 0.9356 0.353 -288.6908 430.6276)" style="fill:#1D2D4F;" cx="167.035" cy="424.062" rx="5.776" ry="4.527"/>
			
				<ellipse transform="matrix(0.353 -0.9356 0.9356 0.353 -312.046 396.852)" style="fill:#1D2D4F;" cx="130.935" cy="424.062" rx="5.776" ry="4.527"/>
		</g>
		<path style="fill:#0E1723;" d="M244.386,405.171c0.626-0.082,1.252-0.181,1.862-0.28c-0.346-1.73-0.676-3.493-0.956-5.272
			c1.483,0.049,2.966-0.049,4.432-0.313l0.033,0.181c2.191,6.805,5.108,13.725,10.627,18.256c2.471,2.043,5.437,3.542,7.513,5.997
			c0.28,0.33,0.577,0.758,0.461,1.186c-0.099,0.362-0.428,0.593-0.741,0.791c-2.274,1.368-4.976,2.027-7.645,1.862l-0.016-0.115
			c0.115-0.016,0.231-0.033,0.346-0.066c0.61-0.132,1.269-0.313,1.631-0.824c0.395-0.577,0.28-1.368-0.082-1.961
			c-0.362-0.593-0.939-1.005-1.499-1.417C253.893,418.336,248.423,412.157,244.386,405.171z"/>
		<path style="fill:#0E1723;" d="M260.352,423.197c0.56,0.412,1.137,0.824,1.499,1.417c0.362,0.593,0.478,1.384,0.082,1.961
			c-0.362,0.511-1.022,0.692-1.631,0.824c-0.115,0.033-0.231,0.049-0.346,0.066c-4.333,0.939-8.848,1.137-13.132,0.033
			c-2.323-0.593-4.548-1.549-6.673-2.653c-2.373-1.219-4.646-2.603-6.92-4.004c-3.641-2.208-7.266-4.432-10.891-6.64
			c-0.33-0.198-0.676-0.412-0.873-0.741c-0.231-0.362-0.231-0.807-0.247-1.236c-0.033-2.158-0.016-4.284,0.016-6.426
			c7.695,0.725,15.504,0.511,23.15-0.626C248.423,412.157,253.893,418.336,260.352,423.197z"/>
		<path style="fill:#16233A;" d="M244.386,405.171c-7.645,1.137-15.455,1.351-23.15,0.626c-0.148,0-0.28-0.016-0.428-0.033
			c-1.318-0.132-2.735-0.33-3.641-1.302c-0.824-0.873,3.707-32.986-0.082-45.607c-0.989-3.295-2.62-6.525-2.439-9.952
			c0.082-1.532,0.527-3.032,0.544-4.58c0-1.532-0.577-3.213-1.928-3.921c-0.956-0.478-2.158-0.428-2.982-1.087
			c-1.104-0.857-1.087-2.521-0.708-3.872c0.379-1.335,1.022-2.686,0.791-4.053c-6.047,0.758-20.184,0.643-26.264,1.219
			c-10.842,1.005-21.848,1.714-32.541-0.297c-2.785-0.527-5.618-1.269-7.909-2.949c-4.63-3.361-6.014-9.573-6.887-15.224
			l0.362-0.478c5.783,4.152,12.868,6.739,19.689,9.112c0.873,0.297,1.812,0.61,2.702,0.346c1.895-0.544,2.191-3.065,3.295-4.712
			c2.109-3.114,6.772-2.62,10.413-1.664c1.087,0.28,2.307,0.56,3.246-0.033c0.692-0.428,1.038-1.219,1.368-1.944
			c1.038-2.439,2.109-4.976,2.01-7.629c-0.099-2.356-1.12-4.679-0.708-6.986c0.033-0.198,0.082-0.412,0.148-0.593l0.939,0.28
			c2.768,0.132,5.816,0.33,9.013,0.61c14.45,1.302,32.228,4.103,44.289,7.53c1.087,0.313,2.224,0.659,3.098,1.401
			c1.12,0.956,1.648,2.439,2.076,3.855c1.549,5.19,2.389,10.529,2.883,15.916c0.478,5.404,0.61,10.842,0.692,16.262
			c0.28,17.136,0.231,36.858,3.015,54.208c0.28,1.779,0.61,3.542,0.956,5.272C245.638,404.99,245.012,405.089,244.386,405.171z"/>
		<path style="fill:#1D2D4F;" d="M251.29,398.976c-0.527,0.132-1.038,0.247-1.565,0.33c-1.466,0.264-2.949,0.362-4.432,0.313
			c-2.785-17.35-2.735-37.072-3.015-54.208c-0.082-5.421-0.214-10.858-0.692-16.262l4.894-0.494
			C248.736,351.903,247.632,376.683,251.29,398.976z"/>
		<path style="fill:#1D2D4F;" d="M246.479,328.654l-4.894,0.494c-0.494-5.388-1.335-10.726-2.883-15.916
			c-0.428-1.417-0.956-2.9-2.076-3.855c-0.873-0.741-2.01-1.087-3.098-1.401c-12.061-3.427-29.839-6.228-44.289-7.53v-0.066
			c-0.115-2.093-0.181-4.202-0.198-6.311c14.022,0.89,31.684,3.295,43.465,6.311c3.806,0.989,7.958,2.356,9.919,5.783
			c0.758,1.318,1.104,2.85,1.417,4.333C245.062,316.396,245.902,322.459,246.479,328.654z"/>
		<path style="fill:#FFFFFF;" d="M192.32,209.694c-0.132,0.33-0.264,0.659-0.428,0.989c-1.203,2.916-2.669,5.701-4.399,8.321
			c-0.066-0.198-0.132-0.395-0.214-0.577c-2.57-7.2-5.388-14.302-8.436-21.321c-0.428-1.022-0.89-2.076-0.89-3.196
			c0-0.049,0-0.115,0.016-0.165c0.033-1.071,0.61-2.175,1.615-2.521h0.066c0.132,0.461,0.445,0.89,0.824,1.17
			c0.28,0.379,0.544,0.741,0.824,1.12c2.125,2.9,4.234,5.783,6.36,8.667c0.873,1.186,1.747,2.373,2.57,3.608
			c0.807,1.236,1.582,2.504,2.241,3.823L192.32,209.694z"/>
		<path style="fill:#EAEAEA;" d="M236.609,255.251c0.346-0.231,0.708-0.412,1.137-0.494l0.264,0.115
			c0.807-2.06,1.779-4.037,2.9-5.915c5.717-1.417,11.435-2.933,17.119-4.548c0.807-0.231,1.697-0.544,2.043-1.302
			c0.247-0.577,0.099-1.252-0.28-1.763c8.683-2.9,17.284-6.047,25.802-9.408c0.198,4.877,0.412,9.738,0.61,14.615
			c-2.241-1.582-4.498-3.163-6.739-4.745c0.346,4.02,0.972,8.008,1.878,11.929c-4.729,0.478-9.458,1.071-14.153,1.779
			c-8.485,1.269-16.921,2.916-25.275,4.926c-0.231-0.099-0.494-0.099-0.758-0.115c-3.608-0.099-7.217-0.231-10.825-0.395v-0.115
			c1.417-0.626,2.719-1.45,3.905-2.455c0.264-0.198,0.527-0.428,0.774-0.676C235.522,256.191,236.016,255.647,236.609,255.251z"/>
		<path style="fill:#FFCB97;" d="M267.19,255.515c-0.61,1.499-1.236,2.982-1.862,4.465c-0.461,1.104-0.939,2.241-1.73,3.131
			c-0.972,1.087-2.307,1.73-3.625,2.323c-5.586,2.554-11.352,4.696-17.234,6.426c0.313-3.411,0.247-6.887-0.181-10.298
			c-0.033-0.346-0.099-0.708-0.346-0.939c-0.082-0.082-0.181-0.148-0.297-0.181C250.268,258.431,258.704,256.784,267.19,255.515z"/>
		<path style="fill:#F4B276;" d="M259.792,241.345c0.379,0.511,0.527,1.186,0.28,1.763c-0.346,0.758-1.236,1.071-2.043,1.302
			c-5.684,1.615-11.402,3.131-17.119,4.548c-1.12,1.878-2.093,3.855-2.9,5.915l-0.264-0.115c-0.428,0.082-0.791,0.264-1.137,0.494
			c-0.379-1.845-0.478-3.757-0.297-5.635c0.132-1.499,0.494-3.048,1.483-4.185c0.659-0.774,1.549-1.285,2.439-1.779
			c0.082-0.049,0.165-0.082,0.247-0.132c5.272-2.916,11.418-5.19,17.169-3.477c0.708,0.214,1.417,0.511,1.944,1.038
			C259.676,241.164,259.742,241.246,259.792,241.345z"/>
		<path style="fill:#16233A;" d="M189.717,278.253c-0.593-0.445-1.12-0.956-1.648-1.466c-0.807-0.791-1.631-1.565-2.439-2.356
			c-3.938-3.79-7.859-7.596-11.797-11.385c-2.801-2.702-5.602-5.404-8.205-8.288c-4.169-4.613-7.843-9.721-10.43-15.373
			c-2.125-4.663-3.46-10.248-1.087-14.796c0.923-1.747,2.34-3.196,3.888-4.416c3.938-3.065,8.947-4.762,13.939-4.745
			c2.537,0.807,4.564,2.488,6.294,4.515c0.016,0.016,0.016,0.016,0.016,0.033c1.747,2.043,3.18,4.465,4.531,6.755
			c1.812,3.081,3.674,6.129,5.618,9.128c1.812,2.834,3.707,5.618,5.684,8.321c1.73,2.389,3.542,4.712,5.421,6.97
			c0.807,0.956,1.615,1.895,2.439,2.834c1.335,1.516,2.768,3.015,4.613,3.839c1.582,0.708,3.345,0.857,5.075,0.989
			c6.228,0.478,12.456,0.84,18.701,1.12c3.608,0.165,7.217,0.297,10.825,0.395c0.264,0.016,0.527,0.016,0.758,0.115
			c0.115,0.033,0.214,0.099,0.297,0.181c0.247,0.231,0.313,0.593,0.346,0.939c0.428,3.411,0.494,6.887,0.181,10.298
			c-0.099,1.153-0.247,2.307-0.428,3.46c-0.099,0.56-0.214,1.137-0.626,1.516c-0.428,0.379-1.038,0.428-1.615,0.445
			c-15.076,0.708-30.169,1.433-45.245,2.142c-1.153,0.049-2.356,0.099-3.46-0.264C190.771,278.945,190.228,278.632,189.717,278.253z
			"/>
		<path style="fill:#1D2D4F;" d="M240.481,243.52c-0.082,0.049-0.165,0.082-0.247,0.132c-0.89,0.494-1.779,1.005-2.439,1.779
			c-0.989,1.137-1.351,2.686-1.483,4.185c-0.181,1.878-0.082,3.79,0.297,5.635c-0.593,0.395-1.087,0.939-1.598,1.433
			c-0.247,0.247-0.511,0.478-0.774,0.676l-0.461-0.527c-11.352-2.191-22.754-4.103-34.189-5.75l-0.082,0.066
			c-1.878-2.257-3.691-4.58-5.421-6.97l0.577-0.412c0.099-6.409,0.198-12.819,0.297-19.212h0.016
			c1.153,1.466,2.307,2.949,3.444,4.432c1.236,1.582,2.488,3.196,4.053,4.465c3.098,2.554,7.151,3.575,11.072,4.482
			C222.472,240.027,231.452,241.889,240.481,243.52z"/>
		<path style="fill:#FFFFFF;" d="M192.518,209.727c0.264-0.527,0.511-1.054,0.741-1.598l0.066,0.033
			c0.379-0.016,0.643,0.346,0.824,0.676c2.06,3.707,2.389,8.321,0.89,12.291c-0.956-3.444-1.895-6.887-2.85-10.314l-0.297-0.132
			c0.165-0.33,0.297-0.659,0.428-0.989l0.148-0.082C192.485,209.644,192.518,209.694,192.518,209.727z"/>
		<path style="fill:#ED356A;" d="M187.493,219.003c1.73-2.62,3.196-5.404,4.399-8.321l0.297,0.132
			c0.956,3.427,1.895,6.871,2.85,10.314l-0.56,0.61c0.478,0.758,0.478,1.73,0.478,2.636c0,0.066,0,0.115,0,0.181
			c-0.099,6.393-0.198,12.802-0.297,19.212l-0.577,0.412c-1.977-2.702-3.872-5.487-5.684-8.321l0.84-0.544
			c0.412-5.47-0.198-11.023-1.779-16.262C187.476,219.036,187.493,219.02,187.493,219.003z"/>
		<path style="fill:#0E1723;" d="M187.46,219.053c1.582,5.24,2.191,10.792,1.779,16.262l-0.84,0.544
			c-1.944-2.999-3.806-6.047-5.618-9.128c-1.351-2.29-2.785-4.712-4.531-6.755c0-0.016,0-0.016-0.016-0.033
			c-2.686-6.393-5.305-12.819-7.876-19.245c-0.346-0.873-0.692-1.895-0.461-2.768c0.049-0.198,0.132-0.379,0.247-0.56
			c0.346-0.527,0.923-0.84,1.483-1.12c1.994-0.989,4.053-1.829,6.162-2.521l0.181,0.016c-0.016,0.049-0.016,0.115-0.016,0.165
			c0,1.12,0.461,2.175,0.89,3.196c3.048,7.019,5.866,14.12,8.436,21.321C187.344,218.624,187.41,218.838,187.46,219.053z"/>
		<path style="fill:#E1E4EA;" d="M189.239,300.381v0.066c-3.196-0.28-6.245-0.478-9.013-0.61l-0.939-0.28
			c0.395-1.384,1.219-2.62,1.911-3.872c0.346-0.626,0.659-1.269,0.939-1.911c2.158,0.049,4.482,0.148,6.904,0.297
			C189.058,296.179,189.124,298.288,189.239,300.381z"/>
		<path style="fill:#E1E4EA;" d="M189.717,278.253c-0.511,5.256-0.741,10.545-0.676,15.817c-2.422-0.148-4.745-0.247-6.904-0.297
			c2.587-5.849,2.9-12.539,3.147-18.981l0.346-0.362c0.807,0.791,1.631,1.565,2.439,2.356
			C188.597,277.297,189.124,277.808,189.717,278.253z"/>
		<path style="fill:#1D2D4F;" d="M171.939,215.428c-4.992-0.016-10.001,1.681-13.939,4.745c-1.549,1.219-2.966,2.669-3.888,4.416
			c-2.373,4.548-1.038,10.133,1.087,14.796c2.587,5.651,6.261,10.759,10.43,15.373c2.603,2.883,5.404,5.586,8.205,8.288
			c3.938,3.79,7.859,7.596,11.797,11.385l-0.346,0.362c-0.247,6.442-0.56,13.132-3.147,18.981c-0.28,0.643-0.593,1.285-0.939,1.911
			c-0.692,1.252-1.516,2.488-1.911,3.872c-0.066,0.181-0.115,0.395-0.148,0.593c-0.412,2.307,0.61,4.63,0.708,6.986
			c0.099,2.653-0.972,5.19-2.01,7.629c-0.33,0.725-0.676,1.516-1.368,1.944c-0.939,0.593-2.158,0.313-3.246,0.033
			c-3.641-0.956-8.304-1.45-10.413,1.664c-1.104,1.648-1.401,4.169-3.295,4.712c-0.89,0.264-1.829-0.049-2.702-0.346
			c-6.821-2.373-13.906-4.959-19.689-9.112c-2.537-1.812-4.828-3.938-6.722-6.492c-2.274-3.032-3.888-6.904-2.933-10.578
			c0.362-1.4,1.005-3.114-0.049-4.103c-0.362-0.346-0.857-0.494-1.236-0.807c-0.923-0.725-1.022-2.109-0.643-3.213
			c0.379-1.104,1.137-2.01,1.747-3.015c2.439-3.938,2.422-8.864,2.653-13.494c1.433-28.834,16.196-56.745,39.231-74.161l0.725,0.132
			c-0.231,0.873,0.115,1.895,0.461,2.768c2.57,6.426,5.19,12.852,7.876,19.245C176.503,217.916,174.476,216.235,171.939,215.428z"/>
		<g>
			<path style="fill:#38AFB2;" d="M215.19,175.011c-1.648,0.544-3.427,0.791-5.157,0.89c-2.109,0.132-4.383,0.099-6.096,1.351
				c-1.335,0.956-2.076,2.504-2.719,4.02c-0.626,1.532-1.219,3.114-2.373,4.284s-3.048,1.779-4.465,0.939
				c-1.137-0.676-1.615-2.027-2.142-3.246c-0.511-1.203-1.318-2.504-2.62-2.735c-1.219-0.198-2.406,0.676-3.032,1.747
				c-0.61,1.087-0.807,2.34-1.104,3.542c-0.643,2.537-1.862,4.91-3.51,6.937c-0.016,0-0.016,0-0.016,0.016
				c-0.478,0.148-1.038-0.016-1.483-0.362c-0.379-0.28-0.692-0.708-0.824-1.17c-0.297-1.104,0.082-2.29,0.28-3.427
				c0.379-2.241,0.016-4.58-0.989-6.607c-0.774-1.565-1.977-3.065-1.911-4.811c0.033-1.598,1.137-2.949,1.878-4.366
				c0.708-1.368,1.137-2.9,1.203-4.432c0.066-1.219-0.066-2.439,0.148-3.625c0.428-2.29,2.191-4.202,4.3-5.207
				c2.109-1.005,4.531-1.203,6.854-1.022c3.526,0.264,7.134,1.335,10.479,0.231c1.137-0.362,2.175-0.956,3.312-1.285
				c3.823-1.071,7.975,1.318,10.018,4.712c0.725,1.186,1.417,2.653,2.768,2.999c1.285,0.346,2.999-0.362,3.773,0.725
				c0.198,0.28,0.28,0.626,0.33,0.956c0.395,2.9-1.335,5.8-3.74,7.447C217.381,174.17,216.31,174.665,215.19,175.011z"/>
			<path style="fill:#FFCB97;" d="M181.973,192.74c1.648-2.027,2.867-4.399,3.51-6.937c0.297-1.203,0.494-2.455,1.104-3.542
				c0.626-1.071,1.812-1.944,3.032-1.747c1.302,0.231,2.109,1.532,2.62,2.735c0.527,1.219,1.005,2.57,2.142,3.246
				c1.417,0.84,3.312,0.231,4.465-0.939s1.747-2.752,2.373-4.284c0.643-1.516,1.384-3.065,2.719-4.02
				c1.714-1.252,3.987-1.219,6.096-1.351c1.73-0.099,3.51-0.346,5.157-0.89c0.758,4.3-0.148,8.881-2.455,12.588
				c0.264,2.735,0.445,5.47,0.544,8.222c0,0.28,0.016,0.577-0.148,0.807c-0.181,0.264-0.527,0.362-0.84,0.428
				c-0.89,0.181-1.796,0.264-2.702,0.264v0.165c-1.384,2.883-3.065,5.618-5.042,8.139c-1.087,1.4-2.603,2.867-4.35,2.62
				c-0.544-0.082-1.054-0.313-1.516-0.593c-1.499-0.857-2.785-2.093-3.691-3.559l-0.016,0.016c-0.692-1.648-1.483-3.262-2.356-4.811
				c-0.214-0.395-0.478-0.807-0.906-0.972c-0.346,0.593-0.494,1.285-0.61,1.961c-0.362,1.812-0.643,3.658-0.873,5.503
				c-0.824-1.236-1.697-2.422-2.57-3.608c-2.125-2.883-4.234-5.767-6.36-8.667c0.214-0.247,0.445-0.494,0.659-0.758
				C181.957,192.74,181.957,192.74,181.973,192.74z"/>
			<path style="fill:#F4B276;" d="M194.973,204.108C195.039,204.257,194.924,203.944,194.973,204.108l-0.28,0.643
				c-0.461,1.137-0.939,2.257-1.433,3.378c-0.231,0.544-0.478,1.071-0.741,1.598c0-0.033-0.033-0.082-0.049-0.115
				c-0.659-1.318-1.433-2.587-2.241-3.823c0.231-1.845,0.511-3.691,0.873-5.503c0.115-0.676,0.264-1.368,0.61-1.961
				c0.428,0.165,0.692,0.577,0.906,0.972C193.49,200.846,194.281,202.461,194.973,204.108z"/>
			<path style="fill:#38AFB2;" d="M208.39,180.968c1.063-0.217,2.088,0.047,2.926,0.632c0.925,0.554,1.971,1.501,1.074,2.294
				c-0.577,0.51-1.302-0.002-1.875-0.215c-0.444-0.165-0.903-0.291-1.368-0.379c-0.479-0.091-1.009-0.043-1.477-0.174
				c-0.485-0.136-0.94-0.521-0.811-1.081C207.008,181.402,207.826,181.084,208.39,180.968z"/>
			<path style="fill:#34393D;" d="M207.481,185.715c0.574-0.699,1.38-1.753,2.412-1.583c0.668,0.11,0.984,0.491,1.072,0.982
				c0.097,0.14,0.135,0.323,0.066,0.54c-0.044,0.137-0.088,0.279-0.132,0.42c-0.044,0.171-0.102,0.343-0.173,0.513
				c-0.231,0.668-0.529,1.31-1.115,1.735c-0.676,0.49-1.634,0.566-2.285-0.025C206.484,187.535,206.863,186.468,207.481,185.715z"/>
			<path style="fill:#34393D;" d="M204.906,201.967c-1.481-0.524-3.348-1.558-4.009-3.065c-0.298-0.681-1.299-0.102-1.003,0.572
				c0.783,1.788,2.971,2.991,4.721,3.611C205.315,203.333,205.604,202.214,204.906,201.967z"/>
		</g>
	</g>
	<g>
		<g>
			<path style="fill:#38AFB2;" d="M375.021,325.464c-3.585,0-6.244,3.306-5.509,6.821l0.752,3.498c0.56,2.606,2.851,4.46,5.509,4.46
				h0.315h4.775h16.038h46.96h8.15h16.038h3.498c3.253,0,5.824-2.746,5.614-5.999c-0.087-1.539-0.367-3.393-0.927-5.632
				c-1.959-7.661,8.57-55.828,19.186-79.824c1.662-3.725-1.067-7.905-5.142-7.905h-52.015c-2.361,0-4.46,1.469-5.282,3.673
				c-4.058,10.809-15.269,43.847-13.8,74.962c0.157,3.236-2.379,5.947-5.614,5.947H375.021z"/>
			<rect x="406.042" y="340.243" style="fill:#1D2D4F;" width="46.807" height="6.731"/>
			<rect x="417.098" y="346.974" style="fill:#16233A;" width="25.271" height="5.842"/>
			<rect x="426.738" y="352.816" style="fill:#1D2D4F;" width="5.415" height="61.244"/>
			<g>
				<path style="fill:#16233A;" d="M467.495,421.504h-4.943c0-2.735-2.224-4.976-4.976-4.976h-25.654v4.976h-4.943v-4.976h-27.038
					c-2.735,0-4.976,2.241-4.976,4.976h-4.943c0-5.47,4.449-9.919,9.919-9.919h57.635
					C463.046,411.585,467.495,416.034,467.495,421.504z"/>
			</g>
			
				<ellipse transform="matrix(0.9356 -0.353 0.353 0.9356 -124.4478 165.8266)" style="fill:#1D2D4F;" cx="392.356" cy="424.062" rx="4.527" ry="5.776"/>
			
				<ellipse transform="matrix(0.9356 -0.353 0.353 0.9356 -122.1037 178.6782)" style="fill:#1D2D4F;" cx="428.758" cy="424.062" rx="4.527" ry="5.776"/>
			
				<ellipse transform="matrix(0.9356 -0.353 0.353 0.9356 -119.7791 191.4232)" style="fill:#1D2D4F;" cx="464.859" cy="424.062" rx="4.527" ry="5.776"/>
		</g>
		<g>
			<path style="fill:#16233A;" d="M402.726,315.621c-0.873-0.708-1.648-1.516-2.34-2.406c-1.12-1.45-2.191-3.279-4.004-3.559
				c-2.373-0.379-4.185,2.191-4.597,4.564c-0.395,2.356-0.066,4.91-1.087,7.085c-0.214,0.445-0.494,0.89-0.923,1.17
				c-1.038,0.676-2.422,0.099-3.46-0.577c-2.587-1.697-4.679-4.02-7.101-5.948c-4.828-3.855-11.006-6.014-17.185-6.014l-0.445-0.741
				c2.455-1.516,4.976-2.883,7.497-4.267c10.034-5.47,20.052-10.94,30.07-16.411c0.033,0.016,0.082,0.049,0.115,0.082
				c4.992,3.477,11.352,4.531,17.416,4.136c6.08-0.395,11.962-2.142,17.795-3.888c2.537-0.758,5.19-1.582,7.068-3.444
				c1.153-1.153,1.977-2.636,3.279-3.625c0.676-0.527,1.532-0.956,2.307-1.433c0.165,0.181,0.297,0.379,0.428,0.577l-0.115,0.082
				c-5.503,3.938-6.03,12.127-10.759,16.971c-1.648,1.697-4.317,2.916-6.327,1.648c-0.395-0.247-0.774-0.593-1.236-0.643
				c-0.708-0.082-1.285,0.511-1.697,1.104c-1.615,2.257-2.933,5.256-5.651,5.816c-2.768,0.577-5.19-1.697-7.464-3.361
				c-3.411-2.504-7.596-3.938-11.83-4.037c-0.494-0.016-1.071,0.016-1.417,0.379c-0.379,0.395-0.362,1.022-0.28,1.565
				c0.758,5.075,4.613,9.82,3.444,14.829c-0.049,0.247-0.132,0.511-0.346,0.643C403.516,316.149,403.055,315.885,402.726,315.621z"
				/>
			<path style="fill:#16233A;" d="M371.75,426.904c0.346-0.395,3.032-4.861,5.8-9.705c3.065-1.318,5.833-3.312,8.09-5.767
				c2.603-2.85,4.531-6.294,5.487-10.034c1.878,7.925,4.267,15.768,4.432,23.874l0.099,0.231c-0.956,0.428-1.961,0.758-2.982,1.005
				c-0.346,0.099-0.741,0.165-1.071,0c-0.445-0.231-0.56-0.791-0.643-1.285c-0.577-3.839-1.137-7.662-1.714-11.501
				c-1.368,4.679-2.735,9.359-4.103,14.038c-0.148,0.494-0.297,1.005-0.659,1.384c-0.461,0.461-1.153,0.61-1.796,0.725
				c-6.409,1.137-9.293,1.648-15.817,1.862c-0.857-0.362,0.198-1.862,2.093-2.867C369.987,428.321,371.008,427.761,371.75,426.904z"
				/>
			<path style="fill:#FFCB97;" d="M382.772,407.297v-0.016c-4.317-15.241-11.385-30.004-17.218-44.981h-0.016
				c-4.894-12.506-8.947-25.127-9.869-38.308c-0.016-0.148-0.016-0.313-0.033-0.461c-0.148-2.257-0.214-4.597,0.593-6.722
				c0.824-2.191,2.554-3.987,4.679-4.926c0.115,0.082,0.231,0.148,0.346,0.214c3.098,1.812,6.162,3.757,9.062,5.915
				c-3.163,7.678-2.027,16.46-0.395,24.649c4.564,23.084,12.489,45.475,15.719,68.773c-2.257,2.455-5.025,4.449-8.09,5.767
				C379.56,413.607,381.619,409.818,382.772,407.297z"/>
			<path style="fill:#1D2D4F;" d="M360.908,311.881c-0.379-0.247-0.692-0.56-0.741-0.989c-0.082-0.659,0.56-1.17,1.12-1.516
				c0.099-0.066,0.198-0.115,0.297-0.181l0.445,0.741c6.179,0,12.357,2.158,17.185,6.014c2.422,1.928,4.515,4.251,7.101,5.948
				c1.038,0.676,2.422,1.252,3.46,0.577c0.428-0.28,0.708-0.725,0.923-1.17c1.022-2.175,0.692-4.729,1.087-7.085
				c0.412-2.373,2.224-4.943,4.597-4.564c1.812,0.28,2.883,2.109,4.004,3.559c0.692,0.89,1.466,1.697,2.34,2.406
				c0.33,0.264,0.791,0.527,1.153,0.297c0.214-0.132,0.297-0.395,0.346-0.643c1.17-5.009-2.686-9.754-3.444-14.829
				c-0.082-0.544-0.099-1.17,0.28-1.565c0.346-0.362,0.923-0.395,1.417-0.379c4.234,0.099,8.419,1.532,11.83,4.037
				c2.274,1.664,4.696,3.938,7.464,3.361c2.719-0.56,4.037-3.559,5.651-5.816c0.412-0.593,0.989-1.186,1.697-1.104
				c0.461,0.049,0.84,0.395,1.236,0.643c2.01,1.269,4.679,0.049,6.327-1.648c4.729-4.844,5.256-13.033,10.759-16.971l0.115-0.082
				c5.272,7.184,5.717,16.905,5.042,25.852c-0.379,5.091-1.186,10.463-4.449,14.401c-4.333,5.256-11.781,6.558-18.569,6.937
				c-15.768,0.873-31.882-1.318-47.255,2.257c-3.081-4.894-7.316-8.897-12.011-12.357c-2.9-2.158-5.965-4.103-9.062-5.915
				C361.139,312.03,361.023,311.964,360.908,311.881z"/>
			<path style="fill:#16233A;" d="M420.8,403.639c0.049,1.022-0.626,2.142-1.631,2.208c-2.488-3.048-4.976-6.113-7.447-9.161
				c1.17,4.284,2.06,8.667,2.653,13.082c0.099,0.791,0.198,1.615,0.016,2.389c-0.214,1.005-0.857,1.862-1.499,2.669
				c-2.06,2.669-4.169,5.371-6.755,7.48c-0.923,0.758-2.274,0.066-2.158-1.104c0.676-6.278,0.791-11.896,0.115-18.223
				c1.565-2.719,2.834-5.635,3.526-8.716c0.791-3.46,1.747-7.151,0.626-10.496c0.461,0.659,0.923,1.318,1.351,1.977
				c3.345,5.042,6.656,10.084,10.001,15.142C420.158,401.728,420.734,402.634,420.8,403.639z"/>
			<path style="fill:#F4B276;" d="M402.528,393.127c-3.559-4.959-9.639-9.046-13.84-13.478l-0.791,0.066
				c-0.824-8.106-1.664-17.531-2.537-25.901l0.346-0.033c5.915,9.82,15.768,20.316,22.54,29.987
				c1.12,3.345,0.165,7.035-0.626,10.496c-0.692,3.081-1.961,5.997-3.526,8.716C403.764,399.915,403.253,396.686,402.528,393.127z"
				/>
			<path style="fill:#F4B276;" d="M389.907,395.747c0.346,1.895,0.758,3.773,1.219,5.651c-0.956,3.74-2.883,7.184-5.487,10.034
				c-3.229-23.298-11.155-45.689-15.719-68.773c-1.631-8.189-2.768-16.971,0.395-24.649c4.696,3.46,8.93,7.464,12.011,12.357
				c-0.33,0.066-0.659,0.148-0.989,0.231l0.049,0.593c1.433,1.038,2.735,10.792,3.971,22.622c0.873,8.37,1.714,17.795,2.537,25.901
				C388.572,386.405,389.248,392.188,389.907,395.747z"/>
			<path style="fill:#F4B276;" d="M365.538,362.299l-0.264,0.115c-3.855-3.328-7.464-6.97-10.776-10.842
				c-2.867-3.345-5.602-7.134-6.014-11.517c-0.56-5.997,3.345-11.352,7.184-16.065C356.591,337.173,360.645,349.794,365.538,362.299
				z"/>
		</g>
		<g>
			<path style="fill:#FFFFFF;" d="M386.101,225.297c0.165,1.45,0.428,2.9,0.84,4.317c0.89,3.131,2.422,6.047,4.894,8.106
				c1.582-10.446,5.8-20.332,10.825-29.625c0.231-0.412,0.461-0.906,0.494-1.351l0.527,0.066c6.854,1.516,13.066,5.52,17.498,10.957
				c-3.345-0.511-6.871,1.203-9.161,3.773c-2.504,2.817-3.806,6.475-4.762,10.117c-2.257,8.452-3.032,17.3-2.29,26.033
				c-5.635,0.923-11.385,1.236-17.119,1.532l-0.066-1.302c-3.065-0.593-5.454-3.229-6.426-6.195s-0.708-6.212-0.016-9.26
				c0.708-3.048,1.829-5.981,2.57-9.013c0.791-3.196,1.878-6.706,1.961-10.034c0.016-0.428,0.016-0.824,0-1.236
				C385.903,223.221,385.985,224.259,386.101,225.297z"/>
			<path style="fill:#FFFFFF;" d="M399.15,288.518c-0.214-0.165-0.412-0.346-0.527-0.577c-0.28-0.61,0.165-1.269,0.428-1.895
				c1.631-3.888-4.07-8.09-2.752-11.896c9.49-0.626,18.915-1.796,28.191-3.938c0.725-0.165,1.516-0.379,1.977-0.972
				c0.346-0.445,0.445-1.038,0.527-1.582c1.351-9.029,1.862-18.157,1.532-27.269c0-0.115-0.016-0.247-0.016-0.362
				c2.735,12.259,19.821,39.61,18.618,40.318c-0.774,0.478-1.631,0.906-2.307,1.433c-1.302,0.989-2.125,2.471-3.279,3.625
				c-1.878,1.862-4.531,2.686-7.068,3.444c-5.833,1.747-11.715,3.493-17.795,3.888c-6.063,0.395-12.423-0.659-17.416-4.136
				C399.233,288.567,399.183,288.534,399.15,288.518z"/>
			<path style="fill:#CCD0D6;" d="M358.387,265.154c-2.85-0.33-5.569,1.071-8.09,2.439c-2.373,1.269-4.811,2.603-6.558,4.613h-2.933
				v-2.01c0.082-1.648,0.165-3.279,0.247-4.926c0.016-0.198,0.033-0.395,0.049-0.577c0.033-0.264,0.099-0.511,0.247-0.741
				c0.297-0.461,0.857-0.692,1.384-0.89c3.279-1.186,6.706-1.895,10.133-2.554c7.052-1.368,14.137-2.57,21.238-3.575
				c0.84-0.132,1.779-0.313,2.191-1.054c0.214-0.362,0.247-0.791,0.264-1.219c0.643-10.776,3.081-22.425,9.309-31.239
				c-0.082,3.328-1.17,6.838-1.961,10.034c-0.741,3.032-1.862,5.965-2.57,9.013c-0.692,3.048-0.956,6.294,0.016,9.26
				s3.361,5.602,6.426,6.195l0.066,1.302c-9.474,0.461-18.915,0.89-27.862,3.839c-0.511,0.165-1.087,0.395-1.318,0.873
				c-0.181,0.362-0.148,0.774-0.099,1.17c0,0.016,0,0.016,0,0.033L358.387,265.154z"/>
			<path style="fill:#E1E4EA;" d="M428.511,240.027c0,0.115,0.016,0.247,0.016,0.362c0.33,9.112-0.181,18.24-1.532,27.269
				c-0.082,0.544-0.181,1.137-0.527,1.582c-0.461,0.593-1.252,0.807-1.977,0.972c-9.276,2.142-18.701,3.312-28.191,3.938
				c-12.176,0.824-24.468,0.758-36.677,0.659c-0.066-0.577-0.132-1.153-0.181-1.73c-0.297-2.636-0.593-5.289-0.873-7.942
				c0-0.016,0-0.016,0-0.033c-0.049-0.395-0.082-0.807,0.099-1.17c0.231-0.478,0.807-0.708,1.318-0.873
				c8.947-2.949,18.388-3.378,27.862-3.839c5.734-0.297,11.484-0.61,17.119-1.532c-0.741-8.733,0.033-17.58,2.29-26.033
				c0.956-3.641,2.257-7.299,4.762-10.117c2.29-2.57,5.816-4.284,9.161-3.773c2.867,3.51,4.992,7.612,6.096,12.011
				C428.099,233.123,428.38,236.567,428.511,240.027z"/>
			<path style="fill:#F4B276;" d="M358.568,265.137c0.28,2.653,0.577,5.305,0.873,7.942h-5.388v-0.873H343.74
				c1.747-2.01,4.185-3.345,6.558-4.613c2.521-1.368,5.24-2.768,8.09-2.439L358.568,265.137z"/>
			<path style="fill:#B7B7B7;" d="M354.054,273.079v2.224h-44.305v-3.098h3.444H328.4h12.407h2.933
				c-0.247,0.28-0.478,0.56-0.692,0.873H354.054z"/>
			<path style="fill:#B7B7B7;" d="M354.054,272.206v0.873h-11.006c0.214-0.313,0.445-0.593,0.692-0.873H354.054z"/>
			<path style="fill:#F4B276;" d="M341.103,264.693c-0.016,0.181-0.033,0.379-0.049,0.577c-0.082,1.648-0.165,3.279-0.247,4.926
				v2.01H328.4v-0.89c0.412-1.005,1.302-1.697,2.175-2.34c1.631-1.236,3.295-2.488,5.174-3.345
				C337.429,264.874,339.291,264.429,341.103,264.693z"/>
			<polygon style="fill:#B7B7B7;" points="305.069,231.097 313.192,272.206 309.749,272.206 301.972,231.097 			"/>
		</g>
		<g>
			<path style="fill:#322575;" d="M364.78,182.771c-0.395,1.664-0.494,3.378-0.33,5.091h-0.016
				c-1.022-3.065-1.648-6.821-0.527-9.853c1.104-3.048,3.345-5.684,6.212-7.2c4.515-2.356,9.935-1.812,14.878-3.015
				c0.593-0.148,1.186-0.313,1.796-0.478c1.928-0.527,3.905-0.972,5.75-0.313c1.104,0.395,2.027,1.17,2.834,2.01
				c1.565,1.648,2.735,3.641,3.427,5.8c0.478,1.516,0.725,3.114,1.285,4.613c0.593,1.582,1.532,3.015,2.241,4.548
				c1.351,2.916,1.862,6.327,0.89,9.392c-0.511,1.582-1.466,3.032-2.702,4.136c-1.17,1.038-2.587,1.747-4.119,1.961
				c-0.544-0.659-1.038-1.351-1.516-2.06l-0.181-0.016c0.824-1.236,0.659-2.916,0.33-4.383c-0.247-1.203-0.593-2.422-1.302-3.411
				c-0.725-1.005-1.878-1.763-3.098-1.697c-2.554,0.132-3.971,3.427-6.492,3.757c-0.56,0.082-1.137-0.016-1.697-0.115
				c-3.328-0.56-6.624-1.466-9.771-2.702c-1.615-0.626-3.196-1.335-4.613-2.323C366.691,185.539,365.489,184.271,364.78,182.771z"/>
			<path style="fill:#322575;" d="M417.653,176.395c3.081,2.636,4.119,7.365,2.406,11.039c-1.005,2.175-2.9,4.185-2.57,6.558
				c0.181,1.318,1.038,2.455,1.17,3.773c0.198,1.862-1.087,3.575-2.603,4.663c-2.587,1.829-6.063,2.356-9.079,1.368
				c-2.949-0.972-5.404-3.361-6.459-6.294c1.236-1.104,2.191-2.554,2.702-4.136c0.972-3.065,0.461-6.475-0.89-9.392
				c-0.708-1.532-1.648-2.966-2.241-4.548c-0.56-1.499-0.807-3.098-1.285-4.613c-0.692-2.158-1.862-4.152-3.427-5.8
				c-0.807-0.84-1.73-1.615-2.834-2.01c-1.845-0.659-3.823-0.214-5.75,0.313l-0.016-0.049c0.544-4.366,3.608-8.321,7.711-9.919
				c1.928-0.758,4.053-1.022,6.129-0.906c2.521,0.148,5.141,0.89,6.937,2.669c1.911,1.878,2.686,4.646,2.916,7.316
				c0.148,1.631,0.148,3.361,0.906,4.811C412.644,173.676,415.577,174.615,417.653,176.395z"/>
			<path style="fill:#FFCB97;" d="M394.701,197.386l0.181,0.016c0.478,0.708,0.972,1.4,1.516,2.06
				c1.714,2.191,6.788,7.003,6.755,7.283c-0.033,0.445-0.264,0.939-0.494,1.351c-5.025,9.293-9.243,19.179-10.825,29.625
				c-2.471-2.06-4.004-4.976-4.894-8.106c2.719-6.426,4.169-13.33,5.305-20.2c0.214-1.252,0.412-2.521,0.181-3.773
				c-2.307,1.961-4.597,3.905-6.887,5.866c0-0.082-0.016-0.148-0.016-0.231c-1.779,0.857-3.575,1.73-5.503,2.076
				c-1.928,0.346-4.053,0.132-5.635-1.022c-2.949-2.125-3.444-6.904-6.788-8.321c-0.626-0.264-1.285-0.395-1.878-0.692
				c-0.61-0.313-1.137-0.873-1.137-1.532c0-0.346,0.148-0.659,0.297-0.972c0.774-1.582,1.878-3.163,1.796-4.926
				c-0.049-1.203-0.643-2.307-1.104-3.411c-0.61-1.466-0.989-3.032-1.12-4.613c-0.165-1.714-0.066-3.427,0.33-5.091
				c0.708,1.499,1.911,2.768,3.279,3.74c1.417,0.989,2.999,1.697,4.613,2.323c3.147,1.236,6.442,2.142,9.771,2.702
				c0.56,0.099,1.137,0.198,1.697,0.115c2.521-0.33,3.938-3.625,6.492-3.757c1.219-0.066,2.373,0.692,3.098,1.697
				c0.708,0.989,1.055,2.208,1.302,3.411C395.361,194.47,395.525,196.15,394.701,197.386z"/>
			<path style="fill:#F4B276;" d="M392.428,205.641c0.231,1.252,0.033,2.521-0.181,3.773c-1.137,6.871-2.587,13.774-5.305,20.2
				c-0.412-1.417-0.676-2.867-0.84-4.317c-0.115-1.038-0.198-2.076-0.231-3.114c-0.165-3.559-0.016-7.134-0.33-10.677
				C387.831,209.546,390.121,207.601,392.428,205.641z"/>
			<path style="fill:#322575;" d="M372.421,189.742c-1.063-0.217-2.088,0.047-2.926,0.632c-0.925,0.554-1.971,1.501-1.074,2.294
				c0.577,0.51,1.302-0.002,1.875-0.215c0.444-0.165,0.903-0.291,1.368-0.379c0.479-0.091,1.009-0.043,1.477-0.174
				c0.485-0.136,0.94-0.521,0.811-1.081C373.803,190.175,372.985,189.857,372.421,189.742z"/>
			<path style="fill:#34393D;" d="M373.33,194.489c-0.574-0.699-1.38-1.753-2.412-1.583c-0.668,0.11-0.984,0.491-1.072,0.982
				c-0.097,0.14-0.135,0.323-0.066,0.54c0.044,0.137,0.088,0.279,0.132,0.42c0.044,0.171,0.102,0.343,0.173,0.513
				c0.231,0.668,0.529,1.31,1.115,1.735c0.676,0.49,1.634,0.566,2.285-0.025C374.327,196.308,373.947,195.242,373.33,194.489z"/>
			<path style="fill:#FFFFFF;" d="M379.812,208.75c-0.554,1.409-1.386,2.414-3.014,2.148c-1.559-0.254-3.256-1.351-3.73-2.91
				c-0.069-0.231,0.046-0.554,0.277-0.658c1.178-0.485,2.356-0.993,3.545-1.478c0.208-0.081,0.416-0.162,0.624-0.231
				c0.554-0.323,1.178-0.704,1.813-0.566C380.886,205.413,380.193,207.769,379.812,208.75z"/>
		</g>
	</g>
	<g>
		<path style="fill:#E1E4EA;" d="M215.088,275.309v8.416h86.492h31.546h86.798v-8.416c0,0-40.834,4.208-102.425,4.208
			C255.923,279.517,215.088,275.309,215.088,275.309z"/>
		<path style="fill:#878E8E;" d="M419.924,275.309H215.088c0,0,40.834,4.208,102.411,4.208
			C379.09,279.517,419.924,275.309,419.924,275.309z"/>
		<polygon style="fill:#878E8E;" points="266.115,417.102 266.115,428.144 364.938,428.144 364.938,417.102 333.126,417.102 
			301.581,417.102 		"/>
		<path style="fill:#1D2D4F;" d="M301.581,284.269v132.833h31.546v-93.368c-10.816-7.919-20.304-18.055-27.785-29.723
			c-1.887-2.931-3.694-6.184-3.694-9.742H301.581z"/>
		<path style="fill:#16233A;" d="M333.123,283.725h-31.546v0.595h0.072c0,3.571,1.806,6.828,3.692,9.769
			c7.479,11.695,16.97,21.858,27.783,29.797V283.725z"/>
	</g>
	<g>
		<path style="fill:#FFFFFF;" d="M671.152,66.734c0.529,7.072,0.804,14.167,0.485,21.25c-0.297,6.753-1.112,13.495-2.743,20.06
			c-1.256,5.101-3.184,8.758-8.482,10.333c-4.561,1.344-9.298,2.225-14.09,2.798c-3.944,5.387-8.295,10.443-13.065,15.136
			c-0.408,0.397-1.025-0.011-0.925-0.529c0.672-3.415,1.355-6.841,2.027-10.256c0.231-1.168,0.463-2.346,0.694-3.525
			c-5.067,0.176-10.146,0.132-15.081,0.033c-13.902-0.275-28.058-0.595-41.773-3.085c-5.31-0.969-10.972-2.137-15.335-5.508
			c-4.263-3.294-6.125-8.383-7.149-13.506c-1.906-9.496-2.831-19.289-3.184-29.05c-0.903-5.475-1.829-11.446,0.187-16.513
			c2.523-6.378,8.251-7.072,14.354-8.031c7.546-1.19,15.158-2.027,22.781-2.534c14.31-0.947,28.675-0.738,42.963,0.375
			c6.929,0.54,13.847,1.289,20.744,2.214c4.902,0.661,11.545,0.54,14.63,5.123C671.009,55.729,670.799,61.92,671.152,66.734z"/>
		<g>
			<g>
				<path style="fill:#FFCB97;" d="M461.763,160.665c-0.179,0.619,0.13,1.27,0.44,1.857c1.857,3.436,3.99,7.133,7.621,8.566
					c1.987,0.782,4.169,0.782,6.27,1.14c6.351,1.026,11.709,5.13,16.692,9.25c0.57-2.117,0.57-3.599,1.01-7.328
					c0.065-0.472,0.163-0.993,0.342-1.466c-1.335-1.58-2.687-3.192-4.039-4.772c-1.091-1.27-2.198-2.589-3.664-3.42
					c-1.352-0.782-2.931-1.107-4.478-1.417c-5.635-1.14-11.269-2.264-16.904-3.404C463.815,159.427,462.105,159.427,461.763,160.665
					z"/>
				<path style="fill:#1D2D4F;" d="M492.787,181.477c-0.293,1.059-0.733,2.264-1.433,4.006
					c13.826,7.915,25.877,20.796,39.703,28.727c0.831,0.472,1.677,0.961,2.622,1.091c1.84,0.261,3.55-0.831,5.065-1.873
					c5.96-4.169,11.677-8.68,17.116-13.5l0.309,0.016c0.505-11.823,0.765-23.662,0.814-35.502h0.521
					c5.358-0.114,10.732-0.114,16.09-0.033c-1.759-7.833-3.811-16.074-9.543-21.676h-0.375
					c-13.598,12.116-18.402,31.251-29.476,45.713c-0.896-0.977-1.791-1.954-2.671-2.931c-0.244-0.261-0.537-0.554-0.896-0.57
					c-0.489-0.016-0.847,0.456-1.221,0.765c-1.368,1.189-3.485,0.521-5.13-0.228c-9.25-4.12-18.321-8.68-27.148-13.631
					c-0.521-0.293-1.091-0.586-1.677-0.505c-0.684,0.114-1.091,0.668-1.319,1.335c-0.179,0.472-0.277,0.993-0.342,1.466
					C493.357,177.878,493.357,179.36,492.787,181.477z"/>
				<path style="fill:#C4C4C4;" d="M560.81,222.353c11.383,1.596,22.848,2.589,34.346,2.964l0.016-0.261
					c0.114-2.492,0.244-5.016,0.358-7.508c-2.427-0.049-4.788-0.456-6.921-1.563c-0.684-0.375-1.352-0.831-1.726-1.498
					c-0.277-0.505-0.391-1.075-0.472-1.645c-0.244-1.694-0.407-3.404-0.44-5.114c-0.065-2.231,0.114-4.641,1.58-6.335
					c1.27-1.482,3.306-2.101,5.26-2.182c0.993-0.033,1.971,0.049,2.964,0.195c0.049-10.504,0.114-21.024,0.147-31.512
					c0.016-0.7,0.016-1.417,0.016-2.117l-0.456-0.472c-0.961-0.065-1.938-0.13-2.899-0.163c-1.075-0.081-2.15-0.147-3.224-0.195
					c-3.566-0.195-7.149-0.326-10.732-0.423c-0.179-0.016-0.358-0.016-0.537,0c-1.498-0.065-2.997-0.098-4.495-0.114
					c-5.358-0.081-10.732-0.081-16.09,0.033h-0.521c-0.049,11.839-0.309,23.679-0.814,35.502
					c-0.309,7.198-0.717,14.396-1.189,21.578l0.293,0.016C557.114,221.832,558.954,222.093,560.81,222.353z"/>
				<path style="fill:#16233A;" d="M622.499,252.123c0.147-0.098,0.293-0.212,0.423-0.342c1.905-1.808,1.254-4.918,0.961-7.556
					c-0.277-2.475-0.065-4.983,0.603-7.377c0.521-1.889,1.335-3.843,0.863-5.749c-0.293-1.14-1.01-2.117-1.515-3.159
					c-1.238-2.54-0.635-8.859,0.782-12.409c-4.951,1.401-10.178,2.247-15.455,2.931c-0.033-0.717-0.081-1.401-0.114-2.068
					l-0.619,0.033c-2.15,0.244-4.299,0.472-6.449,0.717c-2.117,0.244-4.316,0.472-6.449,0.407c-0.114,2.492-0.244,5.016-0.358,7.508
					l-0.016,0.261c-11.497-0.375-22.962-1.368-34.346-2.964c0.016,1.124,0.033,2.264,0.049,3.387h0.065
					c6.758,2.361,13.826,3.794,20.975,4.218c7.556,0.44,15.39-0.195,22.441,2.541c0.635,0.261,1.286,0.554,1.694,1.107
					c1.042,1.449-0.309,3.436-1.759,4.495c-1.449,1.059-3.273,2.166-3.355,3.957c-0.098,2.003,2.085,3.322,4.022,3.827
					c1.954,0.521,4.185,0.847,5.342,2.492c0.814,1.14,0.863,2.638,1.189,3.99c0.228,0.896,0.7,1.84,1.401,2.394c0,0,0,0,0.016,0
					c2.313-0.456,4.609-0.977,6.889-1.563C620.724,252.953,621.701,252.676,622.499,252.123z"/>
				<path style="fill:#1D2D4F;" d="M564.654,252.579c4.153,0.684,8.305,1.384,12.458,2.068c0.749,0.114,1.563,0.244,2.28-0.049
					c1.873-0.749,1.759-3.485,3.013-5.048c0.179-0.228,0.423-0.44,0.7-0.423c0.228,0.016,0.407,0.163,0.57,0.309
					c2.036,1.954,2.101,5.602,4.56,6.986c1.075,0.619,2.378,0.619,3.615,0.603c7.052-0.147,14.103-0.912,21.024-2.264
					c-0.7-0.554-1.173-1.498-1.401-2.394c-0.326-1.352-0.375-2.85-1.189-3.99c-1.156-1.645-3.387-1.971-5.342-2.492
					c-1.938-0.505-4.12-1.824-4.022-3.827c0.081-1.791,1.905-2.899,3.355-3.957c1.449-1.059,2.801-3.045,1.759-4.495
					c-0.407-0.554-1.059-0.847-1.694-1.107c-7.052-2.736-14.885-2.101-22.441-2.541c-7.149-0.423-14.217-1.857-20.975-4.218h-0.065
					c0.13,8.257,0.472,16.53,1.026,24.77c0.033,0.489,0.081,1.026,0.423,1.384c0.326,0.326,0.814,0.423,1.254,0.505
					C563.921,252.465,564.295,252.514,564.654,252.579z"/>
				<path style="fill:#0E1723;" d="M576.998,134.673l1.156,0.049c0-0.472,0.081-0.961,0.163-1.433l-0.814-0.13
					c-2.834,0.456-5.667,0.912-8.501,1.352c-0.44,0.065-0.896,0.147-1.221,0.44c-0.798,0.717-0.326,2.068-0.782,3.029
					c-0.407,0.831-1.401,1.14-2.231,1.498c-0.847,0.375-1.726,1.107-1.58,2.003c0.098,0.505,0.505,0.896,0.863,1.254
					c5.732,5.602,7.784,13.842,9.543,21.676c1.498,0.016,2.997,0.049,4.495,0.114c-0.195-5.798-0.098-12.702-0.326-18.37
					c0,0,0,0,0-0.016C577.03,142.376,576.786,138.517,576.998,134.673z"/>
				<path style="fill:#FFFFFF;" d="M580.434,147.001c1.531-1.173,2.915-2.508,4.136-3.99l0.212-0.016
					c-0.065-0.049-0.13-0.098-0.179-0.147c-1.824-1.58-3.518-3.29-5.065-5.13c-0.537-0.635-1.075-1.335-1.287-2.15
					c-0.065-0.277-0.098-0.554-0.098-0.847l-1.156-0.049c-0.212,3.843,0.033,7.703,0.765,11.465c0,0.016,0,0.016,0,0.016
					c0.065,0.326,0.13,0.651,0.195,0.977c0.081,0.407,0.261,0.896,0.668,0.945c0.244,0.033,0.472-0.098,0.668-0.244
					C579.685,147.571,580.06,147.295,580.434,147.001z"/>
				<path style="fill:#E1E4EA;" d="M577.959,147.132c-0.065-0.326-0.13-0.651-0.195-0.977c0.228,5.667,0.13,12.572,0.326,18.37
					c0.179-0.016,0.358-0.016,0.537,0c1.124-4.136,2.247-8.257,3.387-12.393l0.147-0.456c-0.163-0.049-0.326-0.114-0.456-0.212
					c-0.521-0.375-0.668-1.059-0.782-1.694c-0.163-0.928-0.326-1.84-0.489-2.768c-0.375,0.293-0.749,0.57-1.14,0.831
					c-0.195,0.147-0.423,0.277-0.668,0.244C578.219,148.027,578.04,147.539,577.959,147.132z"/>
				<path style="fill:#ED356A;" d="M582.014,152.131c-1.14,4.136-2.264,8.257-3.387,12.393c3.583,0.098,7.166,0.228,10.732,0.423
					l0.049-0.945c-1.042-3.892-1.873-7.817-2.459-11.791c-0.163,0-0.326-0.016-0.489-0.033c-1.173-0.114-2.329-0.244-3.501-0.358
					c-0.261-0.016-0.537-0.049-0.798-0.147L582.014,152.131z"/>
				<path style="fill:#ED356A;" d="M586.948,152.213c0.293,0,0.603-0.065,0.831-0.244c0.277-0.228,0.391-0.586,0.489-0.928
					c0.407-1.352,0.798-2.72,1.205-4.071c-1.238-1.303-2.508-2.557-3.843-3.762c-0.081,0.033-0.163,0.049-0.244,0.049
					c-0.212-0.016-0.423-0.13-0.603-0.261l-0.212,0.016c-1.221,1.482-2.606,2.817-4.136,3.99c0.163,0.928,0.326,1.84,0.489,2.768
					c0.114,0.635,0.261,1.319,0.782,1.694c0.13,0.098,0.293,0.163,0.456,0.212c0.261,0.098,0.537,0.13,0.798,0.147
					c1.173,0.114,2.329,0.244,3.501,0.358C586.622,152.196,586.785,152.213,586.948,152.213z"/>
				<path style="fill:#FFCB97;" d="M595.775,199.407c-0.993-0.147-1.971-0.228-2.964-0.195c-1.954,0.081-3.99,0.7-5.26,2.182
					c-1.466,1.694-1.645,4.104-1.58,6.335c0.033,1.71,0.195,3.42,0.44,5.114c0.081,0.57,0.195,1.14,0.472,1.645
					c0.375,0.668,1.042,1.124,1.726,1.498c2.133,1.107,4.495,1.515,6.921,1.563c2.133,0.065,4.332-0.163,6.449-0.407
					c2.15-0.244,4.299-0.472,6.449-0.717l0.619-0.033c-0.358-6.188-0.57-10.129-0.961-16.806c-3.11,0.521-6.319,0.586-9.462,0.195
					C597.68,199.668,596.719,199.521,595.775,199.407z"/>
				<path style="fill:#E1E4EA;" d="M587.779,151.968c-0.228,0.179-0.537,0.244-0.831,0.244c0.586,3.974,1.417,7.898,2.459,11.791
					l-0.049,0.945c1.075,0.049,2.15,0.114,3.224,0.195v-0.033c0.749-3.892,1.498-7.801,2.231-11.693
					c-1.645-2.264-3.436-4.413-5.342-6.449c-0.407,1.352-0.798,2.72-1.205,4.071C588.17,151.382,588.056,151.74,587.779,151.968z"/>
				<path style="fill:#0E1723;" d="M615.154,137.426c0.326-0.505,0.684-0.993,1.026-1.498c-3.713-0.928-7.214-2.654-10.227-5.016
					c-0.619-0.489-1.287-1.026-2.068-1.042c-1.238,0-2.052,1.238-3.078,1.922l-0.114,0.016c0.358,1.531,0.13,3.306-0.212,4.886
					c-1.238,5.781-3.127,11.416-5.635,16.758c0-0.016-0.016-0.016-0.033-0.033c-0.733,3.892-1.482,7.801-2.231,11.693v0.033
					c0.961,0.033,1.938,0.098,2.899,0.163l0.456,0.472c0,0.7,0,1.417-0.016,2.117h0.961
					C602.289,157.343,608.396,147.164,615.154,137.426z"/>
				<path style="fill:#16233A;" d="M595.921,167.895c-0.033,10.488-0.098,21.008-0.147,31.512c0.945,0.114,1.905,0.261,2.85,0.375
					c3.143,0.391,6.351,0.326,9.462-0.195c-0.016-0.065-0.016-0.13-0.016-0.195c-0.016-0.423-0.033-0.863,0.179-1.238
					c0.277-0.472,0.847-0.668,1.368-0.814c3.794-1.14,7.605-2.199,11.432-3.208c-0.684-1.677-1.384-3.355-2.068-5.032
					c-0.195-0.472-0.375-1.059-0.049-1.449c0.277-0.342,0.798-0.342,1.205-0.489c1.189-0.456,1.319-2.052,1.254-3.322
					c-0.537-10.227-1.27-20.487-0.472-30.698c0.293-3.876,1.335-8.419,4.951-9.836c2.052-0.814,4.381-0.309,6.547,0.277
					c-0.033-0.717,0.049-1.449-0.212-2.117c-0.684-1.661-2.948-1.743-4.755-1.71c-4.185,0.081-8.419-0.717-12.295-2.329
					c-6.758,9.739-12.865,19.917-18.272,30.47H595.921z"/>
				<path style="fill:#1D2D4F;" d="M624.616,215.53c7.117-2.003,13.663-5.146,19.054-10.569c0.489-0.489,0.961-0.977,1.254-1.596
					c0.57-1.205,0.342-2.622,0.081-3.925c-2.964-15.585-5.928-31.17-8.892-46.771c-0.391-2.019-0.814-4.104-2.019-5.781
					c-0.57-0.798-1.335-1.498-1.58-2.459c-0.065-0.277-0.098-0.554-0.098-0.847c-2.166-0.586-4.495-1.091-6.547-0.277
					c-3.615,1.417-4.658,5.96-4.951,9.836c-0.798,10.211-0.065,20.471,0.472,30.698c0.065,1.27-0.065,2.866-1.254,3.322
					c-0.407,0.147-0.928,0.147-1.205,0.489c-0.326,0.391-0.147,0.977,0.049,1.449c0.684,1.677,1.384,3.355,2.068,5.032
					c-3.827,1.01-7.638,2.068-11.432,3.208c-0.521,0.147-1.091,0.342-1.368,0.814c-0.212,0.375-0.195,0.814-0.179,1.238
					c0,0.065,0,0.13,0.016,0.195c0.391,6.677,0.603,10.618,0.961,16.806c0.033,0.668,0.081,1.352,0.114,2.068
					C614.438,217.777,619.665,216.93,624.616,215.53z"/>
			</g>
			<g>
				<path style="fill:#0E1723;" d="M548.026,421.815c-2.524,1.14-5.423,2.817-5.57,5.57c14.38,1.401,28.857,1.629,43.254,0.684
					c1.075-0.065,2.231-0.195,2.98-0.945c0.733-0.765,0.831-1.922,0.896-2.964c0.212-3.86,0.407-7.703,0.619-11.563l-0.016-0.049
					c-0.212,0.049-0.456,0.065-0.684,0.081c-1.726,0.081-3.452,0.081-5.162-0.016c-4.022-0.195-8.012-0.863-11.872-1.971
					l-0.033,0.098C564.295,414.438,556.169,418.135,548.026,421.815z"/>
				<path style="fill:#16233A;" d="M564.458,257.432c-0.651,17.344-0.505,34.736,1.645,51.95c0.7,5.635,1.612,11.237,2.15,16.888
					c0.57,6.156,0.7,12.328,0.831,18.516c0.423,21.741,0.879,43.465,1.319,65.222c0.684,0.228,1.368,0.44,2.068,0.635
					c3.86,1.107,7.849,1.775,11.872,1.971l0.033-0.619c-2.231-5.342-4.511-10.895-4.218-16.676
					c0.212-4.169,1.742-8.175,1.971-12.344c0.554-10.276-6.791-21.138-1.971-30.225c0.814-1.498,1.938-2.915,2.133-4.592
					c0.179-1.417-0.326-2.801-0.912-4.088c-2.671-5.83-7.41-11.888-5.179-17.897c0.961-2.573,3.11-4.56,4.088-7.133
					c1.58-4.169-0.212-8.745-1.27-13.077c-1.042-4.332-0.831-9.869,3.045-12.051c0.928-0.521,2.133-0.977,2.296-2.019
					c0.081-0.554-0.179-1.091-0.456-1.58c-3.062-5.553-8.094-9.706-12.051-14.657c-3.957-4.951-6.921-11.579-4.788-17.539v-0.016
					C566.201,257.871,565.321,257.66,564.458,257.432z"/>
				<path style="fill:#16233A;" d="M611.164,410.171c0.049,0.277,0.081,0.537,0.114,0.814l0.456-0.065
					c7.182,0.033,14.478-0.798,21.48-2.557c0.326-0.081,0.651-0.179,0.961-0.261l-0.472-1.775
					c-5.879-0.554-9.429-6.986-10.064-12.849s0.57-11.888-0.668-17.653c-1.433-6.677-6.042-12.377-7.279-19.086
					c-0.945-5.048,0.098-10.227,0.586-15.341c0.847-8.892-0.033-17.93-2.557-26.496c-1.042-3.518-2.378-7.084-2.019-10.716
					c0.635-6.644,6.644-11.823,7.345-18.467c0.244-2.313-0.195-4.625-0.619-6.921c-1.466-7.85-2.948-15.699-4.413-23.565
					c-0.423-0.033-0.798-0.212-1.124-0.472c-0.016,0-0.016,0-0.016,0c-6.921,1.352-13.973,2.117-21.024,2.264
					c-1.238,0.016-2.541,0.016-3.615-0.603c-2.459-1.384-2.524-5.032-4.56-6.986c-0.163-0.147-0.342-0.293-0.57-0.309
					c-0.277-0.016-0.521,0.195-0.7,0.423c-1.254,1.563-1.14,4.299-3.013,5.048c-0.717,0.293-1.531,0.163-2.28,0.049
					c-4.153-0.684-8.305-1.384-12.458-2.068c-0.065,1.612-0.147,3.241-0.195,4.853c0.863,0.228,1.743,0.44,2.606,0.668
					c5.993,1.515,11.97,3.029,17.963,4.544c3.371,16.676,6.726,33.32,10.064,49.979c0.049,0.195,0.098,0.407,0.13,0.603
					c1.759,8.713,3.518,17.425,5.13,26.17C604.683,362.863,607.94,386.509,611.164,410.171z"/>
				<path style="fill:#1D2D4F;" d="M567.064,258.116c-2.133,5.96,0.831,12.589,4.788,17.539c3.957,4.951,8.989,9.103,12.051,14.657
					c0.277,0.489,0.537,1.026,0.456,1.58c-0.163,1.042-1.368,1.498-2.296,2.019c-3.876,2.182-4.088,7.719-3.045,12.051
					c1.059,4.332,2.85,8.908,1.27,13.077c-0.977,2.573-3.127,4.56-4.088,7.133c-2.231,6.009,2.508,12.067,5.179,17.897
					c0.586,1.287,1.091,2.671,0.912,4.088c-0.195,1.677-1.319,3.094-2.133,4.592c-4.82,9.087,2.524,19.949,1.971,30.225
					c-0.228,4.169-1.759,8.175-1.971,12.344c-0.293,5.781,1.987,11.335,4.218,16.676l-0.033,0.619
					c1.71,0.098,3.436,0.098,5.162,0.016c0.228-0.016,0.472-0.033,0.684-0.081c0.228-0.049,0.44-0.147,0.603-0.309
					c0.391-0.375,0.407-0.977,0.391-1.531c-0.375-13.11-1.645-26.366,1.01-39.215c0.733-3.469,1.742-7.052,0.912-10.504
					c-0.733-3.062-2.883-5.96-2.296-9.055c0.195-1.026,0.7-1.971,1.026-2.964c0.489-1.466,0.619-3.029,0.733-4.576
					c0.847-10.585,1.677-21.171,2.524-31.773c-3.338-16.66-6.693-33.303-10.064-49.979c-5.993-1.515-11.97-3.029-17.963-4.544
					V258.116z"/>
				<path style="fill:#0E1723;" d="M611.278,410.985c-0.033-0.277-0.065-0.537-0.114-0.814c-3.29,4.853-5.944,10.162-7.817,15.715
					c-0.423,1.254-0.798,2.654-0.7,3.941c4.316-2.785,9.755-3.485,14.868-2.882c5.228,0.619,10.211,2.492,15.113,4.43l0.358,0.195
					c0.081-0.114,0.179-0.244,0.261-0.375c0.993-1.547,0.977-3.518,0.912-5.358c-0.163-5.276-0.342-10.553-0.505-15.829l-0.44-1.645
					c-7.003,1.759-14.298,2.589-21.48,2.557L611.278,410.985z"/>
				<path style="fill:#0E1723;" d="M602.647,429.827c0.049,0.7,0.244,1.384,0.635,1.987c1.059,1.661,3.224,2.166,5.179,2.427
					c6.058,0.831,12.23,0.847,18.288,0.016c2.296-0.326,4.82-0.896,6.237-2.687l-0.358-0.195c-4.902-1.938-9.885-3.811-15.113-4.43
					C612.402,426.342,606.963,427.043,602.647,429.827z"/>
				<path style="fill:#1D2D4F;" d="M614.014,255.233c1.466,7.866,2.948,15.715,4.413,23.565c0.423,2.296,0.863,4.609,0.619,6.921
					c-0.7,6.644-6.71,11.823-7.345,18.467c-0.358,3.632,0.977,7.198,2.019,10.716c2.524,8.566,3.404,17.604,2.557,26.496
					c-0.489,5.114-1.531,10.292-0.586,15.341c1.238,6.71,5.846,12.409,7.279,19.086c1.238,5.765,0.033,11.791,0.668,17.653
					s4.185,12.295,10.064,12.849l0.472,1.775c1.091-0.293,2.166-0.603,3.241-0.945l-0.033-0.13
					c0.44-5.684,0.212-11.432-0.668-17.083c-0.896-5.83-2.508-11.563-2.866-17.441c-0.456-7.182,0.961-14.445-0.163-21.562
					c-0.472-3.013-1.401-5.944-1.563-8.989c-0.098-1.824,0.081-3.664,0.033-5.488c-0.049-2.247-0.456-4.478-0.879-6.693
					c-2.264-12.035-4.82-24.07-5.179-36.3c-0.147-5.162,0.081-10.325-0.081-15.504c-0.277-8.696-1.726-17.328-3.518-25.845
					c-0.798,0.554-1.775,0.831-2.72,1.075c-2.28,0.586-4.576,1.107-6.889,1.563C613.216,255.022,613.591,255.201,614.014,255.233z"
					/>
			</g>
			<g>
				<path style="fill:#F4B276;" d="M585.629,143.207c0.179-0.049,0.342-0.147,0.505-0.244c4.055-2.638,8.029-5.374,11.937-8.224
					c0.635-0.472,1.319-1.01,1.498-1.791c0.114-0.44,0.033-0.896-0.049-1.335c-0.114-0.733-0.212-1.466-0.293-2.199
					c-0.212-1.743-0.326-3.485-0.342-5.244l-0.277-0.195c-0.945,1.303-2.133,2.459-3.452,3.387c-2.443,1.726-5.325,2.752-8.273,3.29
					c-0.912,0.163-1.857,0.277-2.768,0.065c-0.977-0.228-1.824-0.814-2.622-1.417c-0.749-0.537-1.466-1.075-2.199-1.629
					c-0.309,1.808-0.635,3.632-0.945,5.439c-0.016,0.065-0.016,0.114-0.033,0.179c-0.081,0.472-0.163,0.961-0.163,1.433
					c0,0.293,0.033,0.57,0.098,0.847c0.212,0.814,0.749,1.515,1.287,2.15c1.547,1.84,3.241,3.55,5.065,5.13
					c0.049,0.049,0.114,0.098,0.179,0.147c0.179,0.13,0.391,0.244,0.603,0.261C585.466,143.256,585.548,143.239,585.629,143.207z"/>
				<path style="fill:#FFFFFF;" d="M589.472,146.969c1.905,2.036,3.697,4.185,5.342,6.449c0.016,0.016,0.033,0.016,0.033,0.033
					c2.508-5.342,4.397-10.976,5.635-16.758c0.342-1.58,0.57-3.355,0.212-4.886c-0.195-0.928-0.603-1.759-1.319-2.41l-0.147,0.016
					c0.081,0.733,0.179,1.466,0.293,2.199c0.081,0.44,0.163,0.896,0.049,1.335c-0.179,0.782-0.863,1.319-1.498,1.791
					c-3.908,2.85-7.882,5.586-11.937,8.224c-0.163,0.098-0.326,0.195-0.505,0.244C586.964,144.412,588.235,145.666,589.472,146.969z
					"/>
				<path style="fill:#322575;" d="M572.265,105.719c0.034,0.017,0.068,0.034,0.102,0.051c0.119-2.593,0.288-5.338,1.745-7.49
					c0.847-1.237,2.084-2.203,2.627-3.61c0.593-1.508,0.237-3.288,0.712-4.83c0.441,0.678,1.254,1.186,2.067,1.305
					c1.356,0.22,2.711-0.254,4.05-0.542c2.44-0.525,5.084-0.424,7.372,0.593c2.305,1,4.22,2.983,4.88,5.406
					c0.39,1.407,0.356,2.898,0.746,4.304c0.813,2.847,3.508,5.05,6.456,5.27c0.271,0,0.559,0,0.83,0.034l0.017-0.203
					c2.084-1.44,3.067-4.287,2.305-6.711c-0.627-2.017-2.288-3.576-3.033-5.558c-0.847-2.22-0.474-4.762-1.407-6.948
					c-0.729-1.729-2.22-3.033-3.813-3.999c-2.288-1.373-4.897-2.169-7.558-2.288c-1.712-0.085-3.44,0.102-5.152,0.034
					c-1.712-0.068-3.474-0.424-4.847-1.474c-0.322-0.237-0.644-0.542-1.051-0.576c-0.305-0.017-0.593,0.119-0.847,0.271
					c-1.695,0.983-2.728,2.83-3.169,4.728c-0.458,1.898-0.373,3.881-0.288,5.829c-2.728,0.068-4.864,2.61-5.406,5.27
					c-0.542,2.661,0.136,5.406,0.796,8.049C570.706,103.838,571.147,105.194,572.265,105.719z"/>
				<path style="fill:#FFCB97;" d="M603.022,106.176c-2.949-0.22-5.643-2.423-6.456-5.27c-0.39-1.407-0.356-2.898-0.746-4.304
					c-0.661-2.423-2.576-4.406-4.88-5.406c-2.288-1.017-4.931-1.118-7.372-0.593c-1.339,0.288-2.694,0.763-4.05,0.542
					c-0.813-0.119-1.627-0.627-2.067-1.305c-0.474,1.542-0.119,3.321-0.712,4.83c-0.542,1.407-1.779,2.372-2.627,3.61
					c-1.457,2.152-1.627,4.897-1.745,7.49c-0.034-0.017-0.068-0.034-0.102-0.051c-0.051,3.948,0.034,7.897,0.271,11.845
					c0.119,2.322,0.339,4.745,1.593,6.711c0.813,1.271,2,2.254,3.186,3.203c0.441,0.339,0.864,0.678,1.305,1.017
					c0.763,0.576,1.508,1.135,2.288,1.695c0.83,0.627,1.712,1.237,2.728,1.474c0.949,0.22,1.932,0.102,2.881-0.068
					c3.067-0.559,6.067-1.627,8.609-3.423c1.373-0.966,2.61-2.169,3.593-3.525c0.864-1.152,1.525-2.423,1.966-3.796
					c0.305-0.983,0.508-2.034,0.983-2.949c0.271-0.525,0.644-1,0.983-1.491c1.491-2.101,2.559-4.508,3.135-7.033
					c0.169-0.763,0.271-1.644-0.169-2.305c-0.373-0.576-1.051-0.796-1.762-0.864C603.581,106.176,603.293,106.176,603.022,106.176z"
					/>
				<path style="fill:#C1815D;" d="M583.918,116.753c-0.959-0.072-2.392-0.131-2.668-1.327c-0.133-0.576,0.405-1.827,0.504-2.445
					c0.283-1.769,0.373-3.543,0.333-5.332c-0.017-0.753-1.198-0.89-1.181-0.125c0.032,1.43-0.011,2.851-0.182,4.273
					c-0.143,1.186-0.847,2.848-0.733,4.003c0.165,1.679,2.433,2.033,3.802,2.135C584.552,117.991,584.683,116.81,583.918,116.753z"
					/>
				<path style="fill:#FFFFFF;" d="M584.349,126.014c2.272,0.092,5.381-1.119,5.071-3.907c-0.27-2.445-2.622-2.513-4.704-2.381
					c-2.13-0.269-4.797-0.194-5.161,2.023C579.099,124.483,582.091,125.932,584.349,126.014z"/>
				<path style="fill:#34393D;" d="M574.935,106.607c0.406-0.896,1.578-1.418,2.436-0.791c0.887,0.648,1.145,2.321,0.866,3.309
					c-0.087,0.308-0.255,0.579-0.464,0.792c-0.578,0.743-1.633,0.831-2.307,0.057C574.752,109.154,574.485,107.598,574.935,106.607z
					"/>
				<path style="fill:#322575;" d="M573.625,103.433c1.078-1.191,3.49-1.797,4.686-0.489c0.237,0.259,0.115,0.617-0.095,0.834
					c-0.334,0.347-0.93,0.331-1.413,0.372c-0.925,0.313-1.856,0.991-2.784,0.92C573.028,104.994,573.113,103.999,573.625,103.433z"
					/>
				<path style="fill:#34393D;" d="M592.032,104.87c-0.651-0.737-1.924-0.893-2.561-0.042c-0.658,0.879-0.414,2.555,0.142,3.417
					c0.173,0.269,0.413,0.479,0.676,0.621c0.771,0.541,1.805,0.315,2.222-0.622C592.954,107.252,592.753,105.686,592.032,104.87z"/>
				<path style="fill:#322575;" d="M592.354,101.452c-1.38-0.822-3.864-0.695-4.623,0.906c-0.15,0.317,0.071,0.623,0.335,0.77
					c0.421,0.233,0.986,0.044,1.46-0.059c0.976,0.028,2.065,0.403,2.932,0.063C593.382,102.769,593.01,101.843,592.354,101.452z"/>
			</g>
		</g>
	</g>
</g>
<g id="DESIGNED_BY_FREEPIK">
	<g id="XMLID_1_">
		<g id="XMLID_319_">
			<g id="XMLID_338_">
				<path id="XMLID_346_" style="fill:#1D262D;" d="M385.104,470.349c-0.432,0.443-0.803,0.931-1.108,1.453l-0.465-0.241
					c-0.067-0.298-0.349-0.503-0.659-0.466c-0.331,0.039-0.568,0.339-0.529,0.67c0.039,0.331,0.339,0.568,0.67,0.529
					c0.065-0.008,0.127-0.026,0.184-0.052l0.452,0.234c-0.251,0.554-0.433,1.139-0.539,1.744l0.746,0.132
					c0.23-1.306,0.85-2.507,1.792-3.473L385.104,470.349z"/>
				<path id="XMLID_345_" style="fill:#1D262D;" d="M390.592,468.047c-0.171,0-0.341,0.006-0.51,0.017l-0.074-0.626
					c0.188-0.149,0.296-0.389,0.266-0.645c-0.046-0.393-0.402-0.674-0.795-0.628c-0.393,0.046-0.674,0.402-0.628,0.795
					c0.03,0.254,0.189,0.461,0.405,0.564l0.073,0.624c-0.714,0.116-1.403,0.332-2.06,0.646l0.327,0.684
					c0.934-0.447,1.942-0.673,2.995-0.673c0.496,0,0.993,0.053,1.475,0.158l0.161-0.741
					C391.692,468.106,391.142,468.047,390.592,468.047z"/>
				<path id="XMLID_344_" style="fill:#1D262D;" d="M397.194,470.595c0.331-0.04,0.566-0.342,0.526-0.672
					c-0.04-0.331-0.342-0.566-0.672-0.526c-0.309,0.038-0.535,0.304-0.53,0.609l-0.416,0.363c-0.418-0.43-0.89-0.813-1.408-1.139
					l-0.404,0.641c1.134,0.715,2.021,1.726,2.563,2.925l0.69-0.313c-0.251-0.554-0.568-1.072-0.942-1.545l0.402-0.351
					C397.065,470.599,397.129,470.603,397.194,470.595z"/>
				<path id="XMLID_343_" style="fill:#1D262D;" d="M390.044,478.256c-0.386,0.023-0.775,0.035-1.157,0.035
					c-0.88,0-1.733-0.061-2.478-0.179c-0.39-0.062-0.846-0.155-1.27-0.292c1.046,1.861,3.069,3.125,5.388,3.125
					c2.855,0,5.262-1.916,5.95-4.504c-0.682,0.449-1.505,0.825-2.459,1.123C392.839,477.931,391.463,478.17,390.044,478.256z"/>
				<path id="XMLID_339_" style="fill:#1D262D;" d="M390.592,469.563c-3.352,0-6.08,2.666-6.08,5.943
					c0,0.426,0.046,0.849,0.137,1.261c0.673,0.483,2.706,0.89,5.348,0.731c2.879-0.173,5.297-0.957,6.672-2.159
					c-0.005-0.195-0.021-0.39-0.045-0.582C396.244,471.797,393.65,469.563,390.592,469.563z M388.432,476.078
					c-1.02,0-1.85-0.83-1.85-1.85c0-1.02,0.83-1.85,1.85-1.85c1.02,0,1.85,0.83,1.85,1.85
					C390.282,475.249,389.452,476.078,388.432,476.078z M393.17,475.17c-0.75,0-1.36-0.61-1.36-1.36c0-0.75,0.61-1.361,1.36-1.361
					c0.75,0,1.36,0.61,1.36,1.361C394.53,474.56,393.92,475.17,393.17,475.17z"/>
			</g>
			<path id="XMLID_336_" style="fill:#1D262D;" d="M406.595,471.431c-0.295-0.116-0.805-0.309-1.382-0.237
				c-0.551,0.069-0.844,0.341-0.844,1.007v0.866h2.228v1.717h-2.228v5.455h-1.932v-5.455h-1.34v-1.717h1.34v-0.888
				c0-1.68,0.896-2.783,2.568-2.783c0.643,0,1.157,0.122,1.59,0.308L406.595,471.431z"/>
			<path id="XMLID_334_" style="fill:#1D262D;" d="M411.298,474.763c-0.177-0.03-0.358-0.046-0.526-0.046
				c-0.895,0-1.51,0.548-1.51,1.613v3.908h-1.932v-7.172h1.873v0.785c0.451-0.673,1.14-0.977,2.021-0.977
				c0.414,0,0.848,0.128,1.094,0.337L411.298,474.763z"/>
			<path id="XMLID_331_" style="fill:#1D262D;" d="M418.965,476.641c0,0.222-0.015,0.489-0.037,0.651h-5.085
				c0.207,1.036,0.933,1.488,1.843,1.488c0.622,0,1.295-0.252,1.813-0.688l1.133,1.243c-0.814,0.748-1.85,1.088-3.057,1.088
				c-2.198,0-3.723-1.495-3.723-3.753c0-2.258,1.48-3.797,3.626-3.797C417.544,472.873,418.958,474.406,418.965,476.641z
				 M413.851,475.975h3.175c-0.177-0.918-0.733-1.436-1.562-1.436C414.554,474.539,414.021,475.087,413.851,475.975z"/>
			<path id="XMLID_328_" style="fill:#1D262D;" d="M426.618,476.641c0,0.222-0.015,0.489-0.037,0.651h-5.085
				c0.207,1.036,0.932,1.488,1.843,1.488c0.622,0,1.295-0.252,1.813-0.688l1.132,1.243c-0.814,0.748-1.85,1.088-3.057,1.088
				c-2.198,0-3.723-1.495-3.723-3.753c0-2.258,1.48-3.797,3.627-3.797C425.197,472.873,426.611,474.406,426.618,476.641z
				 M421.504,475.975h3.175c-0.178-0.918-0.733-1.436-1.562-1.436C422.207,474.539,421.674,475.087,421.504,475.975z"/>
			<path id="XMLID_325_" style="fill:#1D262D;" d="M434.964,476.648c0,2.154-1.495,3.775-3.471,3.775
				c-0.962,0-1.643-0.378-2.109-0.933v3.708h-1.924v-10.133h1.887v0.792c0.466-0.585,1.155-0.984,2.139-0.984
				C433.469,472.873,434.964,474.494,434.964,476.648z M429.287,476.648c0,1.132,0.747,1.976,1.843,1.976
				c1.14,0,1.85-0.881,1.85-1.976c0-1.095-0.711-1.976-1.85-1.976C430.035,474.672,429.287,475.516,429.287,476.648z"/>
			<path id="XMLID_322_" style="fill:#1D262D;" d="M438.068,470.72c0,0.696-0.54,1.229-1.236,1.229
				c-0.696,0-1.229-0.533-1.229-1.229c0-0.696,0.533-1.243,1.229-1.243C437.527,469.476,438.068,470.024,438.068,470.72z
				 M437.809,480.238h-1.932v-7.172h1.932V480.238z"/>
			<path id="XMLID_320_" style="fill:#1D262D;" d="M441.032,475.619l2.702-2.554h2.368l-3.479,3.375l3.501,3.797h-2.376
				l-2.716-2.901v2.901H439.1V469.58h1.932V475.619z"/>
		</g>
		<g id="XMLID_2_">
			<path id="XMLID_3_" style="fill:#1D262D;" d="M309.412,480.173v-1.055c-0.527,0.718-1.391,1.23-2.388,1.23
				c-1.846,0-3.149-1.406-3.149-3.706c0-2.256,1.289-3.721,3.149-3.721c0.952,0,1.816,0.469,2.388,1.245v-3.765h1.099v9.77H309.412z
				 M309.412,478.254v-3.208c-0.395-0.615-1.245-1.143-2.124-1.143c-1.421,0-2.27,1.172-2.27,2.739c0,1.567,0.85,2.724,2.27,2.724
				C308.168,479.367,309.017,478.869,309.412,478.254z"/>
			<path id="XMLID_6_" style="fill:#1D262D;" d="M311.932,476.628c0-2.051,1.465-3.706,3.486-3.706c2.139,0,3.398,1.67,3.398,3.794
				v0.279h-5.727c0.088,1.333,1.025,2.446,2.549,2.446c0.806,0,1.626-0.322,2.182-0.893l0.527,0.718
				c-0.703,0.703-1.655,1.084-2.812,1.084C313.44,480.349,311.932,478.84,311.932,476.628z M315.403,473.831
				c-1.509,0-2.256,1.274-2.314,2.358h4.643C317.718,475.134,317.015,473.831,315.403,473.831z"/>
			<path id="XMLID_9_" style="fill:#1D262D;" d="M319.607,479.235l0.571-0.791c0.469,0.542,1.362,1.011,2.329,1.011
				c1.084,0,1.67-0.513,1.67-1.216c0-1.714-4.38-0.659-4.38-3.281c0-1.098,0.952-2.036,2.636-2.036c1.201,0,2.051,0.454,2.622,1.025
				l-0.513,0.762c-0.424-0.513-1.201-0.894-2.109-0.894c-0.967,0-1.567,0.483-1.567,1.113c0,1.552,4.38,0.527,4.38,3.281
				c0,1.187-0.952,2.138-2.783,2.138C321.306,480.349,320.325,479.997,319.607,479.235z"/>
			<path id="XMLID_11_" style="fill:#1D262D;" d="M326.477,471.355c0-0.41,0.337-0.747,0.732-0.747c0.41,0,0.747,0.337,0.747,0.747
				c0,0.41-0.337,0.732-0.747,0.732C326.814,472.087,326.477,471.765,326.477,471.355z M326.667,480.173v-7.075h1.099v7.075H326.667
				z"/>
			<path id="XMLID_14_" style="fill:#1D262D;" d="M329.582,481.989l0.556-0.82c0.586,0.703,1.289,0.967,2.3,0.967
				c1.172,0,2.27-0.571,2.27-2.124v-1.011c-0.513,0.718-1.377,1.26-2.373,1.26c-1.845,0-3.149-1.377-3.149-3.662
				c0-2.27,1.289-3.676,3.149-3.676c0.952,0,1.802,0.469,2.373,1.245v-1.069h1.099v6.87c0,2.344-1.641,3.076-3.369,3.076
				C331.237,483.044,330.417,482.809,329.582,481.989z M334.709,478.137v-3.091c-0.381-0.615-1.23-1.143-2.109-1.143
				c-1.421,0-2.27,1.128-2.27,2.695c0,1.553,0.849,2.695,2.27,2.695C333.478,479.294,334.328,478.752,334.709,478.137z"/>
			<path id="XMLID_17_" style="fill:#1D262D;" d="M342.413,480.173v-4.629c0-1.245-0.63-1.641-1.582-1.641
				c-0.865,0-1.685,0.527-2.095,1.099v5.17h-1.099v-7.075h1.099v1.025c0.498-0.586,1.465-1.201,2.519-1.201
				c1.48,0,2.256,0.747,2.256,2.285v4.966H342.413z"/>
			<path id="XMLID_19_" style="fill:#1D262D;" d="M344.932,476.628c0-2.051,1.465-3.706,3.486-3.706c2.138,0,3.398,1.67,3.398,3.794
				v0.279h-5.727c0.088,1.333,1.025,2.446,2.549,2.446c0.806,0,1.626-0.322,2.183-0.893l0.527,0.718
				c-0.703,0.703-1.655,1.084-2.812,1.084C346.441,480.349,344.932,478.84,344.932,476.628z M348.404,473.831
				c-1.509,0-2.256,1.274-2.314,2.358h4.643C350.718,475.134,350.015,473.831,348.404,473.831z"/>
			<path id="XMLID_22_" style="fill:#1D262D;" d="M358.35,480.173v-1.055c-0.527,0.718-1.391,1.23-2.388,1.23
				c-1.845,0-3.149-1.406-3.149-3.706c0-2.256,1.289-3.721,3.149-3.721c0.952,0,1.817,0.469,2.388,1.245v-3.765h1.099v9.77H358.35z
				 M358.35,478.254v-3.208c-0.396-0.615-1.245-1.143-2.124-1.143c-1.421,0-2.27,1.172-2.27,2.739c0,1.567,0.849,2.724,2.27,2.724
				C357.105,479.367,357.954,478.869,358.35,478.254z"/>
			<path id="XMLID_25_" style="fill:#1D262D;" d="M364.692,480.173v-9.77h1.098v3.765c0.572-0.776,1.421-1.245,2.388-1.245
				c1.845,0,3.149,1.465,3.149,3.721c0,2.299-1.304,3.706-3.149,3.706c-0.996,0-1.86-0.513-2.388-1.23v1.055H364.692z
				 M367.9,479.367c1.436,0,2.285-1.157,2.285-2.724c0-1.568-0.85-2.739-2.285-2.739c-0.864,0-1.728,0.527-2.109,1.143v3.208
				C366.171,478.869,367.036,479.367,367.9,479.367z"/>
			<path id="XMLID_28_" style="fill:#1D262D;" d="M372.528,481.945c0.161,0.073,0.425,0.117,0.601,0.117
				c0.483,0,0.806-0.161,1.055-0.747l0.469-1.069l-2.959-7.148h1.187l2.358,5.801l2.344-5.801h1.201l-3.545,8.51
				c-0.425,1.025-1.143,1.421-2.08,1.435c-0.234,0-0.601-0.044-0.806-0.103L372.528,481.945z"/>
		</g>
	</g>
</g>
</svg>
